<svg width="143" height="143" viewBox="0 0 143 143" fill="none" xmlns="http://www.w3.org/2000/svg">
<g clip-path="url(#clip0_384_650)">
<path fill-rule="evenodd" clip-rule="evenodd" d="M35.4833 94.7738C33.0725 91.0649 31.2544 87.003 30.0943 82.7342L33.2872 79.8006C37.6414 75.7999 37.5722 69.3656 33.1612 65.4519L29.5761 62.2723C30.4816 58.111 32.0056 54.109 34.0973 50.3994L39.1551 50.6126C45.0619 50.8638 49.5649 46.2658 49.2114 40.3782L48.8888 34.9916C52.4074 32.8107 56.2251 31.1543 60.2216 30.0748L63.9431 34.1245C67.9438 38.4787 74.3782 38.4095 78.2918 33.9985L81.9391 29.884C85.9529 30.8926 89.7983 32.4808 93.354 34.5986L93.1273 39.9912C92.8787 45.9005 97.4754 50.4022 103.363 50.0487L108.416 49.7467C110.573 53.4181 112.167 57.3919 113.145 61.5358L109.617 64.7779C105.261 68.7799 105.33 75.2142 109.741 79.1278L112.985 82.0049C111.9 86.2934 110.154 90.3866 107.809 94.1373L103.747 93.9646C97.8395 93.7173 93.339 98.3153 93.69 104.2L93.9161 107.947C90.0529 110.329 85.834 112.079 81.4188 113.13L78.9608 110.454C74.96 106.1 68.5257 106.169 64.6121 110.58L62.2014 113.298C57.7685 112.325 53.5195 110.65 49.615 108.337L49.7741 104.587C50.0227 98.678 45.4259 94.1764 39.5383 94.5299L35.4833 94.7738ZM58.929 84.1819C65.9638 91.0942 77.2695 90.9949 84.1818 83.9601C91.0942 76.9252 90.9949 65.6195 83.96 58.7072C76.9252 51.7949 65.6195 51.8942 58.7072 58.929C51.7949 65.9638 51.8942 77.2695 58.929 84.1819Z" fill="#04364A"/>
</g>
<defs>
<clipPath id="clip0_384_650">
<rect width="100" height="100" fill="white" transform="translate(70.8235 0.736572) rotate(44.4968)"/>
</clipPath>
</defs>
</svg>
