<svg width="631" height="535" viewBox="0 0 631 535" fill="none" xmlns="http://www.w3.org/2000/svg">
<g filter="url(#filter0_bd_523_21)">
<rect x="40.5029" y="20.0726" width="549.668" height="453.973" rx="40" fill="url(#paint0_linear_523_21)" shape-rendering="crispEdges"/>
<rect x="41.0029" y="20.5726" width="548.668" height="452.973" rx="39.5" stroke="url(#paint1_linear_523_21)" stroke-opacity="0.6" shape-rendering="crispEdges"/>
</g>
<path d="M91.4998 78.5891V82.5881H78.9729V78.5891H91.4998ZM80.6306 57.7053V82.5881H75.5037V57.7053H80.6306ZM104.392 82.9299C102.957 82.9299 101.669 82.702 100.53 82.2463C99.3907 81.7792 98.4223 81.1355 97.6248 80.3152C96.8386 79.4948 96.2348 78.5435 95.8132 77.4612C95.3917 76.3674 95.1809 75.2053 95.1809 73.9748V73.2912C95.1809 71.8899 95.3803 70.6081 95.7791 69.446C96.1778 68.2839 96.7475 67.2756 97.488 66.4211C98.24 65.5666 99.1514 64.9115 100.222 64.4558C101.293 63.9887 102.501 63.7551 103.845 63.7551C105.156 63.7551 106.318 63.9716 107.332 64.4045C108.346 64.8375 109.195 65.4527 109.878 66.2502C110.573 67.0477 111.097 68.0048 111.45 69.1213C111.804 70.2265 111.98 71.4569 111.98 72.8127V74.8635H97.283V71.5822H107.144V71.2063C107.144 70.5227 107.018 69.9131 106.768 69.3777C106.529 68.8308 106.164 68.3978 105.674 68.0788C105.184 67.7598 104.558 67.6003 103.794 67.6003C103.145 67.6003 102.587 67.7427 102.119 68.0276C101.652 68.3124 101.271 68.7112 100.974 69.2238C100.69 69.7365 100.473 70.3404 100.325 71.0354C100.188 71.719 100.12 72.4709 100.12 73.2912V73.9748C100.12 74.7154 100.222 75.399 100.427 76.0256C100.644 76.6522 100.946 77.1934 101.333 77.6491C101.732 78.1049 102.211 78.4581 102.769 78.7087C103.338 78.9594 103.982 79.0847 104.7 79.0847C105.589 79.0847 106.415 78.9138 107.178 78.572C107.953 78.2188 108.619 77.689 109.177 76.9826L111.57 79.5803C111.183 80.1386 110.653 80.674 109.981 81.1867C109.32 81.6994 108.522 82.121 107.588 82.4514C106.654 82.7704 105.589 82.9299 104.392 82.9299ZM126.513 78.4182V70.1809C126.513 69.5884 126.417 69.0814 126.223 68.6599C126.029 68.2269 125.727 67.8908 125.317 67.6516C124.918 67.4123 124.4 67.2927 123.762 67.2927C123.215 67.2927 122.742 67.3895 122.344 67.5832C121.945 67.7655 121.637 68.0333 121.421 68.3864C121.204 68.7282 121.096 69.1327 121.096 69.5998H116.174C116.174 68.8137 116.356 68.0674 116.721 67.3611C117.086 66.6547 117.615 66.0337 118.31 65.4983C119.005 64.9514 119.831 64.5241 120.788 64.2165C121.757 63.9089 122.839 63.7551 124.035 63.7551C125.471 63.7551 126.747 63.9944 127.864 64.4729C128.98 64.9514 129.857 65.6692 130.495 66.6262C131.145 67.5832 131.469 68.7795 131.469 70.2151V78.1277C131.469 79.1417 131.532 79.9734 131.657 80.6228C131.783 81.2608 131.965 81.8191 132.204 82.2976V82.5881H127.231C126.992 82.0868 126.81 81.4602 126.684 80.7082C126.57 79.9449 126.513 79.1815 126.513 78.4182ZM127.163 71.3259L127.197 74.1115H124.446C123.796 74.1115 123.232 74.1856 122.754 74.3337C122.275 74.4818 121.882 74.6926 121.574 74.966C121.267 75.2281 121.039 75.5357 120.891 75.8889C120.754 76.2421 120.686 76.6294 120.686 77.051C120.686 77.4725 120.783 77.8542 120.976 78.196C121.17 78.5264 121.449 78.7885 121.814 78.9821C122.178 79.1644 122.606 79.2556 123.095 79.2556C123.836 79.2556 124.48 79.1075 125.027 78.8112C125.573 78.515 125.995 78.1504 126.291 77.7175C126.599 77.2846 126.758 76.8744 126.77 76.487L128.069 78.572C127.886 79.0391 127.636 79.5233 127.317 80.0246C127.009 80.5259 126.616 80.9987 126.137 81.4431C125.659 81.876 125.084 82.2349 124.411 82.5197C123.739 82.7932 122.942 82.9299 122.019 82.9299C120.845 82.9299 119.78 82.6963 118.823 82.2292C117.877 81.7507 117.125 81.0956 116.567 80.2639C116.02 79.4208 115.747 78.4638 115.747 77.3928C115.747 76.4244 115.929 75.5642 116.294 74.8122C116.658 74.0603 117.194 73.4279 117.9 72.9153C118.618 72.3912 119.512 71.9981 120.583 71.7361C121.654 71.4626 122.896 71.3259 124.309 71.3259H127.163ZM141.935 68.1301V82.5881H137.013V64.0969H141.645L141.935 68.1301ZM147.507 63.9773L147.421 68.5403C147.182 68.5061 146.891 68.4776 146.55 68.4548C146.219 68.4206 145.917 68.4035 145.644 68.4035C144.949 68.4035 144.345 68.4947 143.832 68.677C143.331 68.8479 142.909 69.1042 142.568 69.446C142.237 69.7878 141.987 70.2037 141.816 70.6936C141.656 71.1835 141.565 71.7418 141.542 72.3684L140.551 72.0608C140.551 70.8645 140.671 69.765 140.91 68.7624C141.149 67.7484 141.497 66.8654 141.952 66.1135C142.42 65.3615 142.989 64.7805 143.661 64.3703C144.334 63.9602 145.103 63.7551 145.969 63.7551C146.242 63.7551 146.521 63.7779 146.806 63.8235C147.091 63.8576 147.324 63.9089 147.507 63.9773ZM156.4 68.0446V82.5881H151.478V64.0969H156.093L156.4 68.0446ZM155.682 72.6931H154.349C154.349 71.3259 154.526 70.0954 154.879 69.0017C155.232 67.8965 155.728 66.9566 156.366 66.1819C157.004 65.3957 157.762 64.7976 158.639 64.3874C159.528 63.9659 160.519 63.7551 161.613 63.7551C162.478 63.7551 163.27 63.8804 163.988 64.1311C164.706 64.3817 165.321 64.7805 165.834 65.3274C166.358 65.8742 166.757 66.5977 167.03 67.4978C167.315 68.3978 167.457 69.4973 167.457 70.7961V82.5881H162.501V70.779C162.501 69.9587 162.387 69.3207 162.159 68.865C161.932 68.4092 161.595 68.0902 161.151 67.9079C160.718 67.7142 160.183 67.6174 159.545 67.6174C158.884 67.6174 158.309 67.7484 157.819 68.0105C157.34 68.2725 156.941 68.6371 156.622 69.1042C156.315 69.5599 156.081 70.0954 155.922 70.7107C155.762 71.3259 155.682 71.9867 155.682 72.6931Z" fill="black"/>
<path d="M79.6946 123.588H76.2019L76.2244 121.353H79.6946C80.7053 121.353 81.5514 121.132 82.2327 120.691C82.9215 120.249 83.4381 119.616 83.7825 118.793C84.1344 117.969 84.3103 116.988 84.3103 115.85V114.963C84.3103 114.08 84.2092 113.297 84.0071 112.616C83.8124 111.935 83.5204 111.362 83.1311 110.898C82.7493 110.433 82.2776 110.082 81.7161 109.842C81.162 109.602 80.5219 109.483 79.7957 109.483H76.1345V107.237H79.7957C80.8813 107.237 81.8733 107.42 82.7717 107.787C83.6702 108.146 84.4451 108.667 85.0964 109.348C85.7553 110.029 86.2607 110.845 86.6125 111.796C86.9644 112.747 87.1404 113.81 87.1404 114.986V115.85C87.1404 117.026 86.9644 118.089 86.6125 119.04C86.2607 119.991 85.7553 120.807 85.0964 121.488C84.4376 122.162 83.6514 122.682 82.738 123.049C81.8321 123.408 80.8176 123.588 79.6946 123.588ZM77.7629 107.237V123.588H74.9441V107.237H77.7629ZM94.3773 122.263L97.6791 111.437H100.577L95.7025 125.441C95.5902 125.741 95.4442 126.066 95.2645 126.418C95.0848 126.77 94.849 127.103 94.557 127.418C94.2725 127.74 93.9168 127.998 93.4901 128.193C93.0633 128.395 92.5467 128.496 91.9403 128.496C91.7007 128.496 91.4686 128.473 91.244 128.428C91.0269 128.391 90.821 128.35 90.6263 128.305L90.6151 126.238C90.69 126.246 90.7798 126.253 90.8846 126.261C90.9969 126.268 91.0868 126.272 91.1542 126.272C91.6034 126.272 91.9777 126.216 92.2772 126.104C92.5767 125.999 92.82 125.827 93.0072 125.587C93.2018 125.348 93.3666 125.026 93.5013 124.621L94.3773 122.263ZM92.513 111.437L95.3993 120.533L95.8822 123.386L94.0067 123.869L89.5931 111.437H92.513ZM105.96 114.031V123.588H103.254V111.437H105.803L105.96 114.031ZM105.477 117.063L104.602 117.052C104.609 116.191 104.729 115.401 104.961 114.682C105.2 113.964 105.53 113.346 105.949 112.829C106.376 112.313 106.885 111.916 107.477 111.639C108.068 111.354 108.727 111.212 109.453 111.212C110.037 111.212 110.565 111.294 111.037 111.459C111.516 111.616 111.924 111.875 112.261 112.234C112.605 112.593 112.867 113.061 113.047 113.638C113.227 114.207 113.316 114.907 113.316 115.738V123.588H110.599V115.727C110.599 115.143 110.512 114.682 110.34 114.345C110.176 114.001 109.932 113.758 109.61 113.615C109.296 113.466 108.903 113.391 108.431 113.391C107.967 113.391 107.551 113.488 107.185 113.683C106.818 113.877 106.507 114.143 106.252 114.48C106.005 114.817 105.814 115.206 105.68 115.648C105.545 116.09 105.477 116.562 105.477 117.063ZM124.08 121.151V115.356C124.08 114.922 124.001 114.548 123.844 114.233C123.687 113.919 123.447 113.675 123.125 113.503C122.811 113.331 122.414 113.245 121.935 113.245C121.493 113.245 121.111 113.32 120.789 113.469C120.467 113.619 120.216 113.821 120.037 114.076C119.857 114.33 119.767 114.619 119.767 114.941H117.072C117.072 114.461 117.188 113.997 117.42 113.548C117.652 113.099 117.989 112.698 118.431 112.346C118.872 111.995 119.4 111.717 120.014 111.515C120.628 111.313 121.317 111.212 122.081 111.212C122.994 111.212 123.803 111.366 124.506 111.673C125.218 111.98 125.775 112.444 126.18 113.065C126.592 113.679 126.797 114.45 126.797 115.379V120.78C126.797 121.335 126.835 121.832 126.91 122.274C126.992 122.708 127.108 123.086 127.258 123.408V123.588H124.484C124.357 123.296 124.256 122.926 124.181 122.476C124.113 122.02 124.08 121.578 124.08 121.151ZM124.473 116.198L124.495 117.872H122.552C122.051 117.872 121.609 117.92 121.227 118.018C120.845 118.108 120.527 118.242 120.273 118.422C120.018 118.602 119.827 118.819 119.7 119.073C119.572 119.328 119.509 119.616 119.509 119.938C119.509 120.26 119.584 120.556 119.733 120.825C119.883 121.087 120.1 121.293 120.385 121.443C120.677 121.593 121.029 121.668 121.44 121.668C121.995 121.668 122.477 121.555 122.889 121.331C123.308 121.099 123.638 120.818 123.877 120.488C124.117 120.152 124.244 119.833 124.259 119.534L125.135 120.736C125.045 121.043 124.892 121.372 124.675 121.724C124.458 122.076 124.173 122.413 123.821 122.735C123.477 123.049 123.061 123.307 122.575 123.509C122.096 123.712 121.542 123.813 120.913 123.813C120.119 123.813 119.412 123.655 118.79 123.341C118.169 123.019 117.682 122.589 117.33 122.05C116.978 121.503 116.802 120.885 116.802 120.197C116.802 119.553 116.922 118.984 117.162 118.489C117.409 117.988 117.768 117.569 118.24 117.232C118.719 116.895 119.303 116.64 119.992 116.468C120.681 116.288 121.467 116.198 122.35 116.198H124.473ZM133.484 113.907V123.588H130.777V111.437H133.327L133.484 113.907ZM133.046 117.063L132.125 117.052C132.125 116.213 132.23 115.439 132.44 114.727C132.649 114.016 132.956 113.398 133.36 112.874C133.765 112.343 134.266 111.935 134.865 111.65C135.472 111.358 136.172 111.212 136.965 111.212C137.52 111.212 138.025 111.294 138.482 111.459C138.946 111.616 139.346 111.867 139.683 112.212C140.028 112.556 140.29 112.998 140.469 113.537C140.657 114.076 140.75 114.727 140.75 115.491V123.588H138.044V115.727C138.044 115.135 137.954 114.671 137.774 114.334C137.602 113.997 137.351 113.758 137.022 113.615C136.7 113.466 136.314 113.391 135.865 113.391C135.356 113.391 134.922 113.488 134.562 113.683C134.21 113.877 133.922 114.143 133.697 114.48C133.473 114.817 133.308 115.206 133.203 115.648C133.098 116.09 133.046 116.562 133.046 117.063ZM140.582 116.344L139.313 116.625C139.313 115.891 139.414 115.199 139.616 114.548C139.826 113.889 140.129 113.312 140.526 112.818C140.93 112.316 141.428 111.923 142.019 111.639C142.611 111.354 143.288 111.212 144.052 111.212C144.673 111.212 145.227 111.298 145.714 111.47C146.208 111.635 146.627 111.897 146.972 112.257C147.316 112.616 147.578 113.084 147.758 113.66C147.938 114.229 148.027 114.918 148.027 115.727V123.588H145.31V115.716C145.31 115.102 145.22 114.626 145.04 114.289C144.868 113.952 144.621 113.72 144.299 113.593C143.977 113.458 143.591 113.391 143.142 113.391C142.723 113.391 142.352 113.469 142.03 113.627C141.716 113.776 141.45 113.99 141.233 114.267C141.016 114.536 140.851 114.847 140.739 115.199C140.634 115.551 140.582 115.933 140.582 116.344ZM154.86 111.437V123.588H152.142V111.437H154.86ZM151.963 108.247C151.963 107.836 152.097 107.495 152.367 107.225C152.644 106.948 153.026 106.81 153.512 106.81C153.992 106.81 154.37 106.948 154.647 107.225C154.924 107.495 155.062 107.836 155.062 108.247C155.062 108.652 154.924 108.988 154.647 109.258C154.37 109.528 153.992 109.662 153.512 109.662C153.026 109.662 152.644 109.528 152.367 109.258C152.097 108.988 151.963 108.652 151.963 108.247ZM163.939 121.656C164.381 121.656 164.777 121.57 165.129 121.398C165.489 121.218 165.777 120.971 165.994 120.657C166.219 120.342 166.342 119.979 166.365 119.568H168.914C168.899 120.354 168.667 121.069 168.218 121.713C167.768 122.356 167.173 122.869 166.432 123.251C165.691 123.626 164.871 123.813 163.973 123.813C163.044 123.813 162.236 123.655 161.547 123.341C160.858 123.019 160.285 122.577 159.828 122.016C159.372 121.454 159.027 120.807 158.795 120.073C158.571 119.339 158.458 118.553 158.458 117.715V117.322C158.458 116.483 158.571 115.697 158.795 114.963C159.027 114.222 159.372 113.571 159.828 113.009C160.285 112.447 160.858 112.009 161.547 111.695C162.236 111.373 163.04 111.212 163.961 111.212C164.935 111.212 165.788 111.407 166.522 111.796C167.256 112.178 167.832 112.713 168.251 113.402C168.678 114.083 168.899 114.877 168.914 115.783H166.365C166.342 115.334 166.23 114.929 166.028 114.57C165.833 114.203 165.556 113.911 165.197 113.694C164.845 113.477 164.422 113.368 163.928 113.368C163.381 113.368 162.928 113.481 162.569 113.705C162.209 113.922 161.929 114.222 161.726 114.604C161.524 114.978 161.378 115.401 161.288 115.873C161.206 116.337 161.165 116.82 161.165 117.322V117.715C161.165 118.216 161.206 118.703 161.288 119.175C161.371 119.646 161.513 120.069 161.715 120.444C161.925 120.81 162.209 121.106 162.569 121.331C162.928 121.548 163.385 121.656 163.939 121.656ZM185.499 117.49H181.243V115.255H185.499C186.24 115.255 186.839 115.135 187.296 114.896C187.753 114.656 188.086 114.327 188.295 113.907C188.513 113.481 188.621 112.994 188.621 112.447C188.621 111.931 188.513 111.448 188.295 110.999C188.086 110.542 187.753 110.175 187.296 109.898C186.839 109.621 186.24 109.483 185.499 109.483H182.107V123.588H179.289V107.237H185.499C186.764 107.237 187.839 107.461 188.722 107.91C189.613 108.352 190.291 108.966 190.755 109.752C191.219 110.531 191.451 111.422 191.451 112.425C191.451 113.481 191.219 114.387 190.755 115.143C190.291 115.899 189.613 116.479 188.722 116.884C187.839 117.288 186.764 117.49 185.499 117.49ZM197.576 113.75V123.588H194.87V111.437H197.453L197.576 113.75ZM201.294 111.358L201.271 113.874C201.106 113.844 200.927 113.821 200.732 113.806C200.545 113.791 200.358 113.784 200.171 113.784C199.706 113.784 199.298 113.851 198.946 113.986C198.595 114.113 198.299 114.301 198.059 114.548C197.827 114.787 197.647 115.079 197.52 115.424C197.393 115.768 197.318 116.154 197.296 116.58L196.678 116.625C196.678 115.862 196.753 115.154 196.902 114.503C197.052 113.851 197.277 113.279 197.576 112.784C197.883 112.29 198.265 111.905 198.722 111.628C199.186 111.351 199.721 111.212 200.328 111.212C200.492 111.212 200.668 111.227 200.856 111.257C201.05 111.287 201.196 111.321 201.294 111.358ZM203.331 117.647V117.389C203.331 116.513 203.458 115.701 203.713 114.952C203.967 114.196 204.334 113.541 204.813 112.987C205.3 112.425 205.891 111.991 206.588 111.684C207.291 111.369 208.085 111.212 208.969 111.212C209.859 111.212 210.653 111.369 211.349 111.684C212.053 111.991 212.648 112.425 213.135 112.987C213.622 113.541 213.992 114.196 214.247 114.952C214.501 115.701 214.629 116.513 214.629 117.389V117.647C214.629 118.523 214.501 119.336 214.247 120.084C213.992 120.833 213.622 121.488 213.135 122.05C212.648 122.604 212.057 123.038 211.361 123.352C210.664 123.659 209.874 123.813 208.991 123.813C208.1 123.813 207.303 123.659 206.599 123.352C205.903 123.038 205.311 122.604 204.824 122.05C204.338 121.488 203.967 120.833 203.713 120.084C203.458 119.336 203.331 118.523 203.331 117.647ZM206.037 117.389V117.647C206.037 118.194 206.094 118.71 206.206 119.197C206.318 119.684 206.494 120.11 206.734 120.477C206.973 120.844 207.28 121.132 207.655 121.342C208.029 121.552 208.474 121.656 208.991 121.656C209.493 121.656 209.927 121.552 210.294 121.342C210.668 121.132 210.975 120.844 211.215 120.477C211.454 120.11 211.63 119.684 211.742 119.197C211.862 118.71 211.922 118.194 211.922 117.647V117.389C211.922 116.85 211.862 116.341 211.742 115.862C211.63 115.375 211.45 114.944 211.203 114.57C210.964 114.196 210.657 113.904 210.282 113.694C209.916 113.477 209.478 113.368 208.969 113.368C208.459 113.368 208.018 113.477 207.643 113.694C207.276 113.904 206.973 114.196 206.734 114.57C206.494 114.944 206.318 115.375 206.206 115.862C206.094 116.341 206.037 116.85 206.037 117.389ZM225.83 111.437H228.289V123.251C228.289 124.344 228.057 125.273 227.593 126.036C227.129 126.8 226.481 127.38 225.65 127.777C224.819 128.181 223.857 128.384 222.764 128.384C222.3 128.384 221.783 128.316 221.214 128.181C220.653 128.047 220.106 127.829 219.575 127.53C219.05 127.238 218.612 126.852 218.261 126.373L219.53 124.779C219.964 125.295 220.443 125.673 220.967 125.913C221.491 126.152 222.042 126.272 222.618 126.272C223.239 126.272 223.767 126.156 224.202 125.924C224.643 125.699 224.984 125.366 225.223 124.925C225.463 124.483 225.583 123.944 225.583 123.307V114.188L225.83 111.437ZM217.576 117.647V117.411C217.576 116.49 217.688 115.652 217.912 114.896C218.137 114.132 218.459 113.477 218.878 112.93C219.298 112.376 219.807 111.953 220.406 111.661C221.005 111.362 221.682 111.212 222.438 111.212C223.224 111.212 223.895 111.354 224.449 111.639C225.01 111.923 225.478 112.331 225.852 112.863C226.227 113.387 226.519 114.016 226.728 114.75C226.945 115.476 227.106 116.285 227.211 117.176V117.928C227.114 118.796 226.949 119.59 226.717 120.309C226.485 121.028 226.178 121.649 225.796 122.173C225.414 122.697 224.943 123.101 224.381 123.386C223.827 123.67 223.172 123.813 222.416 123.813C221.675 123.813 221.005 123.659 220.406 123.352C219.814 123.045 219.305 122.615 218.878 122.061C218.459 121.507 218.137 120.855 217.912 120.107C217.688 119.35 217.576 118.531 217.576 117.647ZM220.282 117.411V117.647C220.282 118.201 220.334 118.718 220.439 119.197C220.552 119.676 220.72 120.099 220.945 120.466C221.177 120.825 221.469 121.11 221.821 121.32C222.18 121.522 222.603 121.623 223.09 121.623C223.726 121.623 224.246 121.488 224.651 121.218C225.063 120.949 225.377 120.586 225.594 120.129C225.819 119.665 225.976 119.148 226.066 118.579V116.547C226.021 116.105 225.927 115.693 225.785 115.311C225.65 114.929 225.467 114.596 225.235 114.312C225.003 114.02 224.711 113.795 224.359 113.638C224.007 113.473 223.591 113.391 223.112 113.391C222.625 113.391 222.202 113.496 221.843 113.705C221.484 113.915 221.188 114.203 220.956 114.57C220.731 114.937 220.563 115.364 220.451 115.85C220.338 116.337 220.282 116.857 220.282 117.411ZM234.965 113.75V123.588H232.258V111.437H234.841L234.965 113.75ZM238.682 111.358L238.66 113.874C238.495 113.844 238.315 113.821 238.121 113.806C237.933 113.791 237.746 113.784 237.559 113.784C237.095 113.784 236.687 113.851 236.335 113.986C235.983 114.113 235.687 114.301 235.448 114.548C235.216 114.787 235.036 115.079 234.909 115.424C234.781 115.768 234.706 116.154 234.684 116.58L234.066 116.625C234.066 115.862 234.141 115.154 234.291 114.503C234.441 113.851 234.665 113.279 234.965 112.784C235.272 112.29 235.654 111.905 236.11 111.628C236.574 111.351 237.11 111.212 237.716 111.212C237.881 111.212 238.057 111.227 238.244 111.257C238.439 111.287 238.585 111.321 238.682 111.358ZM247.974 121.151V115.356C247.974 114.922 247.896 114.548 247.738 114.233C247.581 113.919 247.342 113.675 247.02 113.503C246.705 113.331 246.308 113.245 245.829 113.245C245.387 113.245 245.006 113.32 244.684 113.469C244.362 113.619 244.111 113.821 243.931 114.076C243.752 114.33 243.662 114.619 243.662 114.941H240.966C240.966 114.461 241.082 113.997 241.314 113.548C241.547 113.099 241.884 112.698 242.325 112.346C242.767 111.995 243.295 111.717 243.909 111.515C244.523 111.313 245.211 111.212 245.975 111.212C246.889 111.212 247.697 111.366 248.401 111.673C249.112 111.98 249.67 112.444 250.074 113.065C250.486 113.679 250.692 114.45 250.692 115.379V120.78C250.692 121.335 250.729 121.832 250.804 122.274C250.887 122.708 251.003 123.086 251.152 123.408V123.588H248.378C248.251 123.296 248.15 122.926 248.075 122.476C248.008 122.02 247.974 121.578 247.974 121.151ZM248.367 116.198L248.39 117.872H246.447C245.945 117.872 245.503 117.92 245.122 118.018C244.74 118.108 244.422 118.242 244.167 118.422C243.912 118.602 243.722 118.819 243.594 119.073C243.467 119.328 243.403 119.616 243.403 119.938C243.403 120.26 243.478 120.556 243.628 120.825C243.778 121.087 243.995 121.293 244.279 121.443C244.571 121.593 244.923 121.668 245.335 121.668C245.889 121.668 246.372 121.555 246.784 121.331C247.203 121.099 247.532 120.818 247.772 120.488C248.012 120.152 248.139 119.833 248.154 119.534L249.03 120.736C248.94 121.043 248.787 121.372 248.569 121.724C248.352 122.076 248.068 122.413 247.716 122.735C247.371 123.049 246.956 123.307 246.469 123.509C245.99 123.712 245.436 123.813 244.807 123.813C244.014 123.813 243.306 123.655 242.685 123.341C242.063 123.019 241.577 122.589 241.225 122.05C240.873 121.503 240.697 120.885 240.697 120.197C240.697 119.553 240.817 118.984 241.056 118.489C241.303 117.988 241.663 117.569 242.134 117.232C242.613 116.895 243.197 116.64 243.886 116.468C244.575 116.288 245.361 116.198 246.245 116.198H248.367ZM257.379 113.907V123.588H254.672V111.437H257.221L257.379 113.907ZM256.941 117.063L256.02 117.052C256.02 116.213 256.125 115.439 256.334 114.727C256.544 114.016 256.851 113.398 257.255 112.874C257.659 112.343 258.161 111.935 258.76 111.65C259.366 111.358 260.066 111.212 260.86 111.212C261.414 111.212 261.919 111.294 262.376 111.459C262.84 111.616 263.241 111.867 263.578 112.212C263.922 112.556 264.184 112.998 264.364 113.537C264.551 114.076 264.645 114.727 264.645 115.491V123.588H261.938V115.727C261.938 115.135 261.848 114.671 261.669 114.334C261.496 113.997 261.246 113.758 260.916 113.615C260.594 113.466 260.209 113.391 259.759 113.391C259.25 113.391 258.816 113.488 258.457 113.683C258.105 113.877 257.817 114.143 257.592 114.48C257.367 114.817 257.203 115.206 257.098 115.648C256.993 116.09 256.941 116.562 256.941 117.063ZM264.476 116.344L263.207 116.625C263.207 115.891 263.308 115.199 263.51 114.548C263.72 113.889 264.023 113.312 264.42 112.818C264.824 112.316 265.322 111.923 265.914 111.639C266.505 111.354 267.183 111.212 267.946 111.212C268.568 111.212 269.122 111.298 269.609 111.47C270.103 111.635 270.522 111.897 270.866 112.257C271.211 112.616 271.473 113.084 271.652 113.66C271.832 114.229 271.922 114.918 271.922 115.727V123.588H269.204V115.716C269.204 115.102 269.114 114.626 268.935 114.289C268.763 113.952 268.515 113.72 268.194 113.593C267.872 113.458 267.486 113.391 267.037 113.391C266.618 113.391 266.247 113.469 265.925 113.627C265.611 113.776 265.345 113.99 265.128 114.267C264.91 114.536 264.746 114.847 264.633 115.199C264.529 115.551 264.476 115.933 264.476 116.344ZM278.564 113.907V123.588H275.857V111.437H278.406L278.564 113.907ZM278.126 117.063L277.205 117.052C277.205 116.213 277.31 115.439 277.519 114.727C277.729 114.016 278.036 113.398 278.44 112.874C278.844 112.343 279.346 111.935 279.945 111.65C280.552 111.358 281.252 111.212 282.045 111.212C282.599 111.212 283.105 111.294 283.561 111.459C284.025 111.616 284.426 111.867 284.763 112.212C285.107 112.556 285.369 112.998 285.549 113.537C285.736 114.076 285.83 114.727 285.83 115.491V123.588H283.123V115.727C283.123 115.135 283.033 114.671 282.854 114.334C282.682 113.997 282.431 113.758 282.101 113.615C281.779 113.466 281.394 113.391 280.945 113.391C280.435 113.391 280.001 113.488 279.642 113.683C279.29 113.877 279.002 114.143 278.777 114.48C278.552 114.817 278.388 115.206 278.283 115.648C278.178 116.09 278.126 116.562 278.126 117.063ZM285.661 116.344L284.392 116.625C284.392 115.891 284.493 115.199 284.696 114.548C284.905 113.889 285.208 113.312 285.605 112.818C286.01 112.316 286.507 111.923 287.099 111.639C287.69 111.354 288.368 111.212 289.132 111.212C289.753 111.212 290.307 111.298 290.794 111.47C291.288 111.635 291.707 111.897 292.052 112.257C292.396 112.616 292.658 113.084 292.838 113.66C293.017 114.229 293.107 114.918 293.107 115.727V123.588H290.389V115.716C290.389 115.102 290.3 114.626 290.12 114.289C289.948 113.952 289.701 113.72 289.379 113.593C289.057 113.458 288.671 113.391 288.222 113.391C287.803 113.391 287.432 113.469 287.11 113.627C286.796 113.776 286.53 113.99 286.313 114.267C286.096 114.536 285.931 114.847 285.819 115.199C285.714 115.551 285.661 115.933 285.661 116.344ZM299.94 111.437V123.588H297.222V111.437H299.94ZM297.042 108.247C297.042 107.836 297.177 107.495 297.447 107.225C297.724 106.948 298.105 106.81 298.592 106.81C299.071 106.81 299.449 106.948 299.726 107.225C300.003 107.495 300.142 107.836 300.142 108.247C300.142 108.652 300.003 108.988 299.726 109.258C299.449 109.528 299.071 109.662 298.592 109.662C298.105 109.662 297.724 109.528 297.447 109.258C297.177 108.988 297.042 108.652 297.042 108.247ZM306.739 114.031V123.588H304.032V111.437H306.581L306.739 114.031ZM306.256 117.063L305.38 117.052C305.387 116.191 305.507 115.401 305.739 114.682C305.979 113.964 306.308 113.346 306.727 112.829C307.154 112.313 307.663 111.916 308.255 111.639C308.846 111.354 309.505 111.212 310.231 111.212C310.815 111.212 311.343 111.294 311.815 111.459C312.294 111.616 312.702 111.875 313.039 112.234C313.383 112.593 313.645 113.061 313.825 113.638C314.005 114.207 314.095 114.907 314.095 115.738V123.588H311.377V115.727C311.377 115.143 311.291 114.682 311.119 114.345C310.954 114.001 310.711 113.758 310.389 113.615C310.074 113.466 309.681 113.391 309.209 113.391C308.745 113.391 308.33 113.488 307.963 113.683C307.596 113.877 307.285 114.143 307.031 114.48C306.784 114.817 306.593 115.206 306.458 115.648C306.323 116.09 306.256 116.562 306.256 117.063ZM325.79 111.437H328.25V123.251C328.25 124.344 328.017 125.273 327.553 126.036C327.089 126.8 326.441 127.38 325.61 127.777C324.779 128.181 323.817 128.384 322.724 128.384C322.26 128.384 321.743 128.316 321.174 128.181C320.613 128.047 320.066 127.829 319.535 127.53C319.011 127.238 318.573 126.852 318.221 126.373L319.49 124.779C319.924 125.295 320.403 125.673 320.927 125.913C321.451 126.152 322.002 126.272 322.578 126.272C323.2 126.272 323.727 126.156 324.162 125.924C324.603 125.699 324.944 125.366 325.184 124.925C325.423 124.483 325.543 123.944 325.543 123.307V114.188L325.79 111.437ZM317.536 117.647V117.411C317.536 116.49 317.648 115.652 317.873 114.896C318.097 114.132 318.419 113.477 318.838 112.93C319.258 112.376 319.767 111.953 320.366 111.661C320.965 111.362 321.642 111.212 322.398 111.212C323.185 111.212 323.855 111.354 324.409 111.639C324.97 111.923 325.438 112.331 325.813 112.863C326.187 113.387 326.479 114.016 326.689 114.75C326.906 115.476 327.067 116.285 327.171 117.176V117.928C327.074 118.796 326.909 119.59 326.677 120.309C326.445 121.028 326.138 121.649 325.756 122.173C325.375 122.697 324.903 123.101 324.341 123.386C323.787 123.67 323.132 123.813 322.376 123.813C321.635 123.813 320.965 123.659 320.366 123.352C319.774 123.045 319.265 122.615 318.838 122.061C318.419 121.507 318.097 120.855 317.873 120.107C317.648 119.35 317.536 118.531 317.536 117.647ZM320.242 117.411V117.647C320.242 118.201 320.295 118.718 320.399 119.197C320.512 119.676 320.68 120.099 320.905 120.466C321.137 120.825 321.429 121.11 321.781 121.32C322.14 121.522 322.563 121.623 323.05 121.623C323.686 121.623 324.207 121.488 324.611 121.218C325.023 120.949 325.337 120.586 325.554 120.129C325.779 119.665 325.936 119.148 326.026 118.579V116.547C325.981 116.105 325.887 115.693 325.745 115.311C325.61 114.929 325.427 114.596 325.195 114.312C324.963 114.02 324.671 113.795 324.319 113.638C323.967 113.473 323.551 113.391 323.072 113.391C322.586 113.391 322.163 113.496 321.803 113.705C321.444 113.915 321.148 114.203 320.916 114.57C320.691 114.937 320.523 115.364 320.411 115.85C320.298 116.337 320.242 116.857 320.242 117.411Z" fill="black"/>
<rect x="73.282" y="146.588" width="200" height="13" rx="5" fill="#788C92"/>
<rect x="73.282" y="176.588" width="300" height="13" rx="5" fill="#788C92"/>
<rect x="73.282" y="206.588" width="230" height="13" rx="5" fill="#788C92"/>
<rect x="73.282" y="239.588" width="60" height="13" rx="5" fill="#788C92"/>
<rect x="150.282" y="239.588" width="140" height="13" rx="5" fill="#788C92"/>
<rect x="305.282" y="239.588" width="150" height="13" rx="5" fill="#788C92"/>
<rect x="470.282" y="239.588" width="87" height="13" rx="5" fill="#788C92"/>
<rect x="73.282" y="420.588" width="130" height="13" rx="5" fill="#788C92"/>
<rect x="220.282" y="420.588" width="60" height="13" rx="5" fill="#788C92"/>
<rect x="297.282" y="420.588" width="120" height="13" rx="5" fill="#788C92"/>
<rect x="434.282" y="420.588" width="130" height="13" rx="5" fill="#788C92"/>
<rect x="291.282" y="146.588" width="100" height="13" rx="5" fill="#788C92"/>
<rect x="457.282" y="206.588" width="100" height="13" rx="5" fill="#788C92"/>
<rect x="405.282" y="146.588" width="150" height="13" rx="5" fill="#788C92"/>
<rect x="390.282" y="176.588" width="176" height="13" rx="5" fill="#788C92"/>
<rect x="315.282" y="206.588" width="130" height="13" rx="5" fill="#788C92"/>
<rect x="72" y="277" width="484" height="125" rx="10" fill="#5B5C5C"/>
<rect x="83" y="316" width="140" height="10" rx="5" fill="#A4B3B8"/>
<rect x="93" y="337" width="100" height="10" rx="5" fill="#E03B0A"/>
<rect x="202" y="337" width="80" height="10" rx="5" fill="#E03B0A"/>
<rect x="93" y="357" width="60" height="10" rx="5" fill="#10D146"/>
<rect x="163" y="357" width="140" height="10" rx="5" fill="#10D146"/>
<rect x="93" y="377" width="165" height="10" rx="5" fill="#E03B0A"/>
<rect x="233" y="316" width="60" height="10" rx="5" fill="#A4B3B8"/>
<rect x="303" y="316" width="120" height="10" rx="5" fill="#A4B3B8"/>
<rect x="430" y="316" width="40" height="10" rx="5" fill="#A4B3B8"/>
<path d="M90.9746 301.105L94.7148 304.074L93.123 305.471L89.4512 302.531L90.9746 301.105ZM94.7441 295.5V296.281C94.7441 297.355 94.6042 298.319 94.3242 299.172C94.0443 300.025 93.6439 300.751 93.123 301.35C92.6022 301.949 91.9805 302.408 91.2578 302.727C90.5352 303.039 89.7344 303.195 88.8555 303.195C87.9831 303.195 87.1855 303.039 86.4629 302.727C85.7467 302.408 85.125 301.949 84.5977 301.35C84.0703 300.751 83.6602 300.025 83.3672 299.172C83.0807 298.319 82.9375 297.355 82.9375 296.281V295.5C82.9375 294.426 83.0807 293.465 83.3672 292.619C83.6536 291.766 84.0573 291.04 84.5781 290.441C85.1055 289.836 85.7272 289.377 86.4434 289.064C87.166 288.745 87.9635 288.586 88.8359 288.586C89.7148 288.586 90.5156 288.745 91.2383 289.064C91.9674 289.377 92.5924 289.836 93.1133 290.441C93.6341 291.04 94.0345 291.766 94.3145 292.619C94.6009 293.465 94.7441 294.426 94.7441 295.5ZM92.2832 296.281V295.48C92.2832 294.686 92.2051 293.986 92.0488 293.381C91.8991 292.769 91.6745 292.258 91.375 291.848C91.082 291.431 90.7207 291.118 90.291 290.91C89.8678 290.695 89.3828 290.588 88.8359 290.588C88.3021 290.588 87.8236 290.695 87.4004 290.91C86.9772 291.118 86.6159 291.431 86.3164 291.848C86.0169 292.258 85.7891 292.769 85.6328 293.381C85.4766 293.986 85.3984 294.686 85.3984 295.48V296.281C85.3984 297.076 85.4766 297.779 85.6328 298.391C85.7891 299.003 86.0169 299.52 86.3164 299.943C86.6224 300.36 86.987 300.676 87.4102 300.891C87.8398 301.099 88.3216 301.203 88.8555 301.203C89.4023 301.203 89.8874 301.099 90.3105 300.891C90.7337 300.676 91.0918 300.36 91.3848 299.943C91.6777 299.52 91.8991 299.003 92.0488 298.391C92.2051 297.779 92.2832 297.076 92.2832 296.281ZM104.357 300.51V292.434H106.721V303H104.494L104.357 300.51ZM104.689 298.312L105.48 298.293C105.48 299.003 105.402 299.657 105.246 300.256C105.09 300.848 104.849 301.366 104.523 301.809C104.198 302.245 103.781 302.587 103.273 302.834C102.766 303.075 102.157 303.195 101.447 303.195C100.933 303.195 100.461 303.12 100.031 302.971C99.6016 302.821 99.2305 302.59 98.918 302.277C98.612 301.965 98.3743 301.558 98.2051 301.057C98.0358 300.555 97.9512 299.956 97.9512 299.26V292.434H100.305V299.279C100.305 299.663 100.35 299.986 100.441 300.246C100.533 300.5 100.656 300.705 100.812 300.861C100.969 301.018 101.151 301.128 101.359 301.193C101.568 301.258 101.789 301.291 102.023 301.291C102.694 301.291 103.221 301.161 103.605 300.9C103.996 300.633 104.273 300.275 104.436 299.826C104.605 299.377 104.689 298.872 104.689 298.312ZM114.791 303.195C114.01 303.195 113.303 303.068 112.672 302.814C112.047 302.554 111.513 302.193 111.07 301.73C110.634 301.268 110.299 300.725 110.064 300.1C109.83 299.475 109.713 298.801 109.713 298.078V297.688C109.713 296.861 109.833 296.112 110.074 295.441C110.315 294.771 110.65 294.198 111.08 293.723C111.51 293.241 112.018 292.873 112.604 292.619C113.189 292.365 113.824 292.238 114.508 292.238C115.263 292.238 115.924 292.365 116.49 292.619C117.057 292.873 117.525 293.231 117.896 293.693C118.274 294.149 118.554 294.693 118.736 295.324C118.925 295.956 119.02 296.652 119.02 297.414V298.42H110.855V296.73H116.695V296.545C116.682 296.122 116.598 295.725 116.441 295.354C116.292 294.982 116.061 294.683 115.748 294.455C115.436 294.227 115.019 294.113 114.498 294.113C114.107 294.113 113.759 294.198 113.453 294.367C113.154 294.53 112.903 294.768 112.701 295.08C112.499 295.393 112.343 295.77 112.232 296.213C112.128 296.649 112.076 297.141 112.076 297.688V298.078C112.076 298.54 112.138 298.97 112.262 299.367C112.392 299.758 112.581 300.1 112.828 300.393C113.076 300.686 113.375 300.917 113.727 301.086C114.078 301.249 114.479 301.33 114.928 301.33C115.494 301.33 115.999 301.216 116.441 300.988C116.884 300.76 117.268 300.438 117.594 300.021L118.834 301.223C118.606 301.555 118.31 301.874 117.945 302.18C117.581 302.479 117.135 302.723 116.607 302.912C116.087 303.101 115.481 303.195 114.791 303.195ZM127.783 300.139C127.783 299.904 127.725 299.693 127.607 299.504C127.49 299.309 127.266 299.133 126.934 298.977C126.608 298.82 126.126 298.677 125.488 298.547C124.928 298.423 124.414 298.277 123.945 298.107C123.483 297.932 123.086 297.72 122.754 297.473C122.422 297.225 122.165 296.932 121.982 296.594C121.8 296.255 121.709 295.865 121.709 295.422C121.709 294.992 121.803 294.585 121.992 294.201C122.181 293.817 122.451 293.479 122.803 293.186C123.154 292.893 123.581 292.661 124.082 292.492C124.59 292.323 125.156 292.238 125.781 292.238C126.667 292.238 127.425 292.388 128.057 292.688C128.695 292.98 129.183 293.381 129.521 293.889C129.86 294.39 130.029 294.956 130.029 295.588H127.676C127.676 295.308 127.604 295.048 127.461 294.807C127.324 294.559 127.116 294.361 126.836 294.211C126.556 294.055 126.204 293.977 125.781 293.977C125.378 293.977 125.042 294.042 124.775 294.172C124.515 294.296 124.32 294.458 124.189 294.66C124.066 294.862 124.004 295.083 124.004 295.324C124.004 295.5 124.036 295.66 124.102 295.803C124.173 295.939 124.29 296.066 124.453 296.184C124.616 296.294 124.837 296.398 125.117 296.496C125.404 296.594 125.762 296.688 126.191 296.779C126.999 296.949 127.692 297.167 128.271 297.434C128.857 297.694 129.307 298.033 129.619 298.449C129.932 298.859 130.088 299.38 130.088 300.012C130.088 300.48 129.987 300.91 129.785 301.301C129.59 301.685 129.303 302.02 128.926 302.307C128.548 302.587 128.096 302.805 127.568 302.961C127.048 303.117 126.462 303.195 125.811 303.195C124.854 303.195 124.043 303.026 123.379 302.688C122.715 302.342 122.21 301.903 121.865 301.369C121.527 300.829 121.357 300.269 121.357 299.689H123.633C123.659 300.126 123.779 300.474 123.994 300.734C124.215 300.988 124.489 301.174 124.814 301.291C125.146 301.402 125.488 301.457 125.84 301.457C126.263 301.457 126.618 301.402 126.904 301.291C127.191 301.174 127.409 301.018 127.559 300.822C127.708 300.62 127.783 300.393 127.783 300.139ZM137.992 292.434V294.152H132.035V292.434H137.992ZM133.754 289.846H136.107V300.08C136.107 300.406 136.153 300.656 136.244 300.832C136.342 301.001 136.475 301.115 136.645 301.174C136.814 301.232 137.012 301.262 137.24 301.262C137.403 301.262 137.559 301.252 137.709 301.232C137.859 301.213 137.979 301.193 138.07 301.174L138.08 302.971C137.885 303.029 137.657 303.081 137.396 303.127C137.143 303.173 136.85 303.195 136.518 303.195C135.977 303.195 135.499 303.101 135.082 302.912C134.665 302.717 134.34 302.401 134.105 301.965C133.871 301.529 133.754 300.949 133.754 300.227V289.846ZM143.328 292.434V303H140.965V292.434H143.328ZM140.809 289.66C140.809 289.302 140.926 289.006 141.16 288.771C141.401 288.531 141.733 288.41 142.156 288.41C142.573 288.41 142.902 288.531 143.143 288.771C143.383 289.006 143.504 289.302 143.504 289.66C143.504 290.012 143.383 290.305 143.143 290.539C142.902 290.773 142.573 290.891 142.156 290.891C141.733 290.891 141.401 290.773 141.16 290.539C140.926 290.305 140.809 290.012 140.809 289.66ZM146.457 297.834V297.609C146.457 296.848 146.568 296.141 146.789 295.49C147.01 294.833 147.329 294.263 147.746 293.781C148.169 293.293 148.684 292.915 149.289 292.648C149.901 292.375 150.591 292.238 151.359 292.238C152.134 292.238 152.824 292.375 153.43 292.648C154.042 292.915 154.559 293.293 154.982 293.781C155.406 294.263 155.728 294.833 155.949 295.49C156.171 296.141 156.281 296.848 156.281 297.609V297.834C156.281 298.596 156.171 299.302 155.949 299.953C155.728 300.604 155.406 301.174 154.982 301.662C154.559 302.144 154.045 302.521 153.439 302.795C152.834 303.062 152.147 303.195 151.379 303.195C150.604 303.195 149.911 303.062 149.299 302.795C148.693 302.521 148.179 302.144 147.756 301.662C147.333 301.174 147.01 300.604 146.789 299.953C146.568 299.302 146.457 298.596 146.457 297.834ZM148.811 297.609V297.834C148.811 298.309 148.859 298.758 148.957 299.182C149.055 299.605 149.208 299.976 149.416 300.295C149.624 300.614 149.891 300.865 150.217 301.047C150.542 301.229 150.93 301.32 151.379 301.32C151.815 301.32 152.193 301.229 152.512 301.047C152.837 300.865 153.104 300.614 153.312 300.295C153.521 299.976 153.674 299.605 153.771 299.182C153.876 298.758 153.928 298.309 153.928 297.834V297.609C153.928 297.141 153.876 296.698 153.771 296.281C153.674 295.858 153.518 295.484 153.303 295.158C153.094 294.833 152.827 294.579 152.502 294.396C152.183 294.208 151.802 294.113 151.359 294.113C150.917 294.113 150.533 294.208 150.207 294.396C149.888 294.579 149.624 294.833 149.416 295.158C149.208 295.484 149.055 295.858 148.957 296.281C148.859 296.698 148.811 297.141 148.811 297.609ZM161.588 294.689V303H159.234V292.434H161.451L161.588 294.689ZM161.168 297.326L160.406 297.316C160.413 296.568 160.517 295.881 160.719 295.256C160.927 294.631 161.214 294.094 161.578 293.645C161.949 293.195 162.392 292.85 162.906 292.609C163.421 292.362 163.993 292.238 164.625 292.238C165.133 292.238 165.592 292.31 166.002 292.453C166.419 292.59 166.773 292.814 167.066 293.127C167.366 293.439 167.594 293.846 167.75 294.348C167.906 294.842 167.984 295.451 167.984 296.174V303H165.621V296.164C165.621 295.656 165.546 295.256 165.396 294.963C165.253 294.663 165.042 294.452 164.762 294.328C164.488 294.198 164.146 294.133 163.736 294.133C163.333 294.133 162.971 294.217 162.652 294.387C162.333 294.556 162.063 294.787 161.842 295.08C161.627 295.373 161.461 295.712 161.344 296.096C161.227 296.48 161.168 296.89 161.168 297.326Z" fill="#A7D0DD"/>
<defs>
<filter id="filter0_bd_523_21" x="0.50293" y="0.0726318" width="629.668" height="533.973" filterUnits="userSpaceOnUse" color-interpolation-filters="sRGB">
<feFlood flood-opacity="0" result="BackgroundImageFix"/>
<feGaussianBlur in="BackgroundImageFix" stdDeviation="10"/>
<feComposite in2="SourceAlpha" operator="in" result="effect1_backgroundBlur_523_21"/>
<feColorMatrix in="SourceAlpha" type="matrix" values="0 0 0 0 0 0 0 0 0 0 0 0 0 0 0 0 0 0 127 0" result="hardAlpha"/>
<feOffset dy="20"/>
<feGaussianBlur stdDeviation="20"/>
<feComposite in2="hardAlpha" operator="out"/>
<feColorMatrix type="matrix" values="0 0 0 0 0 0 0 0 0 0 0 0 0 0 0 0 0 0 0.2 0"/>
<feBlend mode="normal" in2="effect1_backgroundBlur_523_21" result="effect2_dropShadow_523_21"/>
<feBlend mode="normal" in="SourceGraphic" in2="effect2_dropShadow_523_21" result="shape"/>
</filter>
<linearGradient id="paint0_linear_523_21" x1="40.5029" y1="20.0726" x2="648.649" y2="391.188" gradientUnits="userSpaceOnUse">
<stop stop-color="#176B87" stop-opacity="0.5"/>
<stop offset="1" stop-color="#176B87" stop-opacity="0.2"/>
</linearGradient>
<linearGradient id="paint1_linear_523_21" x1="40.5029" y1="29.8006" x2="627.325" y2="371.963" gradientUnits="userSpaceOnUse">
<stop stop-color="#0071A5"/>
<stop offset="1" stop-color="#0071A5"/>
</linearGradient>
</defs>
</svg>
