<svg width="672" height="717" viewBox="0 0 672 717" fill="none" xmlns="http://www.w3.org/2000/svg">
<g filter="url(#filter0_d_496_6)">
<rect x="40" y="20" width="598" height="637" rx="40" fill="#DAE4E8"/>
</g>
<rect x="76" y="162" width="239" height="60" rx="30" fill="#6DB6C3"/>
<rect x="333" y="162" width="176" height="60" rx="30" fill="#6DB6C3"/>
<path d="M526 192C526 175.431 539.431 162 556 162H638V222H556C539.431 222 526 208.569 526 192Z" fill="#6DB6C3"/>
<path d="M83.3721 117.117V142H79.0825V117.117H83.3721ZM94.1284 127.457V142H90.0098V123.509H93.8892L94.1284 127.457ZM93.3936 132.071L92.0605 132.054C92.0719 130.743 92.2542 129.542 92.6074 128.448C92.972 127.354 93.4733 126.414 94.1113 125.628C94.7607 124.842 95.5355 124.238 96.4355 123.816C97.3356 123.383 98.3382 123.167 99.4434 123.167C100.332 123.167 101.135 123.292 101.853 123.543C102.582 123.782 103.203 124.175 103.716 124.722C104.24 125.269 104.639 125.981 104.912 126.858C105.186 127.724 105.322 128.79 105.322 130.054V142H101.187V130.037C101.187 129.148 101.056 128.448 100.793 127.935C100.543 127.411 100.173 127.041 99.6826 126.824C99.2041 126.596 98.606 126.482 97.8882 126.482C97.1818 126.482 96.5495 126.631 95.9912 126.927C95.4329 127.223 94.9601 127.627 94.5728 128.14C94.1968 128.653 93.9062 129.245 93.7012 129.917C93.4961 130.59 93.3936 131.307 93.3936 132.071ZM119.753 123.509V126.517H109.328V123.509H119.753ZM112.336 118.98H116.455V136.89C116.455 137.46 116.534 137.898 116.694 138.206C116.865 138.502 117.098 138.702 117.395 138.804C117.691 138.907 118.038 138.958 118.437 138.958C118.722 138.958 118.995 138.941 119.257 138.907C119.519 138.873 119.73 138.838 119.89 138.804L119.907 141.949C119.565 142.051 119.166 142.142 118.71 142.222C118.266 142.302 117.753 142.342 117.172 142.342C116.227 142.342 115.389 142.177 114.66 141.846C113.931 141.504 113.361 140.952 112.951 140.188C112.541 139.425 112.336 138.411 112.336 137.146V118.98ZM128.817 127.029V142H124.699V123.509H128.629L128.817 127.029ZM134.474 123.389L134.44 127.217C134.189 127.172 133.916 127.138 133.62 127.115C133.335 127.092 133.05 127.081 132.765 127.081C132.059 127.081 131.438 127.183 130.902 127.388C130.367 127.582 129.917 127.867 129.552 128.243C129.199 128.607 128.926 129.052 128.732 129.576C128.538 130.1 128.424 130.687 128.39 131.336L127.45 131.404C127.45 130.242 127.564 129.166 127.792 128.174C128.02 127.183 128.362 126.312 128.817 125.56C129.285 124.808 129.866 124.221 130.561 123.799C131.267 123.378 132.082 123.167 133.004 123.167C133.255 123.167 133.523 123.19 133.808 123.235C134.104 123.281 134.326 123.332 134.474 123.389ZM137.574 132.959V132.566C137.574 131.233 137.768 129.997 138.155 128.858C138.543 127.707 139.101 126.71 139.83 125.867C140.571 125.013 141.471 124.352 142.53 123.885C143.601 123.406 144.809 123.167 146.153 123.167C147.509 123.167 148.717 123.406 149.776 123.885C150.847 124.352 151.753 125.013 152.494 125.867C153.234 126.71 153.798 127.707 154.186 128.858C154.573 129.997 154.767 131.233 154.767 132.566V132.959C154.767 134.292 154.573 135.529 154.186 136.668C153.798 137.807 153.234 138.804 152.494 139.659C151.753 140.502 150.853 141.163 149.793 141.641C148.734 142.108 147.532 142.342 146.188 142.342C144.832 142.342 143.618 142.108 142.547 141.641C141.488 141.163 140.588 140.502 139.847 139.659C139.107 138.804 138.543 137.807 138.155 136.668C137.768 135.529 137.574 134.292 137.574 132.959ZM141.693 132.566V132.959C141.693 133.791 141.778 134.577 141.949 135.318C142.12 136.058 142.388 136.708 142.752 137.266C143.117 137.824 143.584 138.263 144.154 138.582C144.723 138.901 145.401 139.061 146.188 139.061C146.951 139.061 147.612 138.901 148.17 138.582C148.74 138.263 149.207 137.824 149.571 137.266C149.936 136.708 150.204 136.058 150.375 135.318C150.557 134.577 150.648 133.791 150.648 132.959V132.566C150.648 131.746 150.557 130.971 150.375 130.242C150.204 129.502 149.93 128.847 149.554 128.277C149.19 127.707 148.722 127.263 148.153 126.944C147.595 126.613 146.928 126.448 146.153 126.448C145.379 126.448 144.706 126.613 144.137 126.944C143.578 127.263 143.117 127.707 142.752 128.277C142.388 128.847 142.12 129.502 141.949 130.242C141.778 130.971 141.693 131.746 141.693 132.566ZM178.911 123.509V126.517H168.486V123.509H178.911ZM171.494 118.98H175.613V136.89C175.613 137.46 175.693 137.898 175.852 138.206C176.023 138.502 176.257 138.702 176.553 138.804C176.849 138.907 177.196 138.958 177.595 138.958C177.88 138.958 178.153 138.941 178.416 138.907C178.678 138.873 178.888 138.838 179.048 138.804L179.065 141.949C178.723 142.051 178.324 142.142 177.869 142.222C177.424 142.302 176.912 142.342 176.331 142.342C175.385 142.342 174.548 142.177 173.818 141.846C173.089 141.504 172.52 140.952 172.109 140.188C171.699 139.425 171.494 138.411 171.494 137.146V118.98ZM182.644 132.959V132.566C182.644 131.233 182.837 129.997 183.225 128.858C183.612 127.707 184.17 126.71 184.899 125.867C185.64 125.013 186.54 124.352 187.6 123.885C188.671 123.406 189.878 123.167 191.223 123.167C192.578 123.167 193.786 123.406 194.846 123.885C195.917 124.352 196.822 125.013 197.563 125.867C198.304 126.71 198.868 127.707 199.255 128.858C199.642 129.997 199.836 131.233 199.836 132.566V132.959C199.836 134.292 199.642 135.529 199.255 136.668C198.868 137.807 198.304 138.804 197.563 139.659C196.822 140.502 195.922 141.163 194.863 141.641C193.803 142.108 192.601 142.342 191.257 142.342C189.901 142.342 188.688 142.108 187.617 141.641C186.557 141.163 185.657 140.502 184.917 139.659C184.176 138.804 183.612 137.807 183.225 136.668C182.837 135.529 182.644 134.292 182.644 132.959ZM186.762 132.566V132.959C186.762 133.791 186.848 134.577 187.019 135.318C187.189 136.058 187.457 136.708 187.822 137.266C188.186 137.824 188.653 138.263 189.223 138.582C189.793 138.901 190.471 139.061 191.257 139.061C192.02 139.061 192.681 138.901 193.239 138.582C193.809 138.263 194.276 137.824 194.641 137.266C195.005 136.708 195.273 136.058 195.444 135.318C195.626 134.577 195.717 133.791 195.717 132.959V132.566C195.717 131.746 195.626 130.971 195.444 130.242C195.273 129.502 195 128.847 194.624 128.277C194.259 127.707 193.792 127.263 193.222 126.944C192.664 126.613 191.997 126.448 191.223 126.448C190.448 126.448 189.776 126.613 189.206 126.944C188.648 127.263 188.186 127.707 187.822 128.277C187.457 128.847 187.189 129.502 187.019 130.242C186.848 130.971 186.762 131.746 186.762 132.566ZM225.604 120.433L218.17 142H213.675L223.041 117.117H225.912L225.604 120.433ZM231.825 142L224.374 120.433L224.049 117.117H226.937L236.336 142H231.825ZM231.466 132.771V136.172H217.931V132.771H231.466ZM244.871 115.75V142H240.735V115.75H244.871ZM262.976 123.509H266.719V141.487C266.719 143.151 266.366 144.563 265.659 145.726C264.953 146.888 263.967 147.771 262.703 148.375C261.438 148.99 259.974 149.297 258.311 149.297C257.604 149.297 256.818 149.195 255.952 148.99C255.098 148.785 254.266 148.454 253.457 147.999C252.66 147.554 251.993 146.967 251.458 146.238L253.389 143.812C254.049 144.598 254.779 145.173 255.576 145.538C256.374 145.902 257.211 146.084 258.088 146.084C259.034 146.084 259.837 145.908 260.498 145.555C261.17 145.213 261.689 144.706 262.053 144.034C262.418 143.361 262.6 142.541 262.6 141.573V127.696L262.976 123.509ZM250.415 132.959V132.601C250.415 131.199 250.586 129.923 250.928 128.772C251.27 127.61 251.759 126.613 252.397 125.782C253.035 124.939 253.81 124.295 254.722 123.851C255.633 123.395 256.664 123.167 257.815 123.167C259.011 123.167 260.031 123.383 260.874 123.816C261.729 124.249 262.441 124.87 263.01 125.679C263.58 126.477 264.024 127.434 264.343 128.55C264.674 129.655 264.919 130.886 265.078 132.242V133.387C264.93 134.708 264.679 135.916 264.326 137.01C263.973 138.104 263.506 139.049 262.925 139.847C262.344 140.644 261.626 141.259 260.771 141.692C259.928 142.125 258.931 142.342 257.781 142.342C256.653 142.342 255.633 142.108 254.722 141.641C253.822 141.174 253.047 140.519 252.397 139.676C251.759 138.833 251.27 137.841 250.928 136.702C250.586 135.551 250.415 134.304 250.415 132.959ZM254.534 132.601V132.959C254.534 133.803 254.613 134.589 254.773 135.318C254.944 136.047 255.2 136.691 255.542 137.249C255.895 137.796 256.34 138.229 256.875 138.548C257.422 138.855 258.066 139.009 258.806 139.009C259.775 139.009 260.566 138.804 261.182 138.394C261.808 137.984 262.287 137.431 262.617 136.736C262.959 136.03 263.198 135.244 263.335 134.378V131.285C263.267 130.612 263.124 129.986 262.908 129.405C262.703 128.824 262.424 128.317 262.07 127.884C261.717 127.439 261.273 127.098 260.737 126.858C260.202 126.608 259.569 126.482 258.84 126.482C258.1 126.482 257.456 126.642 256.909 126.961C256.362 127.28 255.912 127.719 255.559 128.277C255.217 128.835 254.961 129.485 254.79 130.225C254.619 130.966 254.534 131.757 254.534 132.601ZM271.955 132.959V132.566C271.955 131.233 272.149 129.997 272.536 128.858C272.924 127.707 273.482 126.71 274.211 125.867C274.951 125.013 275.852 124.352 276.911 123.885C277.982 123.406 279.19 123.167 280.534 123.167C281.89 123.167 283.098 123.406 284.157 123.885C285.228 124.352 286.134 125.013 286.875 125.867C287.615 126.71 288.179 127.707 288.566 128.858C288.954 129.997 289.147 131.233 289.147 132.566V132.959C289.147 134.292 288.954 135.529 288.566 136.668C288.179 137.807 287.615 138.804 286.875 139.659C286.134 140.502 285.234 141.163 284.174 141.641C283.115 142.108 281.913 142.342 280.568 142.342C279.213 142.342 277.999 142.108 276.928 141.641C275.869 141.163 274.969 140.502 274.228 139.659C273.487 138.804 272.924 137.807 272.536 136.668C272.149 135.529 271.955 134.292 271.955 132.959ZM276.074 132.566V132.959C276.074 133.791 276.159 134.577 276.33 135.318C276.501 136.058 276.769 136.708 277.133 137.266C277.498 137.824 277.965 138.263 278.535 138.582C279.104 138.901 279.782 139.061 280.568 139.061C281.332 139.061 281.993 138.901 282.551 138.582C283.12 138.263 283.588 137.824 283.952 137.266C284.317 136.708 284.584 136.058 284.755 135.318C284.938 134.577 285.029 133.791 285.029 132.959V132.566C285.029 131.746 284.938 130.971 284.755 130.242C284.584 129.502 284.311 128.847 283.935 128.277C283.57 127.707 283.103 127.263 282.534 126.944C281.975 126.613 281.309 126.448 280.534 126.448C279.759 126.448 279.087 126.613 278.518 126.944C277.959 127.263 277.498 127.707 277.133 128.277C276.769 128.847 276.501 129.502 276.33 130.242C276.159 130.971 276.074 131.746 276.074 132.566ZM298.485 127.029V142H294.367V123.509H298.297L298.485 127.029ZM304.142 123.389L304.108 127.217C303.857 127.172 303.584 127.138 303.288 127.115C303.003 127.092 302.718 127.081 302.433 127.081C301.727 127.081 301.106 127.183 300.57 127.388C300.035 127.582 299.585 127.867 299.22 128.243C298.867 128.607 298.594 129.052 298.4 129.576C298.206 130.1 298.092 130.687 298.058 131.336L297.118 131.404C297.118 130.242 297.232 129.166 297.46 128.174C297.688 127.183 298.03 126.312 298.485 125.56C298.952 124.808 299.534 124.221 300.229 123.799C300.935 123.378 301.75 123.167 302.672 123.167C302.923 123.167 303.191 123.19 303.476 123.235C303.772 123.281 303.994 123.332 304.142 123.389ZM312.882 123.509V142H308.746V123.509H312.882ZM308.473 118.655C308.473 118.029 308.678 117.51 309.088 117.1C309.509 116.679 310.09 116.468 310.831 116.468C311.56 116.468 312.136 116.679 312.557 117.1C312.979 117.51 313.189 118.029 313.189 118.655C313.189 119.271 312.979 119.783 312.557 120.193C312.136 120.604 311.56 120.809 310.831 120.809C310.09 120.809 309.509 120.604 309.088 120.193C308.678 119.783 308.473 119.271 308.473 118.655ZM327.62 123.509V126.517H317.195V123.509H327.62ZM320.203 118.98H324.322V136.89C324.322 137.46 324.402 137.898 324.561 138.206C324.732 138.502 324.965 138.702 325.262 138.804C325.558 138.907 325.905 138.958 326.304 138.958C326.589 138.958 326.862 138.941 327.125 138.907C327.387 138.873 327.597 138.838 327.757 138.804L327.774 141.949C327.432 142.051 327.033 142.142 326.578 142.222C326.133 142.302 325.621 142.342 325.04 142.342C324.094 142.342 323.257 142.177 322.527 141.846C321.798 141.504 321.229 140.952 320.818 140.188C320.408 139.425 320.203 138.411 320.203 137.146V118.98ZM336.616 115.75V142H332.515V115.75H336.616ZM335.898 132.071L334.565 132.054C334.577 130.778 334.753 129.598 335.095 128.516C335.448 127.434 335.938 126.494 336.565 125.696C337.203 124.887 337.966 124.266 338.855 123.833C339.744 123.389 340.729 123.167 341.812 123.167C342.723 123.167 343.543 123.292 344.272 123.543C345.013 123.794 345.651 124.198 346.187 124.756C346.722 125.303 347.126 126.021 347.4 126.91C347.685 127.787 347.827 128.858 347.827 130.123V142H343.691V130.088C343.691 129.2 343.56 128.493 343.298 127.969C343.048 127.445 342.677 127.069 342.188 126.841C341.698 126.602 341.099 126.482 340.393 126.482C339.653 126.482 338.997 126.631 338.428 126.927C337.869 127.223 337.402 127.627 337.026 128.14C336.65 128.653 336.366 129.245 336.172 129.917C335.99 130.59 335.898 131.307 335.898 132.071ZM357.866 127.269V142H353.747V123.509H357.626L357.866 127.269ZM357.199 132.071L355.798 132.054C355.798 130.778 355.957 129.598 356.276 128.516C356.595 127.434 357.062 126.494 357.678 125.696C358.293 124.887 359.056 124.266 359.968 123.833C360.891 123.389 361.956 123.167 363.164 123.167C364.007 123.167 364.776 123.292 365.471 123.543C366.177 123.782 366.787 124.164 367.299 124.688C367.823 125.212 368.222 125.884 368.496 126.705C368.78 127.525 368.923 128.516 368.923 129.678V142H364.804V130.037C364.804 129.137 364.667 128.431 364.394 127.918C364.132 127.405 363.75 127.041 363.249 126.824C362.759 126.596 362.172 126.482 361.489 126.482C360.714 126.482 360.053 126.631 359.506 126.927C358.971 127.223 358.532 127.627 358.19 128.14C357.849 128.653 357.598 129.245 357.438 129.917C357.279 130.59 357.199 131.307 357.199 132.071ZM368.667 130.977L366.735 131.404C366.735 130.288 366.889 129.234 367.197 128.243C367.516 127.24 367.977 126.363 368.581 125.611C369.196 124.847 369.954 124.249 370.854 123.816C371.754 123.383 372.785 123.167 373.947 123.167C374.893 123.167 375.736 123.298 376.477 123.56C377.229 123.811 377.867 124.209 378.391 124.756C378.915 125.303 379.313 126.015 379.587 126.893C379.86 127.758 379.997 128.807 379.997 130.037V142H375.861V130.02C375.861 129.086 375.725 128.362 375.451 127.85C375.189 127.337 374.813 126.984 374.323 126.79C373.833 126.585 373.247 126.482 372.563 126.482C371.925 126.482 371.361 126.602 370.871 126.841C370.393 127.069 369.988 127.394 369.658 127.815C369.327 128.226 369.077 128.698 368.906 129.234C368.746 129.769 368.667 130.35 368.667 130.977ZM404.09 142H398.775L398.81 138.599H404.09C405.628 138.599 406.916 138.263 407.953 137.591C409.001 136.919 409.787 135.956 410.311 134.703C410.847 133.449 411.114 131.957 411.114 130.225V128.875C411.114 127.531 410.96 126.34 410.653 125.303C410.357 124.266 409.912 123.395 409.32 122.688C408.739 121.982 408.021 121.447 407.167 121.082C406.323 120.717 405.349 120.535 404.244 120.535H398.673V117.117H404.244C405.896 117.117 407.406 117.396 408.773 117.955C410.14 118.501 411.319 119.293 412.311 120.33C413.313 121.367 414.082 122.609 414.618 124.056C415.153 125.503 415.421 127.12 415.421 128.909V130.225C415.421 132.014 415.153 133.632 414.618 135.079C414.082 136.526 413.313 137.767 412.311 138.804C411.308 139.83 410.112 140.621 408.722 141.18C407.343 141.727 405.799 142 404.09 142ZM401.151 117.117V142H396.861V117.117H401.151ZM429.219 142.342C427.852 142.342 426.616 142.12 425.511 141.675C424.417 141.22 423.483 140.587 422.708 139.778C421.945 138.969 421.358 138.018 420.948 136.924C420.538 135.831 420.333 134.651 420.333 133.387V132.703C420.333 131.256 420.543 129.946 420.965 128.772C421.386 127.599 421.973 126.596 422.725 125.765C423.477 124.922 424.366 124.278 425.391 123.833C426.417 123.389 427.527 123.167 428.724 123.167C430.045 123.167 431.202 123.389 432.193 123.833C433.184 124.278 434.004 124.904 434.654 125.713C435.315 126.511 435.805 127.462 436.124 128.567C436.454 129.673 436.619 130.892 436.619 132.225V133.985H422.332V131.028H432.552V130.704C432.529 129.963 432.381 129.268 432.107 128.619C431.845 127.969 431.441 127.445 430.894 127.046C430.347 126.648 429.618 126.448 428.707 126.448C428.023 126.448 427.413 126.596 426.878 126.893C426.354 127.177 425.915 127.593 425.562 128.14C425.209 128.687 424.935 129.348 424.742 130.123C424.559 130.886 424.468 131.746 424.468 132.703V133.387C424.468 134.196 424.576 134.948 424.793 135.643C425.021 136.326 425.351 136.924 425.784 137.437C426.217 137.95 426.741 138.354 427.356 138.65C427.972 138.935 428.672 139.078 429.458 139.078C430.45 139.078 431.333 138.878 432.107 138.479C432.882 138.081 433.554 137.517 434.124 136.788L436.294 138.89C435.896 139.471 435.377 140.029 434.739 140.564C434.101 141.089 433.321 141.516 432.398 141.846C431.486 142.177 430.427 142.342 429.219 142.342ZM451.956 136.993C451.956 136.583 451.853 136.212 451.648 135.882C451.443 135.54 451.05 135.232 450.469 134.959C449.899 134.686 449.056 134.435 447.939 134.207C446.96 133.991 446.06 133.734 445.239 133.438C444.43 133.13 443.735 132.76 443.154 132.327C442.573 131.894 442.123 131.382 441.804 130.789C441.485 130.197 441.326 129.513 441.326 128.738C441.326 127.986 441.491 127.274 441.821 126.602C442.152 125.93 442.625 125.337 443.24 124.825C443.855 124.312 444.601 123.908 445.479 123.611C446.367 123.315 447.358 123.167 448.452 123.167C450.002 123.167 451.329 123.429 452.434 123.953C453.551 124.466 454.405 125.167 454.998 126.055C455.59 126.932 455.886 127.924 455.886 129.029H451.768C451.768 128.539 451.642 128.083 451.392 127.662C451.152 127.229 450.788 126.881 450.298 126.619C449.808 126.346 449.193 126.209 448.452 126.209C447.746 126.209 447.159 126.323 446.692 126.551C446.236 126.767 445.894 127.052 445.667 127.405C445.45 127.758 445.342 128.146 445.342 128.567C445.342 128.875 445.399 129.154 445.513 129.405C445.638 129.644 445.843 129.866 446.128 130.071C446.413 130.265 446.8 130.447 447.29 130.618C447.791 130.789 448.418 130.954 449.17 131.114C450.583 131.41 451.796 131.792 452.81 132.259C453.835 132.715 454.622 133.307 455.168 134.036C455.715 134.754 455.989 135.665 455.989 136.771C455.989 137.591 455.812 138.343 455.459 139.026C455.117 139.699 454.616 140.285 453.955 140.787C453.294 141.277 452.502 141.658 451.58 141.932C450.668 142.205 449.643 142.342 448.503 142.342C446.829 142.342 445.41 142.046 444.248 141.453C443.086 140.849 442.203 140.08 441.599 139.146C441.007 138.2 440.71 137.221 440.71 136.207H444.692C444.738 136.97 444.949 137.579 445.325 138.035C445.712 138.479 446.191 138.804 446.76 139.009C447.341 139.203 447.939 139.3 448.555 139.3C449.295 139.3 449.916 139.203 450.417 139.009C450.919 138.804 451.3 138.531 451.562 138.189C451.825 137.836 451.956 137.437 451.956 136.993ZM465.754 123.509V142H461.618V123.509H465.754ZM461.345 118.655C461.345 118.029 461.55 117.51 461.96 117.1C462.382 116.679 462.963 116.468 463.703 116.468C464.432 116.468 465.008 116.679 465.429 117.1C465.851 117.51 466.062 118.029 466.062 118.655C466.062 119.271 465.851 119.783 465.429 120.193C465.008 120.604 464.432 120.809 463.703 120.809C462.963 120.809 462.382 120.604 461.96 120.193C461.55 119.783 461.345 119.271 461.345 118.655ZM483.859 123.509H487.602V141.487C487.602 143.151 487.248 144.563 486.542 145.726C485.836 146.888 484.85 147.771 483.585 148.375C482.321 148.99 480.857 149.297 479.193 149.297C478.487 149.297 477.701 149.195 476.835 148.99C475.98 148.785 475.149 148.454 474.34 147.999C473.542 147.554 472.876 146.967 472.34 146.238L474.271 143.812C474.932 144.598 475.661 145.173 476.459 145.538C477.257 145.902 478.094 146.084 478.971 146.084C479.917 146.084 480.72 145.908 481.381 145.555C482.053 145.213 482.571 144.706 482.936 144.034C483.301 143.361 483.483 142.541 483.483 141.573V127.696L483.859 123.509ZM471.298 132.959V132.601C471.298 131.199 471.469 129.923 471.811 128.772C472.152 127.61 472.642 126.613 473.28 125.782C473.918 124.939 474.693 124.295 475.604 123.851C476.516 123.395 477.547 123.167 478.698 123.167C479.894 123.167 480.914 123.383 481.757 123.816C482.611 124.249 483.323 124.87 483.893 125.679C484.463 126.477 484.907 127.434 485.226 128.55C485.556 129.655 485.801 130.886 485.961 132.242V133.387C485.813 134.708 485.562 135.916 485.209 137.01C484.856 138.104 484.389 139.049 483.808 139.847C483.227 140.644 482.509 141.259 481.654 141.692C480.811 142.125 479.814 142.342 478.664 142.342C477.536 142.342 476.516 142.108 475.604 141.641C474.704 141.174 473.93 140.519 473.28 139.676C472.642 138.833 472.152 137.841 471.811 136.702C471.469 135.551 471.298 134.304 471.298 132.959ZM475.417 132.601V132.959C475.417 133.803 475.496 134.589 475.656 135.318C475.827 136.047 476.083 136.691 476.425 137.249C476.778 137.796 477.222 138.229 477.758 138.548C478.305 138.855 478.948 139.009 479.689 139.009C480.657 139.009 481.449 138.804 482.064 138.394C482.691 137.984 483.17 137.431 483.5 136.736C483.842 136.03 484.081 135.244 484.218 134.378V131.285C484.149 130.612 484.007 129.986 483.791 129.405C483.585 128.824 483.306 128.317 482.953 127.884C482.6 127.439 482.156 127.098 481.62 126.858C481.085 126.608 480.452 126.482 479.723 126.482C478.983 126.482 478.339 126.642 477.792 126.961C477.245 127.28 476.795 127.719 476.442 128.277C476.1 128.835 475.844 129.485 475.673 130.225C475.502 130.966 475.417 131.757 475.417 132.601ZM497.708 127.457V142H493.59V123.509H497.469L497.708 127.457ZM496.974 132.071L495.641 132.054C495.652 130.743 495.834 129.542 496.188 128.448C496.552 127.354 497.053 126.414 497.691 125.628C498.341 124.842 499.116 124.238 500.016 123.816C500.916 123.383 501.918 123.167 503.023 123.167C503.912 123.167 504.715 123.292 505.433 123.543C506.162 123.782 506.783 124.175 507.296 124.722C507.82 125.269 508.219 125.981 508.492 126.858C508.766 127.724 508.902 128.79 508.902 130.054V142H504.767V130.037C504.767 129.148 504.636 128.448 504.374 127.935C504.123 127.411 503.753 127.041 503.263 126.824C502.784 126.596 502.186 126.482 501.468 126.482C500.762 126.482 500.13 126.631 499.571 126.927C499.013 127.223 498.54 127.627 498.153 128.14C497.777 128.653 497.486 129.245 497.281 129.917C497.076 130.59 496.974 131.307 496.974 132.071Z" fill="#04364A"/>
<rect x="76" y="335" width="146" height="60" rx="30" fill="#6DB6C3"/>
<rect x="244" y="335" width="235" height="60" rx="30" fill="#6DB6C3"/>
<path d="M501 365C501 348.431 514.431 335 531 335H638V395H531C514.431 395 501 381.569 501 365Z" fill="#6DB6C3"/>
<path d="M83.3452 290.117V315H79.0557V290.117H83.3452ZM94.1016 300.457V315H89.9829V296.509H93.8623L94.1016 300.457ZM93.3667 305.071L92.0337 305.054C92.0451 303.743 92.2274 302.542 92.5806 301.448C92.9451 300.354 93.4465 299.414 94.0845 298.628C94.7339 297.842 95.5086 297.238 96.4087 296.816C97.3088 296.383 98.3114 296.167 99.4165 296.167C100.305 296.167 101.108 296.292 101.826 296.543C102.555 296.782 103.176 297.175 103.689 297.722C104.213 298.269 104.612 298.981 104.885 299.858C105.159 300.724 105.295 301.79 105.295 303.054V315H101.16V303.037C101.16 302.148 101.029 301.448 100.767 300.935C100.516 300.411 100.146 300.041 99.6558 299.824C99.1772 299.596 98.5791 299.482 97.8613 299.482C97.1549 299.482 96.5226 299.631 95.9644 299.927C95.4061 300.223 94.9333 300.627 94.5459 301.14C94.1699 301.653 93.8794 302.245 93.6743 302.917C93.4692 303.59 93.3667 304.307 93.3667 305.071ZM119.726 296.509V299.517H109.301V296.509H119.726ZM112.309 291.98H116.428V309.89C116.428 310.46 116.507 310.898 116.667 311.206C116.838 311.502 117.071 311.702 117.368 311.804C117.664 311.907 118.011 311.958 118.41 311.958C118.695 311.958 118.968 311.941 119.23 311.907C119.493 311.873 119.703 311.838 119.863 311.804L119.88 314.949C119.538 315.051 119.139 315.142 118.684 315.222C118.239 315.302 117.727 315.342 117.146 315.342C116.2 315.342 115.362 315.177 114.633 314.846C113.904 314.504 113.334 313.952 112.924 313.188C112.514 312.425 112.309 311.411 112.309 310.146V291.98ZM128.791 300.029V315H124.672V296.509H128.603L128.791 300.029ZM134.447 296.389L134.413 300.217C134.162 300.172 133.889 300.138 133.593 300.115C133.308 300.092 133.023 300.081 132.738 300.081C132.032 300.081 131.411 300.183 130.875 300.388C130.34 300.582 129.89 300.867 129.525 301.243C129.172 301.607 128.899 302.052 128.705 302.576C128.511 303.1 128.397 303.687 128.363 304.336L127.423 304.404C127.423 303.242 127.537 302.166 127.765 301.174C127.993 300.183 128.335 299.312 128.791 298.56C129.258 297.808 129.839 297.221 130.534 296.799C131.24 296.378 132.055 296.167 132.978 296.167C133.228 296.167 133.496 296.19 133.781 296.235C134.077 296.281 134.299 296.332 134.447 296.389ZM137.547 305.959V305.566C137.547 304.233 137.741 302.997 138.128 301.858C138.516 300.707 139.074 299.71 139.803 298.867C140.544 298.013 141.444 297.352 142.503 296.885C143.574 296.406 144.782 296.167 146.126 296.167C147.482 296.167 148.69 296.406 149.75 296.885C150.82 297.352 151.726 298.013 152.467 298.867C153.207 299.71 153.771 300.707 154.159 301.858C154.546 302.997 154.74 304.233 154.74 305.566V305.959C154.74 307.292 154.546 308.529 154.159 309.668C153.771 310.807 153.207 311.804 152.467 312.659C151.726 313.502 150.826 314.163 149.767 314.641C148.707 315.108 147.505 315.342 146.161 315.342C144.805 315.342 143.591 315.108 142.521 314.641C141.461 314.163 140.561 313.502 139.82 312.659C139.08 311.804 138.516 310.807 138.128 309.668C137.741 308.529 137.547 307.292 137.547 305.959ZM141.666 305.566V305.959C141.666 306.791 141.751 307.577 141.922 308.318C142.093 309.058 142.361 309.708 142.726 310.266C143.09 310.824 143.557 311.263 144.127 311.582C144.697 311.901 145.375 312.061 146.161 312.061C146.924 312.061 147.585 311.901 148.143 311.582C148.713 311.263 149.18 310.824 149.544 310.266C149.909 309.708 150.177 309.058 150.348 308.318C150.53 307.577 150.621 306.791 150.621 305.959V305.566C150.621 304.746 150.53 303.971 150.348 303.242C150.177 302.502 149.903 301.847 149.527 301.277C149.163 300.707 148.696 300.263 148.126 299.944C147.568 299.613 146.901 299.448 146.126 299.448C145.352 299.448 144.68 299.613 144.11 299.944C143.552 300.263 143.09 300.707 142.726 301.277C142.361 301.847 142.093 302.502 141.922 303.242C141.751 303.971 141.666 304.746 141.666 305.566ZM178.884 296.509V299.517H168.459V296.509H178.884ZM171.467 291.98H175.586V309.89C175.586 310.46 175.666 310.898 175.825 311.206C175.996 311.502 176.23 311.702 176.526 311.804C176.822 311.907 177.17 311.958 177.568 311.958C177.853 311.958 178.127 311.941 178.389 311.907C178.651 311.873 178.861 311.838 179.021 311.804L179.038 314.949C178.696 315.051 178.298 315.142 177.842 315.222C177.397 315.302 176.885 315.342 176.304 315.342C175.358 315.342 174.521 315.177 173.792 314.846C173.062 314.504 172.493 313.952 172.083 313.188C171.672 312.425 171.467 311.411 171.467 310.146V291.98ZM182.617 305.959V305.566C182.617 304.233 182.81 302.997 183.198 301.858C183.585 300.707 184.143 299.71 184.873 298.867C185.613 298.013 186.513 297.352 187.573 296.885C188.644 296.406 189.851 296.167 191.196 296.167C192.552 296.167 193.759 296.406 194.819 296.885C195.89 297.352 196.796 298.013 197.536 298.867C198.277 299.71 198.841 300.707 199.228 301.858C199.615 302.997 199.809 304.233 199.809 305.566V305.959C199.809 307.292 199.615 308.529 199.228 309.668C198.841 310.807 198.277 311.804 197.536 312.659C196.796 313.502 195.896 314.163 194.836 314.641C193.776 315.108 192.574 315.342 191.23 315.342C189.874 315.342 188.661 315.108 187.59 314.641C186.53 314.163 185.63 313.502 184.89 312.659C184.149 311.804 183.585 310.807 183.198 309.668C182.81 308.529 182.617 307.292 182.617 305.959ZM186.735 305.566V305.959C186.735 306.791 186.821 307.577 186.992 308.318C187.163 309.058 187.43 309.708 187.795 310.266C188.16 310.824 188.627 311.263 189.196 311.582C189.766 311.901 190.444 312.061 191.23 312.061C191.993 312.061 192.654 311.901 193.212 311.582C193.782 311.263 194.249 310.824 194.614 310.266C194.978 309.708 195.246 309.058 195.417 308.318C195.599 307.577 195.69 306.791 195.69 305.959V305.566C195.69 304.746 195.599 303.971 195.417 303.242C195.246 302.502 194.973 301.847 194.597 301.277C194.232 300.707 193.765 300.263 193.195 299.944C192.637 299.613 191.971 299.448 191.196 299.448C190.421 299.448 189.749 299.613 189.179 299.944C188.621 300.263 188.16 300.707 187.795 301.277C187.43 301.847 187.163 302.502 186.992 303.242C186.821 303.971 186.735 304.746 186.735 305.566ZM223.116 315H217.801L217.835 311.599H223.116C224.654 311.599 225.942 311.263 226.979 310.591C228.027 309.919 228.813 308.956 229.337 307.703C229.872 306.449 230.14 304.957 230.14 303.225V301.875C230.14 300.531 229.986 299.34 229.679 298.303C229.382 297.266 228.938 296.395 228.346 295.688C227.765 294.982 227.047 294.447 226.192 294.082C225.349 293.717 224.375 293.535 223.27 293.535H217.699V290.117H223.27C224.922 290.117 226.432 290.396 227.799 290.955C229.166 291.501 230.345 292.293 231.336 293.33C232.339 294.367 233.108 295.609 233.644 297.056C234.179 298.503 234.447 300.12 234.447 301.909V303.225C234.447 305.014 234.179 306.632 233.644 308.079C233.108 309.526 232.339 310.767 231.336 311.804C230.334 312.83 229.138 313.621 227.748 314.18C226.369 314.727 224.825 315 223.116 315ZM220.177 290.117V315H215.887V290.117H220.177ZM250.518 311.292V302.473C250.518 301.812 250.398 301.243 250.159 300.764C249.92 300.286 249.555 299.915 249.065 299.653C248.587 299.391 247.983 299.26 247.254 299.26C246.582 299.26 246.001 299.374 245.511 299.602C245.021 299.83 244.639 300.138 244.366 300.525C244.092 300.912 243.956 301.351 243.956 301.841H239.854C239.854 301.112 240.031 300.405 240.384 299.722C240.737 299.038 241.25 298.429 241.922 297.893C242.594 297.358 243.397 296.936 244.332 296.628C245.266 296.321 246.314 296.167 247.476 296.167C248.866 296.167 250.097 296.401 251.167 296.868C252.25 297.335 253.099 298.041 253.714 298.987C254.34 299.921 254.654 301.095 254.654 302.507V310.728C254.654 311.571 254.711 312.328 254.825 313C254.95 313.661 255.127 314.237 255.354 314.727V315H251.133C250.94 314.556 250.786 313.992 250.672 313.308C250.569 312.613 250.518 311.941 250.518 311.292ZM251.116 303.755L251.15 306.301H248.194C247.431 306.301 246.758 306.375 246.177 306.523C245.596 306.66 245.112 306.865 244.725 307.139C244.337 307.412 244.047 307.743 243.853 308.13C243.659 308.517 243.562 308.956 243.562 309.446C243.562 309.936 243.676 310.386 243.904 310.796C244.132 311.195 244.463 311.508 244.896 311.736C245.34 311.964 245.875 312.078 246.502 312.078C247.345 312.078 248.08 311.907 248.707 311.565C249.345 311.212 249.846 310.785 250.21 310.283C250.575 309.771 250.769 309.286 250.792 308.831L252.125 310.659C251.988 311.126 251.754 311.628 251.424 312.163C251.093 312.699 250.66 313.211 250.125 313.701C249.601 314.18 248.969 314.573 248.228 314.88C247.499 315.188 246.656 315.342 245.699 315.342C244.491 315.342 243.414 315.103 242.469 314.624C241.523 314.134 240.783 313.479 240.247 312.659C239.712 311.827 239.444 310.887 239.444 309.839C239.444 308.859 239.626 307.993 239.991 307.241C240.367 306.478 240.914 305.84 241.631 305.327C242.361 304.814 243.249 304.427 244.297 304.165C245.346 303.892 246.542 303.755 247.886 303.755H251.116ZM269.187 296.509V299.517H258.762V296.509H269.187ZM261.77 291.98H265.889V309.89C265.889 310.46 265.968 310.898 266.128 311.206C266.299 311.502 266.532 311.702 266.829 311.804C267.125 311.907 267.472 311.958 267.871 311.958C268.156 311.958 268.429 311.941 268.691 311.907C268.953 311.873 269.164 311.838 269.324 311.804L269.341 314.949C268.999 315.051 268.6 315.142 268.145 315.222C267.7 315.302 267.188 315.342 266.606 315.342C265.661 315.342 264.823 315.177 264.094 314.846C263.365 314.504 262.795 313.952 262.385 313.188C261.975 312.425 261.77 311.411 261.77 310.146V291.98ZM284.541 311.292V302.473C284.541 301.812 284.421 301.243 284.182 300.764C283.942 300.286 283.578 299.915 283.088 299.653C282.609 299.391 282.006 299.26 281.276 299.26C280.604 299.26 280.023 299.374 279.533 299.602C279.043 299.83 278.662 300.138 278.388 300.525C278.115 300.912 277.978 301.351 277.978 301.841H273.876C273.876 301.112 274.053 300.405 274.406 299.722C274.759 299.038 275.272 298.429 275.944 297.893C276.617 297.358 277.42 296.936 278.354 296.628C279.288 296.321 280.336 296.167 281.499 296.167C282.889 296.167 284.119 296.401 285.19 296.868C286.272 297.335 287.121 298.041 287.736 298.987C288.363 299.921 288.676 301.095 288.676 302.507V310.728C288.676 311.571 288.733 312.328 288.847 313C288.972 313.661 289.149 314.237 289.377 314.727V315H285.156C284.962 314.556 284.808 313.992 284.694 313.308C284.592 312.613 284.541 311.941 284.541 311.292ZM285.139 303.755L285.173 306.301H282.216C281.453 306.301 280.781 306.375 280.2 306.523C279.619 306.66 279.134 306.865 278.747 307.139C278.36 307.412 278.069 307.743 277.875 308.13C277.682 308.517 277.585 308.956 277.585 309.446C277.585 309.936 277.699 310.386 277.927 310.796C278.155 311.195 278.485 311.508 278.918 311.736C279.362 311.964 279.898 312.078 280.524 312.078C281.368 312.078 282.102 311.907 282.729 311.565C283.367 311.212 283.868 310.785 284.233 310.283C284.597 309.771 284.791 309.286 284.814 308.831L286.147 310.659C286.01 311.126 285.777 311.628 285.446 312.163C285.116 312.699 284.683 313.211 284.147 313.701C283.623 314.18 282.991 314.573 282.25 314.88C281.521 315.188 280.678 315.342 279.721 315.342C278.514 315.342 277.437 315.103 276.491 314.624C275.546 314.134 274.805 313.479 274.27 312.659C273.734 311.827 273.466 310.887 273.466 309.839C273.466 308.859 273.649 307.993 274.013 307.241C274.389 306.478 274.936 305.84 275.654 305.327C276.383 304.814 277.272 304.427 278.32 304.165C279.368 303.892 280.564 303.755 281.909 303.755H285.139ZM318.7 308.591C318.7 308.079 318.62 307.623 318.46 307.224C318.312 306.825 318.045 306.461 317.657 306.13C317.27 305.8 316.723 305.481 316.017 305.173C315.322 304.854 314.433 304.53 313.351 304.199C312.166 303.835 311.072 303.43 310.069 302.986C309.078 302.53 308.212 302.006 307.472 301.414C306.731 300.81 306.156 300.12 305.746 299.346C305.335 298.56 305.13 297.654 305.13 296.628C305.13 295.614 305.341 294.692 305.763 293.86C306.196 293.028 306.805 292.31 307.591 291.707C308.389 291.091 309.329 290.618 310.411 290.288C311.493 289.946 312.69 289.775 314 289.775C315.846 289.775 317.435 290.117 318.768 290.801C320.112 291.484 321.144 292.402 321.861 293.552C322.59 294.703 322.955 295.973 322.955 297.363H318.7C318.7 296.543 318.523 295.819 318.17 295.193C317.828 294.555 317.304 294.054 316.598 293.689C315.903 293.324 315.02 293.142 313.949 293.142C312.935 293.142 312.092 293.296 311.419 293.604C310.747 293.911 310.246 294.327 309.916 294.851C309.585 295.375 309.42 295.968 309.42 296.628C309.42 297.096 309.528 297.523 309.745 297.91C309.961 298.286 310.292 298.639 310.736 298.97C311.18 299.289 311.738 299.591 312.411 299.875C313.083 300.16 313.875 300.434 314.786 300.696C316.165 301.106 317.367 301.562 318.392 302.063C319.417 302.553 320.272 303.111 320.956 303.738C321.639 304.364 322.152 305.076 322.494 305.874C322.835 306.66 323.006 307.555 323.006 308.557C323.006 309.605 322.796 310.551 322.374 311.394C321.952 312.226 321.349 312.938 320.562 313.53C319.788 314.111 318.854 314.561 317.76 314.88C316.677 315.188 315.47 315.342 314.137 315.342C312.94 315.342 311.761 315.182 310.599 314.863C309.448 314.544 308.4 314.06 307.455 313.411C306.509 312.75 305.757 311.93 305.199 310.95C304.64 309.958 304.361 308.802 304.361 307.48H308.651C308.651 308.289 308.788 308.979 309.061 309.548C309.346 310.118 309.739 310.585 310.24 310.95C310.742 311.303 311.323 311.565 311.983 311.736C312.656 311.907 313.373 311.992 314.137 311.992C315.139 311.992 315.977 311.85 316.649 311.565C317.333 311.28 317.845 310.881 318.187 310.369C318.529 309.856 318.7 309.264 318.7 308.591ZM336.617 296.509V299.517H326.192V296.509H336.617ZM329.2 291.98H333.318V309.89C333.318 310.46 333.398 310.898 333.558 311.206C333.729 311.502 333.962 311.702 334.258 311.804C334.555 311.907 334.902 311.958 335.301 311.958C335.586 311.958 335.859 311.941 336.121 311.907C336.383 311.873 336.594 311.838 336.753 311.804L336.771 314.949C336.429 315.051 336.03 315.142 335.574 315.222C335.13 315.302 334.617 315.342 334.036 315.342C333.09 315.342 332.253 315.177 331.524 314.846C330.795 314.504 330.225 313.952 329.815 313.188C329.405 312.425 329.2 311.411 329.2 310.146V291.98ZM345.681 300.029V315H341.562V296.509H345.493L345.681 300.029ZM351.338 296.389L351.304 300.217C351.053 300.172 350.78 300.138 350.483 300.115C350.199 300.092 349.914 300.081 349.629 300.081C348.923 300.081 348.302 300.183 347.766 300.388C347.231 300.582 346.781 300.867 346.416 301.243C346.063 301.607 345.789 302.052 345.596 302.576C345.402 303.1 345.288 303.687 345.254 304.336L344.314 304.404C344.314 303.242 344.428 302.166 344.656 301.174C344.884 300.183 345.225 299.312 345.681 298.56C346.148 297.808 346.729 297.221 347.424 296.799C348.131 296.378 348.945 296.167 349.868 296.167C350.119 296.167 350.387 296.19 350.671 296.235C350.968 296.281 351.19 296.332 351.338 296.389ZM366.794 310.642V296.509H370.93V315H367.033L366.794 310.642ZM367.375 306.797L368.759 306.763C368.759 308.005 368.623 309.15 368.349 310.198C368.076 311.235 367.654 312.14 367.084 312.915C366.515 313.678 365.786 314.277 364.897 314.709C364.008 315.131 362.943 315.342 361.701 315.342C360.801 315.342 359.975 315.211 359.223 314.949C358.471 314.687 357.822 314.282 357.275 313.735C356.739 313.188 356.324 312.476 356.027 311.599C355.731 310.722 355.583 309.674 355.583 308.455V296.509H359.702V308.489C359.702 309.161 359.781 309.725 359.941 310.181C360.1 310.625 360.317 310.984 360.59 311.257C360.864 311.531 361.183 311.724 361.547 311.838C361.912 311.952 362.299 312.009 362.709 312.009C363.883 312.009 364.806 311.781 365.478 311.326C366.162 310.859 366.646 310.232 366.931 309.446C367.227 308.66 367.375 307.777 367.375 306.797ZM384.455 312.061C385.127 312.061 385.731 311.93 386.266 311.667C386.813 311.394 387.252 311.018 387.582 310.54C387.924 310.061 388.112 309.508 388.146 308.882H392.025C392.003 310.078 391.649 311.166 390.966 312.146C390.282 313.126 389.376 313.906 388.249 314.487C387.121 315.057 385.873 315.342 384.506 315.342C383.093 315.342 381.863 315.103 380.814 314.624C379.766 314.134 378.895 313.462 378.2 312.607C377.505 311.753 376.981 310.767 376.627 309.651C376.286 308.534 376.115 307.338 376.115 306.062V305.464C376.115 304.188 376.286 302.992 376.627 301.875C376.981 300.747 377.505 299.756 378.2 298.901C378.895 298.047 379.766 297.38 380.814 296.902C381.863 296.412 383.087 296.167 384.489 296.167C385.97 296.167 387.269 296.463 388.385 297.056C389.502 297.637 390.379 298.451 391.017 299.5C391.667 300.536 392.003 301.744 392.025 303.123H388.146C388.112 302.439 387.941 301.824 387.633 301.277C387.337 300.719 386.916 300.274 386.369 299.944C385.833 299.613 385.189 299.448 384.438 299.448C383.606 299.448 382.917 299.619 382.37 299.961C381.823 300.291 381.396 300.747 381.088 301.328C380.78 301.898 380.558 302.542 380.421 303.259C380.296 303.966 380.233 304.701 380.233 305.464V306.062C380.233 306.825 380.296 307.566 380.421 308.284C380.547 309.001 380.763 309.645 381.071 310.215C381.39 310.773 381.823 311.223 382.37 311.565C382.917 311.895 383.611 312.061 384.455 312.061ZM405.414 296.509V299.517H394.989V296.509H405.414ZM397.997 291.98H402.115V309.89C402.115 310.46 402.195 310.898 402.354 311.206C402.525 311.502 402.759 311.702 403.055 311.804C403.351 311.907 403.699 311.958 404.098 311.958C404.382 311.958 404.656 311.941 404.918 311.907C405.18 311.873 405.391 311.838 405.55 311.804L405.567 314.949C405.226 315.051 404.827 315.142 404.371 315.222C403.927 315.302 403.414 315.342 402.833 315.342C401.887 315.342 401.05 315.177 400.321 314.846C399.592 314.504 399.022 313.952 398.612 313.188C398.202 312.425 397.997 311.411 397.997 310.146V291.98ZM421.468 310.642V296.509H425.604V315H421.707L421.468 310.642ZM422.049 306.797L423.433 306.763C423.433 308.005 423.296 309.15 423.023 310.198C422.75 311.235 422.328 312.14 421.758 312.915C421.189 313.678 420.459 314.277 419.571 314.709C418.682 315.131 417.617 315.342 416.375 315.342C415.475 315.342 414.649 315.211 413.897 314.949C413.145 314.687 412.496 314.282 411.949 313.735C411.413 313.188 410.997 312.476 410.701 311.599C410.405 310.722 410.257 309.674 410.257 308.455V296.509H414.375V308.489C414.375 309.161 414.455 309.725 414.615 310.181C414.774 310.625 414.991 310.984 415.264 311.257C415.538 311.531 415.857 311.724 416.221 311.838C416.586 311.952 416.973 312.009 417.383 312.009C418.557 312.009 419.48 311.781 420.152 311.326C420.835 310.859 421.32 310.232 421.604 309.446C421.901 308.66 422.049 307.777 422.049 306.797ZM435.71 300.029V315H431.592V296.509H435.522L435.71 300.029ZM441.367 296.389L441.333 300.217C441.082 300.172 440.809 300.138 440.513 300.115C440.228 300.092 439.943 300.081 439.658 300.081C438.952 300.081 438.331 300.183 437.795 300.388C437.26 300.582 436.81 300.867 436.445 301.243C436.092 301.607 435.819 302.052 435.625 302.576C435.431 303.1 435.317 303.687 435.283 304.336L434.343 304.404C434.343 303.242 434.457 302.166 434.685 301.174C434.913 300.183 435.255 299.312 435.71 298.56C436.178 297.808 436.759 297.221 437.454 296.799C438.16 296.378 438.975 296.167 439.897 296.167C440.148 296.167 440.416 296.19 440.701 296.235C440.997 296.281 441.219 296.332 441.367 296.389ZM453.508 315.342C452.141 315.342 450.904 315.12 449.799 314.675C448.706 314.22 447.771 313.587 446.997 312.778C446.233 311.969 445.646 311.018 445.236 309.924C444.826 308.831 444.621 307.651 444.621 306.387V305.703C444.621 304.256 444.832 302.946 445.253 301.772C445.675 300.599 446.262 299.596 447.014 298.765C447.766 297.922 448.654 297.278 449.68 296.833C450.705 296.389 451.816 296.167 453.012 296.167C454.334 296.167 455.49 296.389 456.481 296.833C457.473 297.278 458.293 297.904 458.942 298.713C459.603 299.511 460.093 300.462 460.412 301.567C460.743 302.673 460.908 303.892 460.908 305.225V306.985H446.621V304.028H456.84V303.704C456.818 302.963 456.669 302.268 456.396 301.619C456.134 300.969 455.729 300.445 455.183 300.046C454.636 299.648 453.907 299.448 452.995 299.448C452.312 299.448 451.702 299.596 451.167 299.893C450.642 300.177 450.204 300.593 449.851 301.14C449.497 301.687 449.224 302.348 449.03 303.123C448.848 303.886 448.757 304.746 448.757 305.703V306.387C448.757 307.196 448.865 307.948 449.082 308.643C449.309 309.326 449.64 309.924 450.073 310.437C450.506 310.95 451.03 311.354 451.645 311.65C452.26 311.935 452.961 312.078 453.747 312.078C454.738 312.078 455.621 311.878 456.396 311.479C457.171 311.081 457.843 310.517 458.413 309.788L460.583 311.89C460.184 312.471 459.666 313.029 459.028 313.564C458.39 314.089 457.609 314.516 456.687 314.846C455.775 315.177 454.715 315.342 453.508 315.342ZM476.244 309.993C476.244 309.583 476.142 309.212 475.937 308.882C475.731 308.54 475.338 308.232 474.757 307.959C474.188 307.686 473.345 307.435 472.228 307.207C471.248 306.991 470.348 306.734 469.528 306.438C468.719 306.13 468.024 305.76 467.443 305.327C466.862 304.894 466.412 304.382 466.093 303.789C465.774 303.197 465.614 302.513 465.614 301.738C465.614 300.986 465.779 300.274 466.11 299.602C466.44 298.93 466.913 298.337 467.528 297.825C468.144 297.312 468.89 296.908 469.767 296.611C470.656 296.315 471.647 296.167 472.741 296.167C474.29 296.167 475.618 296.429 476.723 296.953C477.839 297.466 478.694 298.167 479.286 299.055C479.879 299.932 480.175 300.924 480.175 302.029H476.056C476.056 301.539 475.931 301.083 475.68 300.662C475.441 300.229 475.076 299.881 474.586 299.619C474.097 299.346 473.481 299.209 472.741 299.209C472.034 299.209 471.448 299.323 470.98 299.551C470.525 299.767 470.183 300.052 469.955 300.405C469.739 300.758 469.63 301.146 469.63 301.567C469.63 301.875 469.687 302.154 469.801 302.405C469.927 302.644 470.132 302.866 470.417 303.071C470.701 303.265 471.089 303.447 471.579 303.618C472.08 303.789 472.707 303.954 473.458 304.114C474.871 304.41 476.085 304.792 477.099 305.259C478.124 305.715 478.91 306.307 479.457 307.036C480.004 307.754 480.277 308.665 480.277 309.771C480.277 310.591 480.101 311.343 479.748 312.026C479.406 312.699 478.904 313.285 478.244 313.787C477.583 314.277 476.791 314.658 475.868 314.932C474.957 315.205 473.931 315.342 472.792 315.342C471.117 315.342 469.699 315.046 468.537 314.453C467.375 313.849 466.492 313.08 465.888 312.146C465.295 311.2 464.999 310.221 464.999 309.207H468.981C469.027 309.97 469.237 310.579 469.613 311.035C470.001 311.479 470.479 311.804 471.049 312.009C471.63 312.203 472.228 312.3 472.843 312.3C473.584 312.3 474.205 312.203 474.706 312.009C475.207 311.804 475.589 311.531 475.851 311.189C476.113 310.836 476.244 310.437 476.244 309.993Z" fill="#04364A"/>
<rect x="67" y="508" width="228" height="60" rx="30" fill="#6DB6C3"/>
<rect x="316" y="508" width="155" height="60" rx="30" fill="#6DB6C3"/>
<path d="M501 538C501 521.431 514.431 508 531 508H638V568H531C514.431 568 501 554.569 501 538Z" fill="#6DB6C3"/>
<path d="M98.1348 475.285V484.787C97.7816 485.254 97.229 485.767 96.4771 486.325C95.7365 486.872 94.751 487.345 93.5205 487.744C92.29 488.142 90.7576 488.342 88.9233 488.342C87.3625 488.342 85.9326 488.08 84.6338 487.556C83.335 487.02 82.2127 486.24 81.2671 485.214C80.3328 484.189 79.6094 482.941 79.0967 481.472C78.584 479.991 78.3276 478.304 78.3276 476.413V474.687C78.3276 472.807 78.5612 471.132 79.0283 469.663C79.5068 468.181 80.1904 466.928 81.0791 465.903C81.9678 464.877 83.0387 464.103 84.292 463.579C85.5566 463.043 86.9865 462.775 88.5815 462.775C90.6209 462.775 92.3071 463.117 93.6401 463.801C94.9845 464.473 96.0213 465.407 96.7505 466.604C97.4797 467.8 97.9411 469.167 98.1348 470.705H93.9307C93.7939 469.839 93.5262 469.064 93.1274 468.381C92.7401 467.697 92.1818 467.162 91.4526 466.774C90.7349 466.376 89.8006 466.176 88.6499 466.176C87.6587 466.176 86.7871 466.364 86.0352 466.74C85.2832 467.116 84.6566 467.669 84.1553 468.398C83.6654 469.127 83.2951 470.016 83.0444 471.064C82.7938 472.112 82.6685 473.308 82.6685 474.653V476.413C82.6685 477.78 82.8109 478.994 83.0957 480.053C83.3919 481.113 83.8135 482.007 84.3604 482.736C84.9186 483.465 85.5965 484.018 86.394 484.394C87.1916 484.759 88.0916 484.941 89.0942 484.941C90.0741 484.941 90.8773 484.861 91.5039 484.702C92.1305 484.531 92.6261 484.331 92.9907 484.104C93.3667 483.864 93.6572 483.636 93.8623 483.42V478.481H88.6841V475.285H98.1348ZM108.361 473.029V488H104.243V469.509H108.173L108.361 473.029ZM114.018 469.389L113.984 473.217C113.733 473.172 113.46 473.138 113.164 473.115C112.879 473.092 112.594 473.081 112.309 473.081C111.603 473.081 110.982 473.183 110.446 473.388C109.911 473.582 109.461 473.867 109.096 474.243C108.743 474.607 108.47 475.052 108.276 475.576C108.082 476.1 107.968 476.687 107.934 477.336L106.994 477.404C106.994 476.242 107.108 475.166 107.336 474.174C107.564 473.183 107.906 472.312 108.361 471.56C108.828 470.808 109.41 470.221 110.104 469.799C110.811 469.378 111.625 469.167 112.548 469.167C112.799 469.167 113.067 469.19 113.352 469.235C113.648 469.281 113.87 469.332 114.018 469.389ZM128.158 484.292V475.473C128.158 474.812 128.039 474.243 127.799 473.764C127.56 473.286 127.195 472.915 126.706 472.653C126.227 472.391 125.623 472.26 124.894 472.26C124.222 472.26 123.641 472.374 123.151 472.602C122.661 472.83 122.279 473.138 122.006 473.525C121.732 473.912 121.596 474.351 121.596 474.841H117.494C117.494 474.112 117.671 473.405 118.024 472.722C118.377 472.038 118.89 471.429 119.562 470.893C120.234 470.358 121.037 469.936 121.972 469.628C122.906 469.321 123.954 469.167 125.116 469.167C126.506 469.167 127.737 469.401 128.808 469.868C129.89 470.335 130.739 471.041 131.354 471.987C131.981 472.921 132.294 474.095 132.294 475.507V483.728C132.294 484.571 132.351 485.328 132.465 486C132.59 486.661 132.767 487.237 132.995 487.727V488H128.773C128.58 487.556 128.426 486.992 128.312 486.308C128.209 485.613 128.158 484.941 128.158 484.292ZM128.756 476.755L128.791 479.301H125.834C125.071 479.301 124.398 479.375 123.817 479.523C123.236 479.66 122.752 479.865 122.365 480.139C121.977 480.412 121.687 480.743 121.493 481.13C121.299 481.517 121.203 481.956 121.203 482.446C121.203 482.936 121.317 483.386 121.544 483.796C121.772 484.195 122.103 484.508 122.536 484.736C122.98 484.964 123.515 485.078 124.142 485.078C124.985 485.078 125.72 484.907 126.347 484.565C126.985 484.212 127.486 483.785 127.851 483.283C128.215 482.771 128.409 482.286 128.432 481.831L129.765 483.659C129.628 484.126 129.394 484.628 129.064 485.163C128.734 485.699 128.301 486.211 127.765 486.701C127.241 487.18 126.609 487.573 125.868 487.88C125.139 488.188 124.296 488.342 123.339 488.342C122.131 488.342 121.055 488.103 120.109 487.624C119.163 487.134 118.423 486.479 117.887 485.659C117.352 484.827 117.084 483.887 117.084 482.839C117.084 481.859 117.266 480.993 117.631 480.241C118.007 479.478 118.554 478.84 119.271 478.327C120.001 477.814 120.889 477.427 121.938 477.165C122.986 476.892 124.182 476.755 125.526 476.755H128.756ZM142.486 473.063V495.109H138.368V469.509H142.162L142.486 473.063ZM154.535 478.583V478.942C154.535 480.287 154.375 481.534 154.056 482.685C153.749 483.824 153.287 484.821 152.672 485.676C152.068 486.519 151.322 487.174 150.433 487.641C149.544 488.108 148.519 488.342 147.357 488.342C146.206 488.342 145.198 488.131 144.332 487.709C143.478 487.277 142.754 486.667 142.162 485.881C141.569 485.095 141.091 484.172 140.726 483.112C140.373 482.041 140.122 480.868 139.974 479.592V478.208C140.122 476.852 140.373 475.621 140.726 474.516C141.091 473.411 141.569 472.46 142.162 471.662C142.754 470.865 143.478 470.249 144.332 469.816C145.187 469.383 146.183 469.167 147.323 469.167C148.485 469.167 149.516 469.395 150.416 469.851C151.316 470.295 152.074 470.933 152.689 471.765C153.304 472.585 153.766 473.576 154.073 474.738C154.381 475.889 154.535 477.171 154.535 478.583ZM150.416 478.942V478.583C150.416 477.729 150.336 476.937 150.177 476.208C150.017 475.467 149.767 474.818 149.425 474.26C149.083 473.701 148.644 473.269 148.109 472.961C147.585 472.642 146.952 472.482 146.212 472.482C145.483 472.482 144.856 472.608 144.332 472.858C143.808 473.098 143.369 473.434 143.016 473.867C142.663 474.3 142.389 474.807 142.196 475.388C142.002 475.957 141.865 476.578 141.786 477.25V480.566C141.922 481.386 142.156 482.138 142.486 482.822C142.817 483.505 143.284 484.052 143.888 484.462C144.503 484.861 145.289 485.061 146.246 485.061C146.987 485.061 147.619 484.901 148.143 484.582C148.667 484.263 149.094 483.824 149.425 483.266C149.767 482.696 150.017 482.041 150.177 481.301C150.336 480.56 150.416 479.774 150.416 478.942ZM163.855 461.75V488H159.754V461.75H163.855ZM163.138 478.071L161.805 478.054C161.816 476.778 161.993 475.598 162.334 474.516C162.688 473.434 163.178 472.494 163.804 471.696C164.442 470.887 165.206 470.266 166.094 469.833C166.983 469.389 167.968 469.167 169.051 469.167C169.962 469.167 170.783 469.292 171.512 469.543C172.252 469.794 172.89 470.198 173.426 470.756C173.961 471.303 174.366 472.021 174.639 472.91C174.924 473.787 175.066 474.858 175.066 476.123V488H170.931V476.088C170.931 475.2 170.8 474.493 170.538 473.969C170.287 473.445 169.917 473.069 169.427 472.841C168.937 472.602 168.339 472.482 167.632 472.482C166.892 472.482 166.237 472.631 165.667 472.927C165.109 473.223 164.642 473.627 164.266 474.14C163.89 474.653 163.605 475.245 163.411 475.917C163.229 476.59 163.138 477.307 163.138 478.071ZM201.279 463.117V488H197.023V463.117H201.279ZM209.089 463.117V466.535H189.282V463.117H209.089ZM217.777 461.75V488H213.676V461.75H217.777ZM217.06 478.071L215.727 478.054C215.738 476.778 215.915 475.598 216.256 474.516C216.61 473.434 217.099 472.494 217.726 471.696C218.364 470.887 219.127 470.266 220.016 469.833C220.905 469.389 221.89 469.167 222.973 469.167C223.884 469.167 224.704 469.292 225.434 469.543C226.174 469.794 226.812 470.198 227.348 470.756C227.883 471.303 228.288 472.021 228.561 472.91C228.846 473.787 228.988 474.858 228.988 476.123V488H224.853V476.088C224.853 475.2 224.722 474.493 224.459 473.969C224.209 473.445 223.839 473.069 223.349 472.841C222.859 472.602 222.261 472.482 221.554 472.482C220.814 472.482 220.159 472.631 219.589 472.927C219.031 473.223 218.563 473.627 218.188 474.14C217.812 474.653 217.527 475.245 217.333 475.917C217.151 476.59 217.06 477.307 217.06 478.071ZM243.06 488.342C241.693 488.342 240.457 488.12 239.352 487.675C238.258 487.22 237.324 486.587 236.549 485.778C235.785 484.969 235.199 484.018 234.789 482.924C234.378 481.831 234.173 480.651 234.173 479.387V478.703C234.173 477.256 234.384 475.946 234.806 474.772C235.227 473.599 235.814 472.596 236.566 471.765C237.318 470.922 238.207 470.278 239.232 469.833C240.257 469.389 241.368 469.167 242.564 469.167C243.886 469.167 245.042 469.389 246.034 469.833C247.025 470.278 247.845 470.904 248.495 471.713C249.155 472.511 249.645 473.462 249.964 474.567C250.295 475.673 250.46 476.892 250.46 478.225V479.985H236.173V477.028H246.393V476.704C246.37 475.963 246.222 475.268 245.948 474.619C245.686 473.969 245.282 473.445 244.735 473.046C244.188 472.648 243.459 472.448 242.547 472.448C241.864 472.448 241.254 472.596 240.719 472.893C240.195 473.177 239.756 473.593 239.403 474.14C239.05 474.687 238.776 475.348 238.583 476.123C238.4 476.886 238.309 477.746 238.309 478.703V479.387C238.309 480.196 238.417 480.948 238.634 481.643C238.862 482.326 239.192 482.924 239.625 483.437C240.058 483.95 240.582 484.354 241.197 484.65C241.812 484.935 242.513 485.078 243.299 485.078C244.291 485.078 245.174 484.878 245.948 484.479C246.723 484.081 247.395 483.517 247.965 482.788L250.135 484.89C249.736 485.471 249.218 486.029 248.58 486.564C247.942 487.089 247.162 487.516 246.239 487.846C245.327 488.177 244.268 488.342 243.06 488.342ZM254.637 478.959V478.566C254.637 477.233 254.83 475.997 255.218 474.858C255.605 473.707 256.163 472.71 256.893 471.867C257.633 471.013 258.533 470.352 259.593 469.885C260.664 469.406 261.871 469.167 263.216 469.167C264.572 469.167 265.779 469.406 266.839 469.885C267.91 470.352 268.816 471.013 269.556 471.867C270.297 472.71 270.861 473.707 271.248 474.858C271.635 475.997 271.829 477.233 271.829 478.566V478.959C271.829 480.292 271.635 481.529 271.248 482.668C270.861 483.807 270.297 484.804 269.556 485.659C268.816 486.502 267.916 487.163 266.856 487.641C265.796 488.108 264.594 488.342 263.25 488.342C261.894 488.342 260.681 488.108 259.61 487.641C258.55 487.163 257.65 486.502 256.91 485.659C256.169 484.804 255.605 483.807 255.218 482.668C254.83 481.529 254.637 480.292 254.637 478.959ZM258.755 478.566V478.959C258.755 479.791 258.841 480.577 259.012 481.318C259.183 482.058 259.45 482.708 259.815 483.266C260.18 483.824 260.647 484.263 261.216 484.582C261.786 484.901 262.464 485.061 263.25 485.061C264.013 485.061 264.674 484.901 265.232 484.582C265.802 484.263 266.269 483.824 266.634 483.266C266.998 482.708 267.266 482.058 267.437 481.318C267.619 480.577 267.71 479.791 267.71 478.959V478.566C267.71 477.746 267.619 476.971 267.437 476.242C267.266 475.502 266.993 474.847 266.617 474.277C266.252 473.707 265.785 473.263 265.215 472.944C264.657 472.613 263.991 472.448 263.216 472.448C262.441 472.448 261.769 472.613 261.199 472.944C260.641 473.263 260.18 473.707 259.815 474.277C259.45 474.847 259.183 475.502 259.012 476.242C258.841 476.971 258.755 477.746 258.755 478.566ZM281.167 473.029V488H277.048V469.509H280.979L281.167 473.029ZM286.824 469.389L286.79 473.217C286.539 473.172 286.265 473.138 285.969 473.115C285.684 473.092 285.4 473.081 285.115 473.081C284.408 473.081 283.787 473.183 283.252 473.388C282.716 473.582 282.266 473.867 281.902 474.243C281.549 474.607 281.275 475.052 281.082 475.576C280.888 476.1 280.774 476.687 280.74 477.336L279.8 477.404C279.8 476.242 279.914 475.166 280.142 474.174C280.369 473.183 280.711 472.312 281.167 471.56C281.634 470.808 282.215 470.221 282.91 469.799C283.617 469.378 284.431 469.167 285.354 469.167C285.605 469.167 285.872 469.19 286.157 469.235C286.453 469.281 286.676 469.332 286.824 469.389ZM296.828 485.983L301.853 469.509H306.262L298.845 490.82C298.674 491.276 298.452 491.771 298.178 492.307C297.905 492.842 297.546 493.349 297.102 493.828C296.669 494.318 296.127 494.711 295.478 495.007C294.829 495.314 294.042 495.468 293.12 495.468C292.755 495.468 292.402 495.434 292.06 495.366C291.73 495.309 291.416 495.246 291.12 495.178L291.103 492.033C291.217 492.045 291.354 492.056 291.513 492.067C291.684 492.079 291.821 492.084 291.923 492.084C292.607 492.084 293.177 491.999 293.632 491.828C294.088 491.669 294.458 491.407 294.743 491.042C295.039 490.677 295.29 490.188 295.495 489.572L296.828 485.983ZM293.991 469.509L298.383 483.352L299.118 487.692L296.264 488.427L289.548 469.509H293.991Z" fill="#04364A"/>
<defs>
<filter id="filter0_d_496_6" x="0" y="0" width="678" height="717" filterUnits="userSpaceOnUse" color-interpolation-filters="sRGB">
<feFlood flood-opacity="0" result="BackgroundImageFix"/>
<feColorMatrix in="SourceAlpha" type="matrix" values="0 0 0 0 0 0 0 0 0 0 0 0 0 0 0 0 0 0 127 0" result="hardAlpha"/>
<feOffset dy="20"/>
<feGaussianBlur stdDeviation="20"/>
<feComposite in2="hardAlpha" operator="out"/>
<feColorMatrix type="matrix" values="0 0 0 0 0 0 0 0 0 0 0 0 0 0 0 0 0 0 0.25 0"/>
<feBlend mode="normal" in2="BackgroundImageFix" result="effect1_dropShadow_496_6"/>
<feBlend mode="normal" in="SourceGraphic" in2="effect1_dropShadow_496_6" result="shape"/>
</filter>
</defs>
</svg>
