<svg width="672" height="717" viewBox="0 0 672 717" fill="none" xmlns="http://www.w3.org/2000/svg">
<g filter="url(#filter0_d_496_7)">
<rect x="40" y="20" width="598" height="637" rx="40" fill="#DAE4E8"/>
</g>
<path d="M80.7583 110H75.4434L75.4775 106.599H80.7583C82.2964 106.599 83.5838 106.263 84.6206 105.591C85.6688 104.919 86.4549 103.956 86.979 102.703C87.5145 101.449 87.7822 99.9569 87.7822 98.2251V96.875C87.7822 95.5306 87.6284 94.34 87.3208 93.3032C87.0246 92.2664 86.5802 91.3949 85.9878 90.6885C85.4067 89.9821 84.689 89.4466 83.8345 89.082C82.9914 88.7174 82.0173 88.5352 80.9121 88.5352H75.3408V85.1172H80.9121C82.5641 85.1172 84.0737 85.3963 85.4409 85.9546C86.8081 86.5015 87.9873 87.2933 88.9785 88.3301C89.9811 89.3669 90.7502 90.6087 91.2856 92.0557C91.8211 93.5026 92.0889 95.1204 92.0889 96.9092V98.2251C92.0889 100.014 91.8211 101.632 91.2856 103.079C90.7502 104.526 89.9811 105.767 88.9785 106.804C87.9759 107.83 86.7796 108.621 85.3896 109.18C84.0111 109.727 82.4673 110 80.7583 110ZM77.8188 85.1172V110H73.5293V85.1172H77.8188ZM102.145 91.5088V110H98.0088V91.5088H102.145ZM97.7354 86.6553C97.7354 86.0286 97.9404 85.5103 98.3506 85.1001C98.7721 84.6785 99.3532 84.4678 100.094 84.4678C100.823 84.4678 101.398 84.6785 101.82 85.1001C102.241 85.5103 102.452 86.0286 102.452 86.6553C102.452 87.2705 102.241 87.7832 101.82 88.1934C101.398 88.6035 100.823 88.8086 100.094 88.8086C99.3532 88.8086 98.7721 88.6035 98.3506 88.1934C97.9404 87.7832 97.7354 87.2705 97.7354 86.6553ZM108.611 91.5088H112.747V111.606C112.747 112.871 112.531 113.936 112.098 114.802C111.665 115.68 111.027 116.34 110.184 116.785C109.34 117.24 108.309 117.468 107.09 117.468C106.726 117.468 106.35 117.44 105.962 117.383C105.564 117.337 105.188 117.269 104.834 117.178L104.852 113.965C105.091 114.01 105.347 114.045 105.621 114.067C105.883 114.102 106.133 114.119 106.373 114.119C106.862 114.119 107.273 114.033 107.603 113.862C107.933 113.691 108.184 113.424 108.355 113.059C108.526 112.694 108.611 112.21 108.611 111.606V91.5088ZM108.252 86.6553C108.252 86.0286 108.463 85.5103 108.885 85.1001C109.306 84.6785 109.882 84.4678 110.611 84.4678C111.351 84.4678 111.927 84.6785 112.337 85.1001C112.758 85.5103 112.969 86.0286 112.969 86.6553C112.969 87.2705 112.758 87.7832 112.337 88.1934C111.927 88.6035 111.351 88.8086 110.611 88.8086C109.882 88.8086 109.306 88.6035 108.885 88.1934C108.463 87.7832 108.252 87.2705 108.252 86.6553ZM123.093 83.75V110H118.958V83.75H123.093ZM134.578 91.5088L126.528 100.43L122.119 104.941L121.042 101.455L124.375 97.3364L129.604 91.5088H134.578ZM130.493 110L124.495 101.318L127.092 98.4302L135.261 110H130.493ZM149.316 104.993C149.316 104.583 149.213 104.212 149.008 103.882C148.803 103.54 148.41 103.232 147.829 102.959C147.259 102.686 146.416 102.435 145.3 102.207C144.32 101.991 143.42 101.734 142.6 101.438C141.791 101.13 141.096 100.76 140.515 100.327C139.934 99.8942 139.484 99.3815 139.165 98.7891C138.846 98.1966 138.686 97.513 138.686 96.7383C138.686 95.9863 138.851 95.2743 139.182 94.6021C139.512 93.9299 139.985 93.3374 140.6 92.8247C141.215 92.312 141.962 91.9076 142.839 91.6113C143.728 91.3151 144.719 91.167 145.812 91.167C147.362 91.167 148.689 91.429 149.794 91.9531C150.911 92.4658 151.765 93.1665 152.358 94.0552C152.95 94.9325 153.247 95.9237 153.247 97.0288H149.128C149.128 96.5389 149.003 96.0832 148.752 95.6616C148.513 95.2287 148.148 94.8812 147.658 94.6191C147.168 94.3457 146.553 94.209 145.812 94.209C145.106 94.209 144.519 94.3229 144.052 94.5508C143.597 94.7673 143.255 95.0521 143.027 95.4053C142.81 95.7585 142.702 96.1458 142.702 96.5674C142.702 96.875 142.759 97.1541 142.873 97.4048C142.998 97.644 143.203 97.8662 143.488 98.0713C143.773 98.265 144.16 98.4473 144.65 98.6182C145.152 98.7891 145.778 98.9543 146.53 99.1138C147.943 99.41 149.156 99.7917 150.17 100.259C151.196 100.715 151.982 101.307 152.529 102.036C153.076 102.754 153.349 103.665 153.349 104.771C153.349 105.591 153.173 106.343 152.819 107.026C152.478 107.699 151.976 108.285 151.315 108.787C150.655 109.277 149.863 109.658 148.94 109.932C148.028 110.205 147.003 110.342 145.864 110.342C144.189 110.342 142.771 110.046 141.608 109.453C140.446 108.849 139.563 108.08 138.959 107.146C138.367 106.2 138.071 105.221 138.071 104.207H142.053C142.098 104.97 142.309 105.579 142.685 106.035C143.072 106.479 143.551 106.804 144.121 107.009C144.702 107.203 145.3 107.3 145.915 107.3C146.656 107.3 147.277 107.203 147.778 107.009C148.279 106.804 148.661 106.531 148.923 106.189C149.185 105.836 149.316 105.437 149.316 104.993ZM167.182 91.5088V94.5166H156.757V91.5088H167.182ZM159.765 86.98H163.883V104.89C163.883 105.46 163.963 105.898 164.123 106.206C164.293 106.502 164.527 106.702 164.823 106.804C165.119 106.907 165.467 106.958 165.866 106.958C166.151 106.958 166.424 106.941 166.686 106.907C166.948 106.873 167.159 106.838 167.318 106.804L167.335 109.949C166.994 110.051 166.595 110.142 166.139 110.222C165.695 110.302 165.182 110.342 164.601 110.342C163.655 110.342 162.818 110.177 162.089 109.846C161.36 109.504 160.79 108.952 160.38 108.188C159.97 107.425 159.765 106.411 159.765 105.146V86.98ZM176.246 95.0293V110H172.127V91.5088H176.058L176.246 95.0293ZM181.903 91.3892L181.869 95.2173C181.618 95.1717 181.345 95.1375 181.048 95.1147C180.764 95.092 180.479 95.0806 180.194 95.0806C179.487 95.0806 178.867 95.1831 178.331 95.3882C177.796 95.5819 177.346 95.8667 176.981 96.2427C176.628 96.6073 176.354 97.0516 176.161 97.5757C175.967 98.0998 175.853 98.6865 175.819 99.3359L174.879 99.4043C174.879 98.2422 174.993 97.1655 175.221 96.1743C175.449 95.1831 175.79 94.3115 176.246 93.5596C176.713 92.8076 177.294 92.2209 177.989 91.7993C178.696 91.3778 179.51 91.167 180.433 91.167C180.684 91.167 180.951 91.1898 181.236 91.2354C181.533 91.2809 181.755 91.3322 181.903 91.3892ZM196.043 106.292V97.4731C196.043 96.8123 195.923 96.2427 195.684 95.7642C195.445 95.2856 195.08 94.9154 194.59 94.6533C194.112 94.3913 193.508 94.2603 192.779 94.2603C192.107 94.2603 191.526 94.3742 191.036 94.6021C190.546 94.8299 190.164 95.1375 189.891 95.5249C189.617 95.9123 189.48 96.3509 189.48 96.8408H185.379C185.379 96.1117 185.556 95.4053 185.909 94.7217C186.262 94.0381 186.775 93.4285 187.447 92.8931C188.119 92.3576 188.922 91.936 189.856 91.6284C190.791 91.3208 191.839 91.167 193.001 91.167C194.391 91.167 195.621 91.4006 196.692 91.8677C197.775 92.3348 198.624 93.0412 199.239 93.9868C199.865 94.9211 200.179 96.0946 200.179 97.5073V105.728C200.179 106.571 200.236 107.328 200.35 108C200.475 108.661 200.652 109.237 200.879 109.727V110H196.658C196.465 109.556 196.311 108.992 196.197 108.308C196.094 107.613 196.043 106.941 196.043 106.292ZM196.641 98.7549L196.675 101.301H193.719C192.955 101.301 192.283 101.375 191.702 101.523C191.121 101.66 190.637 101.865 190.25 102.139C189.862 102.412 189.572 102.743 189.378 103.13C189.184 103.517 189.087 103.956 189.087 104.446C189.087 104.936 189.201 105.386 189.429 105.796C189.657 106.195 189.987 106.508 190.42 106.736C190.865 106.964 191.4 107.078 192.027 107.078C192.87 107.078 193.605 106.907 194.231 106.565C194.869 106.212 195.371 105.785 195.735 105.283C196.1 104.771 196.294 104.286 196.316 103.831L197.649 105.659C197.513 106.126 197.279 106.628 196.949 107.163C196.618 107.699 196.185 108.211 195.65 108.701C195.126 109.18 194.493 109.573 193.753 109.88C193.024 110.188 192.181 110.342 191.224 110.342C190.016 110.342 188.939 110.103 187.994 109.624C187.048 109.134 186.307 108.479 185.772 107.659C185.236 106.827 184.969 105.887 184.969 104.839C184.969 103.859 185.151 102.993 185.516 102.241C185.892 101.478 186.438 100.84 187.156 100.327C187.885 99.8145 188.774 99.4271 189.822 99.165C190.87 98.8916 192.067 98.7549 193.411 98.7549H196.641Z" fill="#04364A"/>
<rect x="71" y="135" width="520" height="206" rx="10" fill="#484B4C"/>
<path d="M549 160V155.333C549 153.467 549 152.533 549.363 151.82C549.683 151.192 550.192 150.683 550.82 150.363C551.533 150 552.467 150 554.333 150H563.667C565.533 150 566.467 150 567.18 150.363C567.807 150.683 568.317 151.193 568.637 151.82C569 152.533 569 153.467 569 155.333V164.667C569 166.533 569 167.467 568.637 168.18C568.317 168.807 567.807 169.317 567.18 169.637C566.467 170 565.533 170 563.672 170H559M549 160H544.333C542.467 160 541.533 160 540.82 160.363C540.193 160.683 539.683 161.193 539.363 161.82C539 162.533 539 163.467 539 165.333V174.667C539 176.533 539 177.467 539.363 178.18C539.683 178.807 540.193 179.317 540.82 179.637C541.532 180 542.465 180 544.328 180H553.673C555.535 180 556.467 180 557.18 179.637C557.807 179.317 558.317 178.807 558.637 178.18C559 177.467 559 176.535 559 174.672V170M549 160H553.667C555.533 160 556.467 160 557.18 160.363C557.807 160.683 558.317 161.193 558.637 161.82C559 162.532 559 163.465 559 165.328V170" stroke="#DAFFFB" stroke-width="3.33333" stroke-linecap="round" stroke-linejoin="round"/>
<rect x="95" y="159" width="80" height="10" rx="5" fill="#D9D9D9"/>
<rect x="187" y="159" width="130" height="10" rx="5" fill="#D9D9D9"/>
<rect x="118" y="180" width="44" height="10" rx="5" fill="#D9D9D9"/>
<rect x="175" y="180" width="87" height="10" rx="5" fill="#D9D9D9"/>
<rect x="273" y="180" width="90" height="10" rx="5" fill="#D9D9D9"/>
<rect x="118" y="201" width="120" height="10" rx="5" fill="#D9D9D9"/>
<rect x="118" y="222" width="65" height="10" rx="5" fill="#D9D9D9"/>
<rect x="192" y="222" width="120" height="10" rx="5" fill="#D9D9D9"/>
<rect x="118" y="243" width="145" height="10" rx="5" fill="#D9D9D9"/>
<rect x="95" y="264" width="110" height="10" rx="5" fill="#D9D9D9"/>
<rect x="118" y="285" width="54" height="10" rx="5" fill="#D9D9D9"/>
<rect x="183" y="285" width="130" height="10" rx="5" fill="#D9D9D9"/>
<rect x="119" y="306" width="74" height="10" rx="5" fill="#D9D9D9"/>
<rect x="201" y="306" width="73" height="10" rx="5" fill="#D9D9D9"/>
<rect x="281" y="306" width="120" height="10" rx="5" fill="#D9D9D9"/>
<rect x="324" y="284" width="59" height="10" rx="5" fill="#D9D9D9"/>
<rect x="218" y="264" width="99" height="10" rx="5" fill="#D9D9D9"/>
<rect x="278" y="243" width="94" height="10" rx="5" fill="#D9D9D9"/>
<rect x="326" y="222" width="34" height="10" rx="5" fill="#D9D9D9"/>
<rect x="252" y="201" width="74" height="10" rx="5" fill="#D9D9D9"/>
<rect x="336" y="200" width="74" height="10" rx="5" fill="#D9D9D9"/>
<path d="M87.1777 402.781H88.3887L93.6426 415.301L98.9062 402.781H100.107L94.1016 417H93.1836L87.1777 402.781ZM86.8066 402.781H87.8711L87.998 410.789V417H86.8066V402.781ZM99.4336 402.781H100.498V417H99.2969V410.789L99.4336 402.781ZM111.605 414.559V406.434H112.777V417H111.654L111.605 414.559ZM111.82 412.605L112.426 412.586C112.426 413.25 112.348 413.862 112.191 414.422C112.035 414.982 111.791 415.47 111.459 415.887C111.127 416.303 110.697 416.626 110.17 416.854C109.643 417.081 109.008 417.195 108.266 417.195C107.751 417.195 107.279 417.124 106.85 416.98C106.426 416.831 106.062 416.596 105.756 416.277C105.45 415.958 105.212 415.545 105.043 415.037C104.88 414.529 104.799 413.914 104.799 413.191V406.434H105.961V413.211C105.961 413.777 106.023 414.249 106.146 414.627C106.277 415.005 106.452 415.307 106.674 415.535C106.902 415.763 107.162 415.926 107.455 416.023C107.748 416.121 108.064 416.17 108.402 416.17C109.262 416.17 109.939 416.004 110.434 415.672C110.935 415.34 111.29 414.904 111.498 414.363C111.713 413.816 111.82 413.23 111.82 412.605ZM118.133 402V417H116.971V402H118.133ZM126.32 406.434V407.391H121.027V406.434H126.32ZM122.971 403.719H124.133V414.432C124.133 414.92 124.198 415.288 124.328 415.535C124.458 415.783 124.628 415.949 124.836 416.033C125.044 416.118 125.269 416.16 125.51 416.16C125.686 416.16 125.855 416.15 126.018 416.131C126.18 416.105 126.327 416.079 126.457 416.053L126.506 417.039C126.363 417.085 126.177 417.12 125.949 417.146C125.721 417.179 125.493 417.195 125.266 417.195C124.816 417.195 124.419 417.114 124.074 416.951C123.729 416.782 123.459 416.495 123.264 416.092C123.068 415.682 122.971 415.125 122.971 414.422V403.719ZM131.07 406.434V417H129.908V406.434H131.07ZM129.703 403.377C129.703 403.156 129.771 402.97 129.908 402.82C130.051 402.664 130.247 402.586 130.494 402.586C130.742 402.586 130.937 402.664 131.08 402.82C131.23 402.97 131.305 403.156 131.305 403.377C131.305 403.592 131.23 403.777 131.08 403.934C130.937 404.083 130.742 404.158 130.494 404.158C130.247 404.158 130.051 404.083 129.908 403.934C129.771 403.777 129.703 403.592 129.703 403.377ZM136.416 408.465V421.062H135.244V406.434H136.338L136.416 408.465ZM143.76 411.619V411.824C143.76 412.612 143.669 413.335 143.486 413.992C143.304 414.65 143.04 415.219 142.695 415.701C142.357 416.176 141.937 416.544 141.436 416.805C140.934 417.065 140.365 417.195 139.727 417.195C139.095 417.195 138.532 417.098 138.037 416.902C137.542 416.707 137.116 416.43 136.758 416.072C136.406 415.708 136.123 415.285 135.908 414.803C135.7 414.314 135.553 413.781 135.469 413.201V410.496C135.566 409.858 135.726 409.279 135.947 408.758C136.169 408.237 136.452 407.788 136.797 407.41C137.148 407.033 137.565 406.743 138.047 406.541C138.529 406.339 139.079 406.238 139.697 406.238C140.342 406.238 140.915 406.365 141.416 406.619C141.924 406.867 142.35 407.228 142.695 407.703C143.047 408.172 143.311 408.738 143.486 409.402C143.669 410.06 143.76 410.799 143.76 411.619ZM142.588 411.824V411.619C142.588 411.001 142.523 410.428 142.393 409.9C142.269 409.373 142.077 408.914 141.816 408.523C141.562 408.126 141.237 407.817 140.84 407.596C140.449 407.374 139.984 407.264 139.443 407.264C138.883 407.264 138.405 407.358 138.008 407.547C137.617 407.729 137.292 407.973 137.031 408.279C136.771 408.579 136.566 408.908 136.416 409.266C136.266 409.624 136.156 409.975 136.084 410.32V413.436C136.208 413.93 136.406 414.389 136.68 414.812C136.953 415.229 137.318 415.564 137.773 415.818C138.236 416.066 138.799 416.189 139.463 416.189C139.997 416.189 140.459 416.079 140.85 415.857C141.24 415.636 141.562 415.327 141.816 414.93C142.077 414.533 142.269 414.07 142.393 413.543C142.523 413.016 142.588 412.443 142.588 411.824ZM148.656 402V417H147.494V402H148.656ZM156.932 417.195C156.242 417.195 155.607 417.068 155.027 416.814C154.454 416.561 153.953 416.202 153.523 415.74C153.1 415.278 152.771 414.731 152.537 414.1C152.309 413.462 152.195 412.765 152.195 412.01V411.59C152.195 410.776 152.316 410.04 152.557 409.383C152.798 408.725 153.13 408.162 153.553 407.693C153.976 407.225 154.458 406.867 154.998 406.619C155.545 406.365 156.118 406.238 156.717 406.238C157.387 406.238 157.983 406.359 158.504 406.6C159.025 406.834 159.461 407.169 159.812 407.605C160.171 408.035 160.441 408.546 160.623 409.139C160.805 409.725 160.896 410.372 160.896 411.082V411.795H152.898V410.799H159.734V410.662C159.721 410.07 159.601 409.516 159.373 409.002C159.152 408.481 158.82 408.058 158.377 407.732C157.934 407.407 157.381 407.244 156.717 407.244C156.222 407.244 155.766 407.348 155.35 407.557C154.939 407.765 154.585 408.064 154.285 408.455C153.992 408.839 153.764 409.298 153.602 409.832C153.445 410.359 153.367 410.945 153.367 411.59V412.01C153.367 412.596 153.452 413.143 153.621 413.65C153.797 414.152 154.044 414.594 154.363 414.979C154.689 415.363 155.073 415.662 155.516 415.877C155.958 416.092 156.447 416.199 156.98 416.199C157.605 416.199 158.159 416.085 158.641 415.857C159.122 415.623 159.555 415.255 159.939 414.754L160.672 415.32C160.444 415.659 160.158 415.971 159.812 416.258C159.474 416.544 159.067 416.772 158.592 416.941C158.117 417.111 157.563 417.195 156.932 417.195ZM179.215 412.566H180.416C180.318 413.523 180.055 414.35 179.625 415.047C179.195 415.737 178.609 416.268 177.867 416.639C177.125 417.01 176.23 417.195 175.182 417.195C174.374 417.195 173.642 417.042 172.984 416.736C172.333 416.43 171.773 415.997 171.305 415.438C170.836 414.871 170.475 414.194 170.221 413.406C169.967 412.618 169.84 411.743 169.84 410.779V409.002C169.84 408.038 169.967 407.166 170.221 406.385C170.475 405.597 170.839 404.92 171.314 404.354C171.79 403.787 172.359 403.351 173.023 403.045C173.688 402.739 174.436 402.586 175.27 402.586C176.279 402.586 177.151 402.771 177.887 403.143C178.622 403.507 179.202 404.035 179.625 404.725C180.055 405.415 180.318 406.248 180.416 407.225H179.215C179.124 406.456 178.922 405.805 178.609 405.271C178.297 404.738 177.864 404.331 177.311 404.051C176.764 403.764 176.083 403.621 175.27 403.621C174.605 403.621 174.013 403.748 173.492 404.002C172.971 404.256 172.529 404.62 172.164 405.096C171.799 405.564 171.52 406.128 171.324 406.785C171.135 407.443 171.041 408.175 171.041 408.982V410.779C171.041 411.561 171.132 412.28 171.314 412.938C171.497 413.595 171.764 414.165 172.115 414.646C172.473 415.128 172.91 415.503 173.424 415.77C173.938 416.036 174.524 416.17 175.182 416.17C176.021 416.17 176.721 416.036 177.281 415.77C177.848 415.496 178.287 415.092 178.6 414.559C178.912 414.025 179.117 413.361 179.215 412.566ZM185.234 402V417H184.072V402H185.234ZM184.971 411.062L184.453 410.77C184.492 410.145 184.619 409.559 184.834 409.012C185.049 408.465 185.339 407.983 185.703 407.566C186.074 407.15 186.507 406.824 187.002 406.59C187.503 406.355 188.057 406.238 188.662 406.238C189.189 406.238 189.661 406.31 190.078 406.453C190.495 406.596 190.85 406.824 191.143 407.137C191.436 407.449 191.657 407.85 191.807 408.338C191.963 408.826 192.041 409.422 192.041 410.125V417H190.869V410.115C190.869 409.386 190.768 408.816 190.566 408.406C190.365 407.99 190.078 407.693 189.707 407.518C189.336 407.342 188.896 407.254 188.389 407.254C187.829 407.254 187.337 407.378 186.914 407.625C186.497 407.866 186.146 408.182 185.859 408.572C185.579 408.956 185.365 409.37 185.215 409.812C185.065 410.249 184.984 410.665 184.971 411.062ZM195.404 411.883V411.561C195.404 410.792 195.515 410.083 195.736 409.432C195.958 408.781 196.273 408.217 196.684 407.742C197.1 407.267 197.598 406.899 198.178 406.639C198.757 406.372 199.402 406.238 200.111 406.238C200.827 406.238 201.475 406.372 202.055 406.639C202.634 406.899 203.132 407.267 203.549 407.742C203.965 408.217 204.285 408.781 204.506 409.432C204.727 410.083 204.838 410.792 204.838 411.561V411.883C204.838 412.651 204.727 413.361 204.506 414.012C204.285 414.656 203.965 415.216 203.549 415.691C203.139 416.167 202.644 416.538 202.064 416.805C201.485 417.065 200.84 417.195 200.131 417.195C199.415 417.195 198.767 417.065 198.188 416.805C197.608 416.538 197.11 416.167 196.693 415.691C196.277 415.216 195.958 414.656 195.736 414.012C195.515 413.361 195.404 412.651 195.404 411.883ZM196.566 411.561V411.883C196.566 412.462 196.645 413.012 196.801 413.533C196.957 414.048 197.185 414.507 197.484 414.91C197.784 415.307 198.155 415.62 198.598 415.848C199.04 416.076 199.551 416.189 200.131 416.189C200.704 416.189 201.208 416.076 201.645 415.848C202.087 415.62 202.458 415.307 202.758 414.91C203.057 414.507 203.282 414.048 203.432 413.533C203.588 413.012 203.666 412.462 203.666 411.883V411.561C203.666 410.988 203.588 410.444 203.432 409.93C203.282 409.415 203.054 408.956 202.748 408.553C202.449 408.149 202.077 407.83 201.635 407.596C201.192 407.361 200.684 407.244 200.111 407.244C199.538 407.244 199.031 407.361 198.588 407.596C198.152 407.83 197.781 408.149 197.475 408.553C197.175 408.956 196.947 409.415 196.791 409.93C196.641 410.444 196.566 410.988 196.566 411.561ZM209.559 406.434V417H208.396V406.434H209.559ZM208.191 403.377C208.191 403.156 208.26 402.97 208.396 402.82C208.54 402.664 208.735 402.586 208.982 402.586C209.23 402.586 209.425 402.664 209.568 402.82C209.718 402.97 209.793 403.156 209.793 403.377C209.793 403.592 209.718 403.777 209.568 403.934C209.425 404.083 209.23 404.158 208.982 404.158C208.735 404.158 208.54 404.083 208.396 403.934C208.26 403.777 208.191 403.592 208.191 403.377ZM217.648 416.189C218.143 416.189 218.605 416.098 219.035 415.916C219.471 415.727 219.829 415.451 220.109 415.086C220.396 414.715 220.559 414.262 220.598 413.729H221.711C221.678 414.399 221.473 414.998 221.096 415.525C220.725 416.046 220.236 416.456 219.631 416.756C219.032 417.049 218.371 417.195 217.648 417.195C216.913 417.195 216.262 417.062 215.695 416.795C215.135 416.528 214.667 416.157 214.289 415.682C213.911 415.2 213.625 414.64 213.43 414.002C213.241 413.357 213.146 412.664 213.146 411.922V411.512C213.146 410.77 213.241 410.079 213.43 409.441C213.625 408.797 213.911 408.237 214.289 407.762C214.667 407.28 215.135 406.906 215.695 406.639C216.255 406.372 216.903 406.238 217.639 406.238C218.394 406.238 219.071 406.391 219.67 406.697C220.275 407.003 220.757 407.436 221.115 407.996C221.48 408.556 221.678 409.22 221.711 409.988H220.598C220.565 409.422 220.415 408.934 220.148 408.523C219.882 408.113 219.53 407.798 219.094 407.576C218.658 407.355 218.173 407.244 217.639 407.244C217.04 407.244 216.529 407.361 216.105 407.596C215.682 407.824 215.337 408.139 215.07 408.543C214.81 408.94 214.618 409.396 214.494 409.91C214.37 410.418 214.309 410.952 214.309 411.512V411.922C214.309 412.488 214.367 413.029 214.484 413.543C214.608 414.051 214.8 414.503 215.061 414.9C215.327 415.298 215.673 415.613 216.096 415.848C216.525 416.076 217.043 416.189 217.648 416.189ZM229.146 417.195C228.456 417.195 227.822 417.068 227.242 416.814C226.669 416.561 226.168 416.202 225.738 415.74C225.315 415.278 224.986 414.731 224.752 414.1C224.524 413.462 224.41 412.765 224.41 412.01V411.59C224.41 410.776 224.531 410.04 224.771 409.383C225.012 408.725 225.344 408.162 225.768 407.693C226.191 407.225 226.673 406.867 227.213 406.619C227.76 406.365 228.333 406.238 228.932 406.238C229.602 406.238 230.198 406.359 230.719 406.6C231.24 406.834 231.676 407.169 232.027 407.605C232.385 408.035 232.656 408.546 232.838 409.139C233.02 409.725 233.111 410.372 233.111 411.082V411.795H225.113V410.799H231.949V410.662C231.936 410.07 231.816 409.516 231.588 409.002C231.367 408.481 231.035 408.058 230.592 407.732C230.149 407.407 229.596 407.244 228.932 407.244C228.437 407.244 227.981 407.348 227.564 407.557C227.154 407.765 226.799 408.064 226.5 408.455C226.207 408.839 225.979 409.298 225.816 409.832C225.66 410.359 225.582 410.945 225.582 411.59V412.01C225.582 412.596 225.667 413.143 225.836 413.65C226.012 414.152 226.259 414.594 226.578 414.979C226.904 415.363 227.288 415.662 227.73 415.877C228.173 416.092 228.661 416.199 229.195 416.199C229.82 416.199 230.374 416.085 230.855 415.857C231.337 415.623 231.77 415.255 232.154 414.754L232.887 415.32C232.659 415.659 232.372 415.971 232.027 416.258C231.689 416.544 231.282 416.772 230.807 416.941C230.331 417.111 229.778 417.195 229.146 417.195ZM249.604 415.877L252.855 418.729L252.035 419.49L248.803 416.668L249.604 415.877ZM253.031 409.129V410.652C253.031 411.648 252.901 412.55 252.641 413.357C252.38 414.158 252.009 414.845 251.527 415.418C251.046 415.991 250.463 416.43 249.779 416.736C249.102 417.042 248.344 417.195 247.504 417.195C246.677 417.195 245.922 417.042 245.238 416.736C244.561 416.43 243.975 415.991 243.48 415.418C242.992 414.845 242.615 414.158 242.348 413.357C242.087 412.55 241.957 411.648 241.957 410.652V409.129C241.957 408.133 242.087 407.234 242.348 406.434C242.615 405.626 242.992 404.936 243.48 404.363C243.969 403.79 244.551 403.351 245.229 403.045C245.906 402.739 246.658 402.586 247.484 402.586C248.324 402.586 249.083 402.739 249.76 403.045C250.443 403.351 251.029 403.79 251.518 404.363C252.006 404.936 252.38 405.626 252.641 406.434C252.901 407.234 253.031 408.133 253.031 409.129ZM251.84 410.652V409.109C251.84 408.27 251.742 407.514 251.547 406.844C251.352 406.173 251.065 405.6 250.688 405.125C250.316 404.65 249.861 404.285 249.32 404.031C248.786 403.777 248.174 403.65 247.484 403.65C246.814 403.65 246.212 403.777 245.678 404.031C245.144 404.285 244.688 404.65 244.311 405.125C243.933 405.6 243.643 406.173 243.441 406.844C243.246 407.514 243.148 408.27 243.148 409.109V410.652C243.148 411.499 243.249 412.26 243.451 412.938C243.653 413.608 243.943 414.184 244.32 414.666C244.698 415.141 245.154 415.506 245.688 415.76C246.228 416.014 246.833 416.141 247.504 416.141C248.194 416.141 248.806 416.014 249.34 415.76C249.88 415.506 250.336 415.141 250.707 414.666C251.078 414.184 251.358 413.608 251.547 412.938C251.742 412.26 251.84 411.499 251.84 410.652ZM263.602 414.559V406.434H264.773V417H263.65L263.602 414.559ZM263.816 412.605L264.422 412.586C264.422 413.25 264.344 413.862 264.188 414.422C264.031 414.982 263.787 415.47 263.455 415.887C263.123 416.303 262.693 416.626 262.166 416.854C261.639 417.081 261.004 417.195 260.262 417.195C259.747 417.195 259.275 417.124 258.846 416.98C258.423 416.831 258.058 416.596 257.752 416.277C257.446 415.958 257.208 415.545 257.039 415.037C256.876 414.529 256.795 413.914 256.795 413.191V406.434H257.957V413.211C257.957 413.777 258.019 414.249 258.143 414.627C258.273 415.005 258.449 415.307 258.67 415.535C258.898 415.763 259.158 415.926 259.451 416.023C259.744 416.121 260.06 416.17 260.398 416.17C261.258 416.17 261.935 416.004 262.43 415.672C262.931 415.34 263.286 414.904 263.494 414.363C263.709 413.816 263.816 413.23 263.816 412.605ZM272.912 417.195C272.222 417.195 271.587 417.068 271.008 416.814C270.435 416.561 269.934 416.202 269.504 415.74C269.081 415.278 268.752 414.731 268.518 414.1C268.29 413.462 268.176 412.765 268.176 412.01V411.59C268.176 410.776 268.296 410.04 268.537 409.383C268.778 408.725 269.11 408.162 269.533 407.693C269.956 407.225 270.438 406.867 270.979 406.619C271.525 406.365 272.098 406.238 272.697 406.238C273.368 406.238 273.964 406.359 274.484 406.6C275.005 406.834 275.441 407.169 275.793 407.605C276.151 408.035 276.421 408.546 276.604 409.139C276.786 409.725 276.877 410.372 276.877 411.082V411.795H268.879V410.799H275.715V410.662C275.702 410.07 275.581 409.516 275.354 409.002C275.132 408.481 274.8 408.058 274.357 407.732C273.915 407.407 273.361 407.244 272.697 407.244C272.202 407.244 271.747 407.348 271.33 407.557C270.92 407.765 270.565 408.064 270.266 408.455C269.973 408.839 269.745 409.298 269.582 409.832C269.426 410.359 269.348 410.945 269.348 411.59V412.01C269.348 412.596 269.432 413.143 269.602 413.65C269.777 414.152 270.025 414.594 270.344 414.979C270.669 415.363 271.053 415.662 271.496 415.877C271.939 416.092 272.427 416.199 272.961 416.199C273.586 416.199 274.139 416.085 274.621 415.857C275.103 415.623 275.536 415.255 275.92 414.754L276.652 415.32C276.424 415.659 276.138 415.971 275.793 416.258C275.454 416.544 275.048 416.772 274.572 416.941C274.097 417.111 273.544 417.195 272.912 417.195ZM286.51 414.305C286.51 414.018 286.438 413.735 286.295 413.455C286.152 413.175 285.875 412.918 285.465 412.684C285.061 412.449 284.465 412.251 283.678 412.088C283.092 411.958 282.568 411.811 282.105 411.648C281.65 411.486 281.266 411.29 280.953 411.062C280.641 410.835 280.403 410.561 280.24 410.242C280.077 409.923 279.996 409.546 279.996 409.109C279.996 408.719 280.081 408.351 280.25 408.006C280.426 407.654 280.673 407.348 280.992 407.088C281.318 406.821 281.708 406.613 282.164 406.463C282.626 406.313 283.144 406.238 283.717 406.238C284.531 406.238 285.227 406.378 285.807 406.658C286.393 406.932 286.839 407.306 287.145 407.781C287.457 408.257 287.613 408.794 287.613 409.393H286.451C286.451 409.028 286.344 408.683 286.129 408.357C285.921 408.032 285.611 407.765 285.201 407.557C284.798 407.348 284.303 407.244 283.717 407.244C283.111 407.244 282.62 407.335 282.242 407.518C281.865 407.7 281.588 407.931 281.412 408.211C281.243 408.491 281.158 408.781 281.158 409.08C281.158 409.314 281.194 409.529 281.266 409.725C281.344 409.913 281.48 410.089 281.676 410.252C281.878 410.415 282.164 410.568 282.535 410.711C282.906 410.854 283.388 410.994 283.98 411.131C284.833 411.32 285.53 411.551 286.07 411.824C286.617 412.091 287.021 412.423 287.281 412.82C287.542 413.211 287.672 413.686 287.672 414.246C287.672 414.682 287.581 415.083 287.398 415.447C287.216 415.805 286.952 416.115 286.607 416.375C286.269 416.635 285.859 416.837 285.377 416.98C284.902 417.124 284.368 417.195 283.775 417.195C282.883 417.195 282.128 417.049 281.51 416.756C280.898 416.456 280.432 416.066 280.113 415.584C279.801 415.096 279.645 414.578 279.645 414.031H280.807C280.846 414.578 281.018 415.011 281.324 415.33C281.63 415.643 282.005 415.864 282.447 415.994C282.896 416.124 283.339 416.189 283.775 416.189C284.374 416.189 284.876 416.102 285.279 415.926C285.683 415.75 285.989 415.519 286.197 415.232C286.406 414.946 286.51 414.637 286.51 414.305ZM295.312 406.434V407.391H290.02V406.434H295.312ZM291.963 403.719H293.125V414.432C293.125 414.92 293.19 415.288 293.32 415.535C293.451 415.783 293.62 415.949 293.828 416.033C294.036 416.118 294.261 416.16 294.502 416.16C294.678 416.16 294.847 416.15 295.01 416.131C295.173 416.105 295.319 416.079 295.449 416.053L295.498 417.039C295.355 417.085 295.169 417.12 294.941 417.146C294.714 417.179 294.486 417.195 294.258 417.195C293.809 417.195 293.411 417.114 293.066 416.951C292.721 416.782 292.451 416.495 292.256 416.092C292.061 415.682 291.963 415.125 291.963 414.422V403.719ZM300.062 406.434V417H298.9V406.434H300.062ZM298.695 403.377C298.695 403.156 298.764 402.97 298.9 402.82C299.044 402.664 299.239 402.586 299.486 402.586C299.734 402.586 299.929 402.664 300.072 402.82C300.222 402.97 300.297 403.156 300.297 403.377C300.297 403.592 300.222 403.777 300.072 403.934C299.929 404.083 299.734 404.158 299.486 404.158C299.239 404.158 299.044 404.083 298.9 403.934C298.764 403.777 298.695 403.592 298.695 403.377ZM303.611 411.883V411.561C303.611 410.792 303.722 410.083 303.943 409.432C304.165 408.781 304.48 408.217 304.891 407.742C305.307 407.267 305.805 406.899 306.385 406.639C306.964 406.372 307.609 406.238 308.318 406.238C309.035 406.238 309.682 406.372 310.262 406.639C310.841 406.899 311.339 407.267 311.756 407.742C312.173 408.217 312.492 408.781 312.713 409.432C312.934 410.083 313.045 410.792 313.045 411.561V411.883C313.045 412.651 312.934 413.361 312.713 414.012C312.492 414.656 312.173 415.216 311.756 415.691C311.346 416.167 310.851 416.538 310.271 416.805C309.692 417.065 309.048 417.195 308.338 417.195C307.622 417.195 306.974 417.065 306.395 416.805C305.815 416.538 305.317 416.167 304.9 415.691C304.484 415.216 304.165 414.656 303.943 414.012C303.722 413.361 303.611 412.651 303.611 411.883ZM304.773 411.561V411.883C304.773 412.462 304.852 413.012 305.008 413.533C305.164 414.048 305.392 414.507 305.691 414.91C305.991 415.307 306.362 415.62 306.805 415.848C307.247 416.076 307.758 416.189 308.338 416.189C308.911 416.189 309.415 416.076 309.852 415.848C310.294 415.62 310.665 415.307 310.965 414.91C311.264 414.507 311.489 414.048 311.639 413.533C311.795 413.012 311.873 412.462 311.873 411.883V411.561C311.873 410.988 311.795 410.444 311.639 409.93C311.489 409.415 311.261 408.956 310.955 408.553C310.656 408.149 310.285 407.83 309.842 407.596C309.399 407.361 308.891 407.244 308.318 407.244C307.745 407.244 307.238 407.361 306.795 407.596C306.359 407.83 305.988 408.149 305.682 408.553C305.382 408.956 305.154 409.415 304.998 409.93C304.848 410.444 304.773 410.988 304.773 411.561ZM317.629 408.689V417H316.467V406.434H317.58L317.629 408.689ZM317.365 411.062L316.848 410.77C316.887 410.145 317.014 409.559 317.229 409.012C317.443 408.465 317.733 407.983 318.098 407.566C318.469 407.15 318.902 406.824 319.396 406.59C319.898 406.355 320.451 406.238 321.057 406.238C321.584 406.238 322.056 406.31 322.473 406.453C322.889 406.596 323.244 406.824 323.537 407.137C323.83 407.449 324.051 407.85 324.201 408.338C324.357 408.826 324.436 409.422 324.436 410.125V417H323.264V410.115C323.264 409.386 323.163 408.816 322.961 408.406C322.759 407.99 322.473 407.693 322.102 407.518C321.73 407.342 321.291 407.254 320.783 407.254C320.223 407.254 319.732 407.378 319.309 407.625C318.892 407.866 318.54 408.182 318.254 408.572C317.974 408.956 317.759 409.37 317.609 409.812C317.46 410.249 317.378 410.665 317.365 411.062Z" fill="black"/>
<rect x="72" y="384" width="518" height="214" stroke="#04364A" stroke-width="2"/>
<rect x="86.0044" y="450" width="120" height="10" rx="5" fill="#636F74"/>
<rect x="86.0044" y="471" width="65" height="10" rx="5" fill="#636F74"/>
<rect x="168.004" y="471" width="93" height="10" rx="5" fill="#636F74"/>
<rect x="278.004" y="471" width="150" height="10" rx="5" fill="#636F74"/>
<rect x="88.0044" y="499" width="148" height="18" rx="4" stroke="#10D146" stroke-width="2"/>
<rect x="476" y="565" width="100" height="20" rx="5" fill="#04364A"/>
<rect x="88.0044" y="533" width="148" height="18" rx="4" stroke="#E03B0A" stroke-width="2"/>
<rect x="89.0044" y="566" width="148" height="18" rx="4" stroke="#10D146" stroke-width="2"/>
<rect x="219.004" y="450" width="80" height="10" rx="5" fill="#636F74"/>
<rect x="363.004" y="450" width="60" height="10" rx="5" fill="#636F74"/>
<rect x="436.004" y="450" width="83" height="10" rx="5" fill="#636F74"/>
<line x1="71" y1="433" x2="591.009" y2="433" stroke="black"/>
<circle cx="262.51" cy="507.51" r="10" transform="rotate(3 262.51 507.51)" fill="#4ECB71"/>
<path fill-rule="evenodd" clip-rule="evenodd" d="M268.444 503.004C268.529 503.076 268.597 503.163 268.645 503.259C268.692 503.354 268.719 503.457 268.722 503.562C268.726 503.666 268.706 503.77 268.665 503.867C268.623 503.964 268.561 504.053 268.481 504.128L261.006 511.159C260.922 511.237 260.821 511.3 260.708 511.342C260.596 511.383 260.475 511.404 260.353 511.402C260.231 511.399 260.11 511.374 259.998 511.329C259.887 511.283 259.787 511.217 259.704 511.135L255.764 507.217C255.611 507.059 255.532 506.854 255.545 506.646C255.558 506.438 255.662 506.244 255.834 506.106C256.006 505.968 256.233 505.896 256.465 505.906C256.697 505.917 256.917 506.009 257.076 506.162L260.372 509.438L267.191 503.025C267.352 502.874 267.575 502.787 267.81 502.783C268.044 502.779 268.273 502.858 268.444 503.004Z" fill="white"/>
<circle cx="261.51" cy="574.51" r="10" transform="rotate(3 261.51 574.51)" fill="#4ECB71"/>
<path fill-rule="evenodd" clip-rule="evenodd" d="M267.444 570.004C267.529 570.076 267.597 570.163 267.645 570.259C267.692 570.354 267.719 570.457 267.722 570.562C267.726 570.666 267.706 570.77 267.665 570.867C267.623 570.964 267.561 571.053 267.481 571.128L260.006 578.159C259.922 578.237 259.821 578.3 259.708 578.342C259.596 578.383 259.475 578.404 259.353 578.402C259.231 578.399 259.11 578.374 258.998 578.329C258.887 578.283 258.787 578.217 258.704 578.135L254.764 574.217C254.611 574.059 254.532 573.854 254.545 573.646C254.558 573.438 254.662 573.244 254.834 573.106C255.006 572.968 255.233 572.896 255.465 572.906C255.697 572.917 255.917 573.009 256.076 573.162L259.372 576.438L266.191 570.025C266.352 569.874 266.575 569.787 266.81 569.783C267.044 569.779 267.273 569.858 267.444 570.004Z" fill="white"/>
<circle cx="262.51" cy="541.51" r="10" transform="rotate(3 262.51 541.51)" fill="#F24E1E"/>
<path d="M266.214 537.698L258.332 544.795M258.725 537.306L265.822 545.188" stroke="white" stroke-width="1.25" stroke-linecap="round" stroke-linejoin="round"/>
<rect x="312.004" y="450" width="34" height="10" rx="5" fill="#636F74"/>
<defs>
<filter id="filter0_d_496_7" x="0" y="0" width="678" height="717" filterUnits="userSpaceOnUse" color-interpolation-filters="sRGB">
<feFlood flood-opacity="0" result="BackgroundImageFix"/>
<feColorMatrix in="SourceAlpha" type="matrix" values="0 0 0 0 0 0 0 0 0 0 0 0 0 0 0 0 0 0 127 0" result="hardAlpha"/>
<feOffset dy="20"/>
<feGaussianBlur stdDeviation="20"/>
<feComposite in2="hardAlpha" operator="out"/>
<feColorMatrix type="matrix" values="0 0 0 0 0 0 0 0 0 0 0 0 0 0 0 0 0 0 0.25 0"/>
<feBlend mode="normal" in2="BackgroundImageFix" result="effect1_dropShadow_496_7"/>
<feBlend mode="normal" in="SourceGraphic" in2="effect1_dropShadow_496_7" result="shape"/>
</filter>
</defs>
</svg>
