<svg width="672" height="717" viewBox="0 0 672 717" fill="none" xmlns="http://www.w3.org/2000/svg">
<g filter="url(#filter0_d_496_8)">
<rect x="40" y="20" width="598" height="637" rx="40" fill="#DAE4E8"/>
</g>
<rect x="82" y="510" width="150" height="15" rx="7.5" fill="#616B6F"/>
<rect x="250" y="510" width="80" height="15" rx="7.5" fill="#616B6F"/>
<rect x="348" y="510" width="180" height="15" rx="7.5" fill="#616B6F"/>
<rect x="82" y="541" width="200" height="15" rx="7.5" fill="#616B6F"/>
<rect x="78" y="572" width="130" height="15" rx="7.5" fill="#616B6F"/>
<rect x="225" y="572" width="80" height="15" rx="7.5" fill="#616B6F"/>
<rect x="322" y="572" width="170" height="15" rx="7.5" fill="#616B6F"/>
<rect x="511" y="572" width="70" height="15" rx="7.5" fill="#616B6F"/>
<rect x="304" y="541" width="140" height="15" rx="7.5" fill="#616B6F"/>
<rect x="466" y="541" width="140" height="15" rx="7.5" fill="#616B6F"/>
<rect x="546" y="510" width="50" height="15" rx="7.5" fill="#616B6F"/>
<path d="M86.9424 465.672V487H83.2949V465.672H86.9424ZM93.6367 465.672V468.602H76.6592V465.672H93.6367ZM104.57 483.821V476.263C104.57 475.696 104.468 475.208 104.263 474.798C104.058 474.388 103.745 474.07 103.325 473.846C102.915 473.621 102.397 473.509 101.772 473.509C101.196 473.509 100.698 473.606 100.278 473.802C99.8584 473.997 99.5312 474.261 99.2969 474.593C99.0625 474.925 98.9453 475.301 98.9453 475.721H95.4297C95.4297 475.096 95.5811 474.49 95.8838 473.904C96.1865 473.318 96.626 472.796 97.2021 472.337C97.7783 471.878 98.4668 471.517 99.2676 471.253C100.068 470.989 100.967 470.857 101.963 470.857C103.154 470.857 104.209 471.058 105.127 471.458C106.055 471.858 106.782 472.464 107.31 473.274C107.847 474.075 108.115 475.081 108.115 476.292V483.338C108.115 484.061 108.164 484.71 108.262 485.286C108.369 485.853 108.521 486.346 108.716 486.766V487H105.098C104.932 486.619 104.8 486.136 104.702 485.55C104.614 484.954 104.57 484.378 104.57 483.821ZM105.083 477.361L105.112 479.544H102.578C101.924 479.544 101.348 479.607 100.85 479.734C100.352 479.852 99.9365 480.027 99.6045 480.262C99.2725 480.496 99.0234 480.779 98.8574 481.111C98.6914 481.443 98.6084 481.819 98.6084 482.239C98.6084 482.659 98.7061 483.045 98.9014 483.396C99.0967 483.738 99.3799 484.007 99.751 484.202C100.132 484.397 100.591 484.495 101.128 484.495C101.851 484.495 102.48 484.349 103.018 484.056C103.564 483.753 103.994 483.387 104.307 482.957C104.619 482.518 104.785 482.103 104.805 481.712L105.947 483.279C105.83 483.68 105.63 484.109 105.347 484.568C105.063 485.027 104.692 485.467 104.233 485.887C103.784 486.297 103.242 486.634 102.607 486.897C101.982 487.161 101.26 487.293 100.439 487.293C99.4043 487.293 98.4814 487.088 97.6709 486.678C96.8604 486.258 96.2256 485.696 95.7666 484.993C95.3076 484.28 95.0781 483.475 95.0781 482.576C95.0781 481.736 95.2344 480.994 95.5469 480.35C95.8691 479.695 96.3379 479.148 96.9531 478.709C97.5781 478.27 98.3398 477.938 99.2383 477.713C100.137 477.479 101.162 477.361 102.314 477.361H105.083ZM113.321 464.5H116.852V483.616L116.515 487H113.321V464.5ZM127.193 478.929V479.236C127.193 480.408 127.062 481.487 126.798 482.474C126.544 483.45 126.153 484.3 125.626 485.022C125.108 485.745 124.464 486.307 123.692 486.707C122.931 487.098 122.047 487.293 121.041 487.293C120.055 487.293 119.195 487.107 118.463 486.736C117.73 486.365 117.115 485.838 116.617 485.154C116.129 484.471 115.733 483.655 115.431 482.708C115.128 481.761 114.913 480.716 114.786 479.573V478.592C114.913 477.439 115.128 476.395 115.431 475.457C115.733 474.51 116.129 473.694 116.617 473.011C117.115 472.317 117.726 471.785 118.448 471.414C119.181 471.043 120.035 470.857 121.012 470.857C122.027 470.857 122.921 471.053 123.692 471.443C124.474 471.834 125.123 472.391 125.641 473.113C126.158 473.826 126.544 474.676 126.798 475.662C127.062 476.648 127.193 477.737 127.193 478.929ZM123.663 479.236V478.929C123.663 478.216 123.604 477.547 123.487 476.922C123.37 476.287 123.175 475.73 122.901 475.252C122.638 474.773 122.276 474.397 121.817 474.124C121.368 473.841 120.807 473.699 120.133 473.699C119.508 473.699 118.971 473.807 118.521 474.021C118.072 474.236 117.696 474.529 117.394 474.9C117.091 475.271 116.852 475.701 116.676 476.189C116.51 476.678 116.397 477.205 116.339 477.771V480.423C116.427 481.155 116.612 481.829 116.896 482.444C117.188 483.05 117.599 483.538 118.126 483.909C118.653 484.271 119.332 484.451 120.162 484.451C120.816 484.451 121.368 484.319 121.817 484.056C122.267 483.792 122.623 483.426 122.887 482.957C123.16 482.479 123.355 481.922 123.473 481.287C123.6 480.652 123.663 479.969 123.663 479.236ZM141.218 483.265V471.15H144.763V487H141.423L141.218 483.265ZM141.716 479.969L142.902 479.939C142.902 481.004 142.785 481.985 142.551 482.884C142.316 483.772 141.955 484.549 141.467 485.213C140.979 485.867 140.354 486.38 139.592 486.751C138.83 487.112 137.917 487.293 136.853 487.293C136.081 487.293 135.373 487.181 134.729 486.956C134.084 486.731 133.527 486.385 133.059 485.916C132.6 485.447 132.243 484.837 131.989 484.085C131.735 483.333 131.608 482.435 131.608 481.39V471.15H135.139V481.419C135.139 481.995 135.207 482.479 135.344 482.869C135.48 483.25 135.666 483.558 135.9 483.792C136.135 484.026 136.408 484.192 136.721 484.29C137.033 484.388 137.365 484.437 137.717 484.437C138.723 484.437 139.514 484.241 140.09 483.851C140.676 483.45 141.091 482.913 141.335 482.239C141.589 481.565 141.716 480.809 141.716 479.969ZM153.66 464.5V487H150.115V464.5H153.66ZM167.963 483.821V476.263C167.963 475.696 167.86 475.208 167.655 474.798C167.45 474.388 167.138 474.07 166.718 473.846C166.308 473.621 165.79 473.509 165.165 473.509C164.589 473.509 164.091 473.606 163.671 473.802C163.251 473.997 162.924 474.261 162.689 474.593C162.455 474.925 162.338 475.301 162.338 475.721H158.822C158.822 475.096 158.974 474.49 159.276 473.904C159.579 473.318 160.019 472.796 160.595 472.337C161.171 471.878 161.859 471.517 162.66 471.253C163.461 470.989 164.359 470.857 165.355 470.857C166.547 470.857 167.602 471.058 168.52 471.458C169.447 471.858 170.175 472.464 170.702 473.274C171.239 474.075 171.508 475.081 171.508 476.292V483.338C171.508 484.061 171.557 484.71 171.654 485.286C171.762 485.853 171.913 486.346 172.108 486.766V487H168.49C168.324 486.619 168.192 486.136 168.095 485.55C168.007 484.954 167.963 484.378 167.963 483.821ZM168.476 477.361L168.505 479.544H165.971C165.316 479.544 164.74 479.607 164.242 479.734C163.744 479.852 163.329 480.027 162.997 480.262C162.665 480.496 162.416 480.779 162.25 481.111C162.084 481.443 162.001 481.819 162.001 482.239C162.001 482.659 162.099 483.045 162.294 483.396C162.489 483.738 162.772 484.007 163.144 484.202C163.524 484.397 163.983 484.495 164.521 484.495C165.243 484.495 165.873 484.349 166.41 484.056C166.957 483.753 167.387 483.387 167.699 482.957C168.012 482.518 168.178 482.103 168.197 481.712L169.34 483.279C169.223 483.68 169.022 484.109 168.739 484.568C168.456 485.027 168.085 485.467 167.626 485.887C167.177 486.297 166.635 486.634 166 486.897C165.375 487.161 164.652 487.293 163.832 487.293C162.797 487.293 161.874 487.088 161.063 486.678C160.253 486.258 159.618 485.696 159.159 484.993C158.7 484.28 158.471 483.475 158.471 482.576C158.471 481.736 158.627 480.994 158.939 480.35C159.262 479.695 159.73 479.148 160.346 478.709C160.971 478.27 161.732 477.938 162.631 477.713C163.529 477.479 164.555 477.361 165.707 477.361H168.476ZM183.965 471.15V473.729H175.029V471.15H183.965ZM177.607 467.269H181.138V482.62C181.138 483.108 181.206 483.484 181.343 483.748C181.489 484.002 181.689 484.173 181.943 484.261C182.197 484.349 182.495 484.393 182.837 484.393C183.081 484.393 183.315 484.378 183.54 484.349C183.765 484.319 183.945 484.29 184.082 484.261L184.097 486.956C183.804 487.044 183.462 487.122 183.071 487.19C182.69 487.259 182.251 487.293 181.753 487.293C180.942 487.293 180.225 487.151 179.6 486.868C178.975 486.575 178.486 486.102 178.135 485.447C177.783 484.793 177.607 483.924 177.607 482.84V467.269ZM191.969 471.15V487H188.424V471.15H191.969ZM188.189 466.99C188.189 466.453 188.365 466.009 188.717 465.657C189.078 465.296 189.576 465.115 190.211 465.115C190.836 465.115 191.329 465.296 191.69 465.657C192.052 466.009 192.232 466.453 192.232 466.99C192.232 467.518 192.052 467.957 191.69 468.309C191.329 468.66 190.836 468.836 190.211 468.836C189.576 468.836 189.078 468.66 188.717 468.309C188.365 467.957 188.189 467.518 188.189 466.99ZM196.662 479.251V478.914C196.662 477.771 196.828 476.712 197.16 475.735C197.492 474.749 197.971 473.895 198.596 473.172C199.23 472.439 200.002 471.873 200.91 471.473C201.828 471.062 202.863 470.857 204.016 470.857C205.178 470.857 206.213 471.062 207.121 471.473C208.039 471.873 208.815 472.439 209.45 473.172C210.085 473.895 210.568 474.749 210.9 475.735C211.232 476.712 211.398 477.771 211.398 478.914V479.251C211.398 480.394 211.232 481.453 210.9 482.43C210.568 483.406 210.085 484.261 209.45 484.993C208.815 485.716 208.044 486.282 207.136 486.692C206.228 487.093 205.197 487.293 204.045 487.293C202.883 487.293 201.843 487.093 200.925 486.692C200.017 486.282 199.245 485.716 198.61 484.993C197.976 484.261 197.492 483.406 197.16 482.43C196.828 481.453 196.662 480.394 196.662 479.251ZM200.192 478.914V479.251C200.192 479.964 200.266 480.638 200.412 481.272C200.559 481.907 200.788 482.464 201.101 482.942C201.413 483.421 201.813 483.797 202.302 484.07C202.79 484.344 203.371 484.48 204.045 484.48C204.699 484.48 205.266 484.344 205.744 484.07C206.232 483.797 206.633 483.421 206.945 482.942C207.258 482.464 207.487 481.907 207.634 481.272C207.79 480.638 207.868 479.964 207.868 479.251V478.914C207.868 478.211 207.79 477.547 207.634 476.922C207.487 476.287 207.253 475.726 206.931 475.237C206.618 474.749 206.218 474.368 205.729 474.095C205.251 473.812 204.68 473.67 204.016 473.67C203.352 473.67 202.775 473.812 202.287 474.095C201.809 474.368 201.413 474.749 201.101 475.237C200.788 475.726 200.559 476.287 200.412 476.922C200.266 477.547 200.192 478.211 200.192 478.914ZM219.358 474.534V487H215.828V471.15H219.153L219.358 474.534ZM218.729 478.489L217.586 478.475C217.596 477.352 217.752 476.321 218.055 475.384C218.367 474.446 218.797 473.641 219.344 472.967C219.9 472.293 220.564 471.775 221.336 471.414C222.107 471.043 222.967 470.857 223.914 470.857C224.676 470.857 225.364 470.965 225.979 471.18C226.604 471.385 227.137 471.722 227.576 472.19C228.025 472.659 228.367 473.27 228.602 474.021C228.836 474.764 228.953 475.677 228.953 476.761V487H225.408V476.746C225.408 475.984 225.296 475.384 225.071 474.944C224.856 474.495 224.539 474.178 224.119 473.992C223.709 473.797 223.196 473.699 222.581 473.699C221.976 473.699 221.434 473.826 220.955 474.08C220.477 474.334 220.071 474.681 219.739 475.12C219.417 475.56 219.168 476.067 218.992 476.644C218.816 477.22 218.729 477.835 218.729 478.489Z" fill="black"/>
<path d="M98.3706 109.875V111.242C98.3706 113.122 98.1257 114.808 97.6357 116.301C97.1458 117.793 96.4451 119.064 95.5337 120.112C94.6336 121.16 93.5513 121.963 92.2866 122.521C91.022 123.068 89.6206 123.342 88.0825 123.342C86.5558 123.342 85.1602 123.068 83.8955 122.521C82.6423 121.963 81.5542 121.16 80.6313 120.112C79.7085 119.064 78.9907 117.793 78.478 116.301C77.9767 114.808 77.7261 113.122 77.7261 111.242V109.875C77.7261 107.995 77.9767 106.315 78.478 104.833C78.9793 103.341 79.6857 102.071 80.5972 101.022C81.52 99.9629 82.6081 99.1597 83.8613 98.6128C85.126 98.0545 86.5216 97.7754 88.0483 97.7754C89.5864 97.7754 90.9878 98.0545 92.2524 98.6128C93.5171 99.1597 94.6051 99.9629 95.5166 101.022C96.4281 102.071 97.1287 103.341 97.6187 104.833C98.12 106.315 98.3706 107.995 98.3706 109.875ZM94.0811 111.242V109.841C94.0811 108.451 93.9443 107.226 93.6709 106.167C93.4089 105.096 93.0158 104.201 92.4917 103.483C91.979 102.754 91.3467 102.207 90.5947 101.843C89.8428 101.467 88.994 101.279 88.0483 101.279C87.1027 101.279 86.2596 101.467 85.519 101.843C84.7785 102.207 84.1462 102.754 83.6221 103.483C83.1094 104.201 82.7163 105.096 82.4429 106.167C82.1694 107.226 82.0327 108.451 82.0327 109.841V111.242C82.0327 112.632 82.1694 113.863 82.4429 114.934C82.7163 116.005 83.1151 116.91 83.6392 117.651C84.1746 118.38 84.8127 118.933 85.5532 119.309C86.2938 119.673 87.1369 119.855 88.0825 119.855C89.0396 119.855 89.8883 119.673 90.6289 119.309C91.3695 118.933 91.9961 118.38 92.5088 117.651C93.0215 116.91 93.4089 116.005 93.6709 114.934C93.9443 113.863 94.0811 112.632 94.0811 111.242ZM110.016 119.736L114.544 104.509H118.817L112.391 123H109.725L110.016 119.736ZM106.546 104.509L111.161 119.804L111.383 123H108.717L102.257 104.509H106.546ZM131.026 123.342C129.659 123.342 128.423 123.12 127.317 122.675C126.224 122.22 125.289 121.587 124.515 120.778C123.751 119.969 123.165 119.018 122.754 117.924C122.344 116.831 122.139 115.651 122.139 114.387V113.703C122.139 112.256 122.35 110.946 122.771 109.772C123.193 108.599 123.78 107.596 124.532 106.765C125.284 105.922 126.172 105.278 127.198 104.833C128.223 104.389 129.334 104.167 130.53 104.167C131.852 104.167 133.008 104.389 134 104.833C134.991 105.278 135.811 105.904 136.46 106.713C137.121 107.511 137.611 108.462 137.93 109.567C138.261 110.673 138.426 111.892 138.426 113.225V114.985H124.139V112.028H134.358V111.704C134.336 110.963 134.188 110.268 133.914 109.619C133.652 108.969 133.248 108.445 132.701 108.046C132.154 107.648 131.425 107.448 130.513 107.448C129.83 107.448 129.22 107.596 128.685 107.893C128.16 108.177 127.722 108.593 127.369 109.14C127.015 109.687 126.742 110.348 126.548 111.123C126.366 111.886 126.275 112.746 126.275 113.703V114.387C126.275 115.196 126.383 115.948 126.6 116.643C126.827 117.326 127.158 117.924 127.591 118.437C128.024 118.95 128.548 119.354 129.163 119.65C129.778 119.935 130.479 120.078 131.265 120.078C132.256 120.078 133.139 119.878 133.914 119.479C134.689 119.081 135.361 118.517 135.931 117.788L138.101 119.89C137.702 120.471 137.184 121.029 136.546 121.564C135.908 122.089 135.127 122.516 134.205 122.846C133.293 123.177 132.234 123.342 131.026 123.342ZM147.524 108.029V123H143.406V104.509H147.336L147.524 108.029ZM153.181 104.389L153.147 108.217C152.896 108.172 152.623 108.138 152.327 108.115C152.042 108.092 151.757 108.081 151.472 108.081C150.766 108.081 150.145 108.183 149.609 108.388C149.074 108.582 148.624 108.867 148.259 109.243C147.906 109.607 147.633 110.052 147.439 110.576C147.245 111.1 147.131 111.687 147.097 112.336L146.157 112.404C146.157 111.242 146.271 110.166 146.499 109.174C146.727 108.183 147.069 107.312 147.524 106.56C147.992 105.808 148.573 105.221 149.268 104.799C149.974 104.378 150.789 104.167 151.711 104.167C151.962 104.167 152.23 104.19 152.515 104.235C152.811 104.281 153.033 104.332 153.181 104.389ZM161.921 96.75V123H157.785V96.75H161.921ZM178.607 119.292V110.473C178.607 109.812 178.488 109.243 178.249 108.764C178.009 108.286 177.645 107.915 177.155 107.653C176.676 107.391 176.072 107.26 175.343 107.26C174.671 107.26 174.09 107.374 173.6 107.602C173.11 107.83 172.729 108.138 172.455 108.525C172.182 108.912 172.045 109.351 172.045 109.841H167.943C167.943 109.112 168.12 108.405 168.473 107.722C168.826 107.038 169.339 106.429 170.011 105.893C170.683 105.358 171.487 104.936 172.421 104.628C173.355 104.321 174.403 104.167 175.565 104.167C176.955 104.167 178.186 104.401 179.257 104.868C180.339 105.335 181.188 106.041 181.803 106.987C182.43 107.921 182.743 109.095 182.743 110.507V118.728C182.743 119.571 182.8 120.328 182.914 121C183.039 121.661 183.216 122.237 183.444 122.727V123H179.223C179.029 122.556 178.875 121.992 178.761 121.308C178.659 120.613 178.607 119.941 178.607 119.292ZM179.206 111.755L179.24 114.301H176.283C175.52 114.301 174.848 114.375 174.267 114.523C173.686 114.66 173.201 114.865 172.814 115.139C172.427 115.412 172.136 115.743 171.942 116.13C171.749 116.517 171.652 116.956 171.652 117.446C171.652 117.936 171.766 118.386 171.994 118.796C172.222 119.195 172.552 119.508 172.985 119.736C173.429 119.964 173.965 120.078 174.591 120.078C175.434 120.078 176.169 119.907 176.796 119.565C177.434 119.212 177.935 118.785 178.3 118.283C178.664 117.771 178.858 117.286 178.881 116.831L180.214 118.659C180.077 119.126 179.844 119.628 179.513 120.163C179.183 120.699 178.75 121.211 178.214 121.701C177.69 122.18 177.058 122.573 176.317 122.88C175.588 123.188 174.745 123.342 173.788 123.342C172.58 123.342 171.504 123.103 170.558 122.624C169.612 122.134 168.872 121.479 168.336 120.659C167.801 119.827 167.533 118.887 167.533 117.839C167.533 116.859 167.715 115.993 168.08 115.241C168.456 114.478 169.003 113.84 169.721 113.327C170.45 112.814 171.339 112.427 172.387 112.165C173.435 111.892 174.631 111.755 175.976 111.755H179.206ZM192.936 108.063V130.109H188.817V104.509H192.611L192.936 108.063ZM204.984 113.583V113.942C204.984 115.287 204.824 116.534 204.505 117.685C204.198 118.824 203.736 119.821 203.121 120.676C202.517 121.519 201.771 122.174 200.882 122.641C199.994 123.108 198.968 123.342 197.806 123.342C196.655 123.342 195.647 123.131 194.781 122.709C193.927 122.277 193.203 121.667 192.611 120.881C192.018 120.095 191.54 119.172 191.175 118.112C190.822 117.041 190.571 115.868 190.423 114.592V113.208C190.571 111.852 190.822 110.621 191.175 109.516C191.54 108.411 192.018 107.46 192.611 106.662C193.203 105.865 193.927 105.249 194.781 104.816C195.636 104.383 196.633 104.167 197.772 104.167C198.934 104.167 199.965 104.395 200.865 104.851C201.765 105.295 202.523 105.933 203.138 106.765C203.753 107.585 204.215 108.576 204.522 109.738C204.83 110.889 204.984 112.171 204.984 113.583ZM200.865 113.942V113.583C200.865 112.729 200.785 111.937 200.626 111.208C200.466 110.467 200.216 109.818 199.874 109.26C199.532 108.701 199.094 108.269 198.558 107.961C198.034 107.642 197.402 107.482 196.661 107.482C195.932 107.482 195.305 107.608 194.781 107.858C194.257 108.098 193.819 108.434 193.465 108.867C193.112 109.3 192.839 109.807 192.645 110.388C192.451 110.957 192.315 111.578 192.235 112.25V115.566C192.372 116.386 192.605 117.138 192.936 117.822C193.266 118.505 193.733 119.052 194.337 119.462C194.952 119.861 195.738 120.061 196.695 120.061C197.436 120.061 198.068 119.901 198.592 119.582C199.116 119.263 199.544 118.824 199.874 118.266C200.216 117.696 200.466 117.041 200.626 116.301C200.785 115.56 200.865 114.774 200.865 113.942ZM214.373 108.063V130.109H210.254V104.509H214.048L214.373 108.063ZM226.421 113.583V113.942C226.421 115.287 226.262 116.534 225.943 117.685C225.635 118.824 225.174 119.821 224.559 120.676C223.955 121.519 223.208 122.174 222.32 122.641C221.431 123.108 220.406 123.342 219.244 123.342C218.093 123.342 217.085 123.131 216.219 122.709C215.364 122.277 214.641 121.667 214.048 120.881C213.456 120.095 212.977 119.172 212.613 118.112C212.26 117.041 212.009 115.868 211.861 114.592V113.208C212.009 111.852 212.26 110.621 212.613 109.516C212.977 108.411 213.456 107.46 214.048 106.662C214.641 105.865 215.364 105.249 216.219 104.816C217.073 104.383 218.07 104.167 219.209 104.167C220.372 104.167 221.403 104.395 222.303 104.851C223.203 105.295 223.96 105.933 224.576 106.765C225.191 107.585 225.652 108.576 225.96 109.738C226.268 110.889 226.421 112.171 226.421 113.583ZM222.303 113.942V113.583C222.303 112.729 222.223 111.937 222.063 111.208C221.904 110.467 221.653 109.818 221.312 109.26C220.97 108.701 220.531 108.269 219.996 107.961C219.472 107.642 218.839 107.482 218.099 107.482C217.369 107.482 216.743 107.608 216.219 107.858C215.695 108.098 215.256 108.434 214.903 108.867C214.55 109.3 214.276 109.807 214.083 110.388C213.889 110.957 213.752 111.578 213.672 112.25V115.566C213.809 116.386 214.043 117.138 214.373 117.822C214.703 118.505 215.171 119.052 215.774 119.462C216.39 119.861 217.176 120.061 218.133 120.061C218.873 120.061 219.506 119.901 220.03 119.582C220.554 119.263 220.981 118.824 221.312 118.266C221.653 117.696 221.904 117.041 222.063 116.301C222.223 115.56 222.303 114.774 222.303 113.942ZM236.084 104.509V123H231.948V104.509H236.084ZM231.675 99.6553C231.675 99.0286 231.88 98.5103 232.29 98.1001C232.712 97.6785 233.293 97.4678 234.033 97.4678C234.762 97.4678 235.338 97.6785 235.759 98.1001C236.181 98.5103 236.392 99.0286 236.392 99.6553C236.392 100.271 236.181 100.783 235.759 101.193C235.338 101.604 234.762 101.809 234.033 101.809C233.293 101.809 232.712 101.604 232.29 101.193C231.88 100.783 231.675 100.271 231.675 99.6553ZM246.43 108.457V123H242.312V104.509H246.191L246.43 108.457ZM245.695 113.071L244.362 113.054C244.374 111.743 244.556 110.542 244.909 109.448C245.274 108.354 245.775 107.414 246.413 106.628C247.062 105.842 247.837 105.238 248.737 104.816C249.637 104.383 250.64 104.167 251.745 104.167C252.634 104.167 253.437 104.292 254.155 104.543C254.884 104.782 255.505 105.175 256.018 105.722C256.542 106.269 256.94 106.981 257.214 107.858C257.487 108.724 257.624 109.79 257.624 111.054V123H253.488V111.037C253.488 110.148 253.357 109.448 253.095 108.935C252.845 108.411 252.474 108.041 251.984 107.824C251.506 107.596 250.908 107.482 250.19 107.482C249.484 107.482 248.851 107.631 248.293 107.927C247.735 108.223 247.262 108.627 246.875 109.14C246.499 109.653 246.208 110.245 246.003 110.917C245.798 111.59 245.695 112.307 245.695 113.071ZM275.421 104.509H279.164V122.487C279.164 124.151 278.811 125.563 278.104 126.726C277.398 127.888 276.413 128.771 275.148 129.375C273.883 129.99 272.419 130.297 270.756 130.297C270.049 130.297 269.263 130.195 268.397 129.99C267.543 129.785 266.711 129.454 265.902 128.999C265.105 128.554 264.438 127.967 263.903 127.238L265.834 124.812C266.495 125.598 267.224 126.173 268.021 126.538C268.819 126.902 269.656 127.084 270.534 127.084C271.479 127.084 272.283 126.908 272.943 126.555C273.616 126.213 274.134 125.706 274.499 125.034C274.863 124.361 275.045 123.541 275.045 122.573V108.696L275.421 104.509ZM262.86 113.959V113.601C262.86 112.199 263.031 110.923 263.373 109.772C263.715 108.61 264.205 107.613 264.843 106.782C265.481 105.939 266.256 105.295 267.167 104.851C268.078 104.395 269.11 104.167 270.26 104.167C271.457 104.167 272.476 104.383 273.319 104.816C274.174 105.249 274.886 105.87 275.456 106.679C276.025 107.477 276.47 108.434 276.789 109.55C277.119 110.655 277.364 111.886 277.523 113.242V114.387C277.375 115.708 277.125 116.916 276.771 118.01C276.418 119.104 275.951 120.049 275.37 120.847C274.789 121.644 274.071 122.259 273.217 122.692C272.374 123.125 271.377 123.342 270.226 123.342C269.098 123.342 268.078 123.108 267.167 122.641C266.267 122.174 265.492 121.519 264.843 120.676C264.205 119.833 263.715 118.841 263.373 117.702C263.031 116.551 262.86 115.304 262.86 113.959ZM266.979 113.601V113.959C266.979 114.803 267.059 115.589 267.218 116.318C267.389 117.047 267.646 117.691 267.987 118.249C268.34 118.796 268.785 119.229 269.32 119.548C269.867 119.855 270.511 120.009 271.251 120.009C272.22 120.009 273.012 119.804 273.627 119.394C274.254 118.984 274.732 118.431 275.062 117.736C275.404 117.03 275.644 116.244 275.78 115.378V112.285C275.712 111.612 275.569 110.986 275.353 110.405C275.148 109.824 274.869 109.317 274.516 108.884C274.162 108.439 273.718 108.098 273.183 107.858C272.647 107.608 272.015 107.482 271.286 107.482C270.545 107.482 269.901 107.642 269.354 107.961C268.808 108.28 268.358 108.719 268.004 109.277C267.663 109.835 267.406 110.485 267.235 111.225C267.064 111.966 266.979 112.757 266.979 113.601ZM309.153 116.591C309.153 116.079 309.074 115.623 308.914 115.224C308.766 114.825 308.498 114.461 308.111 114.13C307.723 113.8 307.177 113.481 306.47 113.173C305.775 112.854 304.887 112.53 303.804 112.199C302.619 111.835 301.526 111.43 300.523 110.986C299.532 110.53 298.666 110.006 297.925 109.414C297.185 108.81 296.609 108.12 296.199 107.346C295.789 106.56 295.584 105.654 295.584 104.628C295.584 103.614 295.795 102.692 296.216 101.86C296.649 101.028 297.259 100.31 298.045 99.7065C298.842 99.0913 299.782 98.6185 300.865 98.2881C301.947 97.9463 303.143 97.7754 304.454 97.7754C306.299 97.7754 307.889 98.1172 309.222 98.8008C310.566 99.4844 311.597 100.402 312.315 101.552C313.044 102.703 313.409 103.973 313.409 105.363H309.153C309.153 104.543 308.977 103.819 308.624 103.193C308.282 102.555 307.758 102.054 307.051 101.689C306.356 101.324 305.473 101.142 304.402 101.142C303.388 101.142 302.545 101.296 301.873 101.604C301.201 101.911 300.7 102.327 300.369 102.851C300.039 103.375 299.874 103.968 299.874 104.628C299.874 105.096 299.982 105.523 300.198 105.91C300.415 106.286 300.745 106.639 301.189 106.97C301.634 107.289 302.192 107.591 302.864 107.875C303.536 108.16 304.328 108.434 305.24 108.696C306.618 109.106 307.82 109.562 308.846 110.063C309.871 110.553 310.726 111.111 311.409 111.738C312.093 112.364 312.605 113.076 312.947 113.874C313.289 114.66 313.46 115.555 313.46 116.557C313.46 117.605 313.249 118.551 312.828 119.394C312.406 120.226 311.802 120.938 311.016 121.53C310.241 122.111 309.307 122.561 308.213 122.88C307.131 123.188 305.923 123.342 304.59 123.342C303.394 123.342 302.215 123.182 301.053 122.863C299.902 122.544 298.854 122.06 297.908 121.411C296.963 120.75 296.211 119.93 295.652 118.95C295.094 117.958 294.815 116.802 294.815 115.48H299.104C299.104 116.289 299.241 116.979 299.515 117.548C299.799 118.118 300.193 118.585 300.694 118.95C301.195 119.303 301.776 119.565 302.437 119.736C303.109 119.907 303.827 119.992 304.59 119.992C305.593 119.992 306.43 119.85 307.103 119.565C307.786 119.28 308.299 118.881 308.641 118.369C308.982 117.856 309.153 117.264 309.153 116.591ZM329.719 118.642V104.509H333.855V123H329.958L329.719 118.642ZM330.3 114.797L331.685 114.763C331.685 116.005 331.548 117.15 331.274 118.198C331.001 119.235 330.579 120.14 330.01 120.915C329.44 121.678 328.711 122.277 327.822 122.709C326.934 123.131 325.868 123.342 324.626 123.342C323.726 123.342 322.9 123.211 322.148 122.949C321.396 122.687 320.747 122.282 320.2 121.735C319.665 121.188 319.249 120.476 318.953 119.599C318.656 118.722 318.508 117.674 318.508 116.455V104.509H322.627V116.489C322.627 117.161 322.707 117.725 322.866 118.181C323.026 118.625 323.242 118.984 323.516 119.257C323.789 119.531 324.108 119.724 324.473 119.838C324.837 119.952 325.225 120.009 325.635 120.009C326.808 120.009 327.731 119.781 328.403 119.326C329.087 118.859 329.571 118.232 329.856 117.446C330.152 116.66 330.3 115.777 330.3 114.797ZM339.843 96.75H343.962V119.052L343.569 123H339.843V96.75ZM356.027 113.583V113.942C356.027 115.31 355.874 116.569 355.566 117.719C355.27 118.859 354.814 119.85 354.199 120.693C353.595 121.536 352.843 122.191 351.943 122.658C351.054 123.114 350.023 123.342 348.85 123.342C347.699 123.342 346.696 123.125 345.842 122.692C344.987 122.259 344.27 121.644 343.688 120.847C343.119 120.049 342.657 119.098 342.304 117.993C341.951 116.888 341.7 115.668 341.552 114.335V113.19C341.7 111.846 341.951 110.627 342.304 109.533C342.657 108.428 343.119 107.477 343.688 106.679C344.27 105.87 344.982 105.249 345.825 104.816C346.679 104.383 347.676 104.167 348.815 104.167C350 104.167 351.043 104.395 351.943 104.851C352.854 105.306 353.612 105.956 354.216 106.799C354.82 107.631 355.27 108.622 355.566 109.772C355.874 110.923 356.027 112.194 356.027 113.583ZM351.909 113.942V113.583C351.909 112.752 351.84 111.971 351.704 111.242C351.567 110.502 351.339 109.852 351.02 109.294C350.712 108.736 350.291 108.297 349.755 107.978C349.231 107.648 348.576 107.482 347.79 107.482C347.061 107.482 346.434 107.608 345.91 107.858C345.386 108.109 344.947 108.451 344.594 108.884C344.241 109.317 343.962 109.818 343.757 110.388C343.563 110.957 343.432 111.573 343.364 112.233V115.327C343.466 116.181 343.683 116.967 344.013 117.685C344.355 118.391 344.833 118.961 345.449 119.394C346.064 119.816 346.856 120.026 347.824 120.026C348.588 120.026 349.231 119.873 349.755 119.565C350.279 119.257 350.695 118.83 351.003 118.283C351.322 117.725 351.55 117.076 351.687 116.335C351.835 115.594 351.909 114.797 351.909 113.942ZM365.399 108.063V130.109H361.281V104.509H365.075L365.399 108.063ZM377.448 113.583V113.942C377.448 115.287 377.288 116.534 376.969 117.685C376.662 118.824 376.2 119.821 375.585 120.676C374.981 121.519 374.235 122.174 373.346 122.641C372.458 123.108 371.432 123.342 370.27 123.342C369.119 123.342 368.111 123.131 367.245 122.709C366.391 122.277 365.667 121.667 365.075 120.881C364.482 120.095 364.004 119.172 363.639 118.112C363.286 117.041 363.035 115.868 362.887 114.592V113.208C363.035 111.852 363.286 110.621 363.639 109.516C364.004 108.411 364.482 107.46 365.075 106.662C365.667 105.865 366.391 105.249 367.245 104.816C368.1 104.383 369.097 104.167 370.236 104.167C371.398 104.167 372.429 104.395 373.329 104.851C374.229 105.295 374.987 105.933 375.602 106.765C376.217 107.585 376.679 108.576 376.986 109.738C377.294 110.889 377.448 112.171 377.448 113.583ZM373.329 113.942V113.583C373.329 112.729 373.249 111.937 373.09 111.208C372.93 110.467 372.68 109.818 372.338 109.26C371.996 108.701 371.557 108.269 371.022 107.961C370.498 107.642 369.866 107.482 369.125 107.482C368.396 107.482 367.769 107.608 367.245 107.858C366.721 108.098 366.282 108.434 365.929 108.867C365.576 109.3 365.303 109.807 365.109 110.388C364.915 110.957 364.778 111.578 364.699 112.25V115.566C364.835 116.386 365.069 117.138 365.399 117.822C365.73 118.505 366.197 119.052 366.801 119.462C367.416 119.861 368.202 120.061 369.159 120.061C369.9 120.061 370.532 119.901 371.056 119.582C371.58 119.263 372.007 118.824 372.338 118.266C372.68 117.696 372.93 117.041 373.09 116.301C373.249 115.56 373.329 114.774 373.329 113.942ZM386.837 108.029V123H382.718V104.509H386.649L386.837 108.029ZM392.494 104.389L392.459 108.217C392.209 108.172 391.935 108.138 391.639 108.115C391.354 108.092 391.069 108.081 390.785 108.081C390.078 108.081 389.457 108.183 388.922 108.388C388.386 108.582 387.936 108.867 387.572 109.243C387.219 109.607 386.945 110.052 386.751 110.576C386.558 111.1 386.444 111.687 386.41 112.336L385.47 112.404C385.47 111.242 385.584 110.166 385.812 109.174C386.039 108.183 386.381 107.312 386.837 106.56C387.304 105.808 387.885 105.221 388.58 104.799C389.286 104.378 390.101 104.167 391.024 104.167C391.275 104.167 391.542 104.19 391.827 104.235C392.123 104.281 392.346 104.332 392.494 104.389ZM395.594 113.959V113.566C395.594 112.233 395.787 110.997 396.175 109.858C396.562 108.707 397.12 107.71 397.85 106.867C398.59 106.013 399.49 105.352 400.55 104.885C401.621 104.406 402.828 104.167 404.173 104.167C405.529 104.167 406.736 104.406 407.796 104.885C408.867 105.352 409.773 106.013 410.513 106.867C411.254 107.71 411.818 108.707 412.205 109.858C412.592 110.997 412.786 112.233 412.786 113.566V113.959C412.786 115.292 412.592 116.529 412.205 117.668C411.818 118.807 411.254 119.804 410.513 120.659C409.773 121.502 408.873 122.163 407.813 122.641C406.753 123.108 405.551 123.342 404.207 123.342C402.851 123.342 401.638 123.108 400.567 122.641C399.507 122.163 398.607 121.502 397.867 120.659C397.126 119.804 396.562 118.807 396.175 117.668C395.787 116.529 395.594 115.292 395.594 113.959ZM399.712 113.566V113.959C399.712 114.791 399.798 115.577 399.969 116.318C400.14 117.058 400.407 117.708 400.772 118.266C401.137 118.824 401.604 119.263 402.173 119.582C402.743 119.901 403.421 120.061 404.207 120.061C404.97 120.061 405.631 119.901 406.189 119.582C406.759 119.263 407.226 118.824 407.591 118.266C407.955 117.708 408.223 117.058 408.394 116.318C408.576 115.577 408.667 114.791 408.667 113.959V113.566C408.667 112.746 408.576 111.971 408.394 111.242C408.223 110.502 407.95 109.847 407.574 109.277C407.209 108.707 406.742 108.263 406.172 107.944C405.614 107.613 404.948 107.448 404.173 107.448C403.398 107.448 402.726 107.613 402.156 107.944C401.598 108.263 401.137 108.707 400.772 109.277C400.407 109.847 400.14 110.502 399.969 111.242C399.798 111.971 399.712 112.746 399.712 113.566ZM418.005 96.75H422.124V119.052L421.731 123H418.005V96.75ZM434.189 113.583V113.942C434.189 115.31 434.036 116.569 433.728 117.719C433.432 118.859 432.976 119.85 432.361 120.693C431.757 121.536 431.005 122.191 430.105 122.658C429.216 123.114 428.185 123.342 427.012 123.342C425.861 123.342 424.858 123.125 424.004 122.692C423.149 122.259 422.432 121.644 421.851 120.847C421.281 120.049 420.819 119.098 420.466 117.993C420.113 116.888 419.862 115.668 419.714 114.335V113.19C419.862 111.846 420.113 110.627 420.466 109.533C420.819 108.428 421.281 107.477 421.851 106.679C422.432 105.87 423.144 105.249 423.987 104.816C424.841 104.383 425.838 104.167 426.978 104.167C428.162 104.167 429.205 104.395 430.105 104.851C431.016 105.306 431.774 105.956 432.378 106.799C432.982 107.631 433.432 108.622 433.728 109.772C434.036 110.923 434.189 112.194 434.189 113.583ZM430.071 113.942V113.583C430.071 112.752 430.002 111.971 429.866 111.242C429.729 110.502 429.501 109.852 429.182 109.294C428.875 108.736 428.453 108.297 427.917 107.978C427.393 107.648 426.738 107.482 425.952 107.482C425.223 107.482 424.596 107.608 424.072 107.858C423.548 108.109 423.11 108.451 422.756 108.884C422.403 109.317 422.124 109.818 421.919 110.388C421.725 110.957 421.594 111.573 421.526 112.233V115.327C421.628 116.181 421.845 116.967 422.175 117.685C422.517 118.391 422.996 118.961 423.611 119.394C424.226 119.816 425.018 120.026 425.986 120.026C426.75 120.026 427.393 119.873 427.917 119.565C428.442 119.257 428.857 118.83 429.165 118.283C429.484 117.725 429.712 117.076 429.849 116.335C429.997 115.594 430.071 114.797 430.071 113.942ZM443.835 96.75V123H439.699V96.75H443.835ZM458.249 123.342C456.881 123.342 455.645 123.12 454.54 122.675C453.446 122.22 452.512 121.587 451.737 120.778C450.974 119.969 450.387 119.018 449.977 117.924C449.567 116.831 449.362 115.651 449.362 114.387V113.703C449.362 112.256 449.573 110.946 449.994 109.772C450.416 108.599 451.002 107.596 451.754 106.765C452.506 105.922 453.395 105.278 454.42 104.833C455.446 104.389 456.557 104.167 457.753 104.167C459.075 104.167 460.231 104.389 461.222 104.833C462.213 105.278 463.034 105.904 463.683 106.713C464.344 107.511 464.834 108.462 465.153 109.567C465.483 110.673 465.648 111.892 465.648 113.225V114.985H451.361V112.028H461.581V111.704C461.558 110.963 461.41 110.268 461.137 109.619C460.875 108.969 460.47 108.445 459.923 108.046C459.376 107.648 458.647 107.448 457.736 107.448C457.052 107.448 456.443 107.596 455.907 107.893C455.383 108.177 454.944 108.593 454.591 109.14C454.238 109.687 453.965 110.348 453.771 111.123C453.589 111.886 453.498 112.746 453.498 113.703V114.387C453.498 115.196 453.606 115.948 453.822 116.643C454.05 117.326 454.381 117.924 454.813 118.437C455.246 118.95 455.771 119.354 456.386 119.65C457.001 119.935 457.702 120.078 458.488 120.078C459.479 120.078 460.362 119.878 461.137 119.479C461.911 119.081 462.584 118.517 463.153 117.788L465.324 119.89C464.925 120.471 464.407 121.029 463.769 121.564C463.131 122.089 462.35 122.516 461.427 122.846C460.516 123.177 459.456 123.342 458.249 123.342ZM474.73 108.269V123H470.611V104.509H474.491L474.73 108.269ZM474.063 113.071L472.662 113.054C472.662 111.778 472.822 110.598 473.141 109.516C473.46 108.434 473.927 107.494 474.542 106.696C475.157 105.887 475.921 105.266 476.832 104.833C477.755 104.389 478.82 104.167 480.028 104.167C480.871 104.167 481.64 104.292 482.335 104.543C483.041 104.782 483.651 105.164 484.164 105.688C484.688 106.212 485.086 106.884 485.36 107.705C485.645 108.525 485.787 109.516 485.787 110.678V123H481.668V111.037C481.668 110.137 481.532 109.431 481.258 108.918C480.996 108.405 480.615 108.041 480.113 107.824C479.623 107.596 479.037 107.482 478.353 107.482C477.578 107.482 476.917 107.631 476.371 107.927C475.835 108.223 475.396 108.627 475.055 109.14C474.713 109.653 474.462 110.245 474.303 110.917C474.143 111.59 474.063 112.307 474.063 113.071ZM485.531 111.977L483.6 112.404C483.6 111.288 483.753 110.234 484.061 109.243C484.38 108.24 484.841 107.363 485.445 106.611C486.061 105.847 486.818 105.249 487.718 104.816C488.618 104.383 489.649 104.167 490.812 104.167C491.757 104.167 492.6 104.298 493.341 104.56C494.093 104.811 494.731 105.209 495.255 105.756C495.779 106.303 496.178 107.015 496.451 107.893C496.725 108.758 496.861 109.807 496.861 111.037V123H492.726V111.02C492.726 110.086 492.589 109.362 492.315 108.85C492.053 108.337 491.677 107.984 491.188 107.79C490.698 107.585 490.111 107.482 489.427 107.482C488.789 107.482 488.225 107.602 487.735 107.841C487.257 108.069 486.852 108.394 486.522 108.815C486.192 109.226 485.941 109.698 485.77 110.234C485.611 110.769 485.531 111.35 485.531 111.977ZM513.223 117.993C513.223 117.583 513.121 117.212 512.916 116.882C512.71 116.54 512.317 116.232 511.736 115.959C511.167 115.686 510.324 115.435 509.207 115.207C508.227 114.991 507.327 114.734 506.507 114.438C505.698 114.13 505.003 113.76 504.422 113.327C503.841 112.894 503.391 112.382 503.072 111.789C502.753 111.197 502.593 110.513 502.593 109.738C502.593 108.986 502.758 108.274 503.089 107.602C503.419 106.93 503.892 106.337 504.507 105.825C505.123 105.312 505.869 104.908 506.746 104.611C507.635 104.315 508.626 104.167 509.72 104.167C511.269 104.167 512.597 104.429 513.702 104.953C514.818 105.466 515.673 106.167 516.265 107.055C516.858 107.932 517.154 108.924 517.154 110.029H513.035C513.035 109.539 512.91 109.083 512.659 108.662C512.42 108.229 512.055 107.881 511.565 107.619C511.076 107.346 510.46 107.209 509.72 107.209C509.013 107.209 508.427 107.323 507.959 107.551C507.504 107.767 507.162 108.052 506.934 108.405C506.718 108.758 506.609 109.146 506.609 109.567C506.609 109.875 506.666 110.154 506.78 110.405C506.906 110.644 507.111 110.866 507.396 111.071C507.68 111.265 508.068 111.447 508.558 111.618C509.059 111.789 509.686 111.954 510.438 112.114C511.85 112.41 513.064 112.792 514.078 113.259C515.103 113.715 515.889 114.307 516.436 115.036C516.983 115.754 517.256 116.665 517.256 117.771C517.256 118.591 517.08 119.343 516.727 120.026C516.385 120.699 515.883 121.285 515.223 121.787C514.562 122.277 513.77 122.658 512.847 122.932C511.936 123.205 510.91 123.342 509.771 123.342C508.096 123.342 506.678 123.046 505.516 122.453C504.354 121.849 503.471 121.08 502.867 120.146C502.274 119.2 501.978 118.221 501.978 117.207H505.96C506.006 117.97 506.216 118.579 506.592 119.035C506.98 119.479 507.458 119.804 508.028 120.009C508.609 120.203 509.207 120.3 509.822 120.3C510.563 120.3 511.184 120.203 511.685 120.009C512.186 119.804 512.568 119.531 512.83 119.189C513.092 118.836 513.223 118.437 513.223 117.993Z" fill="black"/>
<rect x="76" y="148" width="150" height="15" rx="7.5" fill="#616B6F"/>
<rect x="244" y="148" width="80" height="15" rx="7.5" fill="#616B6F"/>
<rect x="342" y="148" width="180" height="15" rx="7.5" fill="#616B6F"/>
<rect x="76" y="179" width="200" height="15" rx="7.5" fill="#616B6F"/>
<rect x="72" y="210" width="130" height="15" rx="7.5" fill="#616B6F"/>
<rect x="219" y="210" width="80" height="15" rx="7.5" fill="#616B6F"/>
<rect x="316" y="210" width="170" height="15" rx="7.5" fill="#616B6F"/>
<rect x="505" y="210" width="70" height="15" rx="7.5" fill="#616B6F"/>
<rect x="298" y="179" width="140" height="15" rx="7.5" fill="#616B6F"/>
<rect x="460" y="179" width="140" height="15" rx="7.5" fill="#616B6F"/>
<rect x="540" y="148" width="50" height="15" rx="7.5" fill="#616B6F"/>
<path d="M79.6621 287.672H82.9434L89.1104 304.122L95.2627 287.672H98.5439L90.3994 309H87.792L79.6621 287.672ZM78.168 287.672H81.2881L81.8301 301.91V309H78.168V287.672ZM96.918 287.672H100.053V309H96.376V301.91L96.918 287.672ZM112.554 309.293C111.382 309.293 110.322 309.103 109.375 308.722C108.438 308.331 107.637 307.789 106.973 307.096C106.318 306.402 105.815 305.587 105.464 304.649C105.112 303.712 104.937 302.701 104.937 301.617V301.031C104.937 299.791 105.117 298.668 105.479 297.662C105.84 296.656 106.343 295.797 106.987 295.084C107.632 294.361 108.394 293.81 109.272 293.429C110.151 293.048 111.104 292.857 112.129 292.857C113.262 292.857 114.253 293.048 115.103 293.429C115.952 293.81 116.655 294.347 117.212 295.04C117.778 295.724 118.198 296.539 118.472 297.486C118.755 298.434 118.896 299.479 118.896 300.621V302.13H106.65V299.596H115.41V299.317C115.391 298.683 115.264 298.087 115.029 297.53C114.805 296.974 114.458 296.524 113.989 296.183C113.521 295.841 112.896 295.67 112.114 295.67C111.528 295.67 111.006 295.797 110.547 296.051C110.098 296.295 109.722 296.651 109.419 297.12C109.116 297.589 108.882 298.155 108.716 298.819C108.56 299.474 108.481 300.211 108.481 301.031V301.617C108.481 302.311 108.574 302.955 108.76 303.551C108.955 304.137 109.238 304.649 109.609 305.089C109.98 305.528 110.43 305.875 110.957 306.129C111.484 306.373 112.085 306.495 112.759 306.495C113.608 306.495 114.365 306.324 115.029 305.982C115.693 305.641 116.27 305.157 116.758 304.532L118.618 306.334C118.276 306.832 117.832 307.311 117.285 307.77C116.738 308.219 116.069 308.585 115.278 308.868C114.497 309.151 113.589 309.293 112.554 309.293ZM126.681 296.373V309H123.15V293.15H126.476L126.681 296.373ZM126.109 300.489L124.908 300.475C124.908 299.381 125.045 298.37 125.318 297.442C125.592 296.515 125.992 295.709 126.52 295.025C127.047 294.332 127.701 293.8 128.482 293.429C129.273 293.048 130.187 292.857 131.222 292.857C131.944 292.857 132.604 292.965 133.199 293.18C133.805 293.385 134.327 293.712 134.767 294.161C135.216 294.61 135.558 295.187 135.792 295.89C136.036 296.593 136.158 297.442 136.158 298.438V309H132.628V298.746C132.628 297.975 132.511 297.369 132.276 296.93C132.052 296.49 131.725 296.178 131.295 295.992C130.875 295.797 130.372 295.699 129.786 295.699C129.122 295.699 128.556 295.826 128.087 296.08C127.628 296.334 127.252 296.681 126.959 297.12C126.666 297.56 126.451 298.067 126.314 298.644C126.178 299.22 126.109 299.835 126.109 300.489ZM135.938 299.552L134.283 299.918C134.283 298.961 134.415 298.058 134.679 297.208C134.952 296.349 135.348 295.597 135.865 294.952C136.393 294.298 137.042 293.785 137.813 293.414C138.585 293.043 139.469 292.857 140.465 292.857C141.275 292.857 141.998 292.97 142.633 293.194C143.277 293.409 143.824 293.751 144.273 294.22C144.723 294.688 145.064 295.299 145.299 296.051C145.533 296.793 145.65 297.691 145.65 298.746V309H142.105V298.731C142.105 297.931 141.988 297.311 141.754 296.871C141.529 296.432 141.207 296.129 140.787 295.963C140.367 295.787 139.864 295.699 139.278 295.699C138.731 295.699 138.248 295.802 137.828 296.007C137.418 296.202 137.071 296.48 136.788 296.842C136.505 297.193 136.29 297.599 136.144 298.058C136.007 298.517 135.938 299.015 135.938 299.552ZM150.109 301.251V300.914C150.109 299.771 150.275 298.712 150.607 297.735C150.939 296.749 151.418 295.895 152.043 295.172C152.678 294.439 153.449 293.873 154.357 293.473C155.275 293.062 156.311 292.857 157.463 292.857C158.625 292.857 159.66 293.062 160.568 293.473C161.486 293.873 162.263 294.439 162.897 295.172C163.532 295.895 164.016 296.749 164.348 297.735C164.68 298.712 164.846 299.771 164.846 300.914V301.251C164.846 302.394 164.68 303.453 164.348 304.43C164.016 305.406 163.532 306.261 162.897 306.993C162.263 307.716 161.491 308.282 160.583 308.692C159.675 309.093 158.645 309.293 157.492 309.293C156.33 309.293 155.29 309.093 154.372 308.692C153.464 308.282 152.692 307.716 152.058 306.993C151.423 306.261 150.939 305.406 150.607 304.43C150.275 303.453 150.109 302.394 150.109 301.251ZM153.64 300.914V301.251C153.64 301.964 153.713 302.638 153.859 303.272C154.006 303.907 154.235 304.464 154.548 304.942C154.86 305.421 155.261 305.797 155.749 306.07C156.237 306.344 156.818 306.48 157.492 306.48C158.146 306.48 158.713 306.344 159.191 306.07C159.68 305.797 160.08 305.421 160.393 304.942C160.705 304.464 160.935 303.907 161.081 303.272C161.237 302.638 161.315 301.964 161.315 301.251V300.914C161.315 300.211 161.237 299.547 161.081 298.922C160.935 298.287 160.7 297.726 160.378 297.237C160.065 296.749 159.665 296.368 159.177 296.095C158.698 295.812 158.127 295.67 157.463 295.67C156.799 295.67 156.223 295.812 155.734 296.095C155.256 296.368 154.86 296.749 154.548 297.237C154.235 297.726 154.006 298.287 153.859 298.922C153.713 299.547 153.64 300.211 153.64 300.914ZM173.084 293.15V309H169.539V293.15H173.084ZM169.305 288.99C169.305 288.453 169.48 288.009 169.832 287.657C170.193 287.296 170.691 287.115 171.326 287.115C171.951 287.115 172.444 287.296 172.806 287.657C173.167 288.009 173.348 288.453 173.348 288.99C173.348 289.518 173.167 289.957 172.806 290.309C172.444 290.66 171.951 290.836 171.326 290.836C170.691 290.836 170.193 290.66 169.832 290.309C169.48 289.957 169.305 289.518 169.305 288.99ZM190.712 306.188V309H178.905V306.188H190.712ZM190.39 295.348L180.106 309H177.821V306.729L188.046 293.15H190.39V295.348ZM189.027 293.15V295.963H177.997V293.15H189.027ZM203.975 305.821V298.263C203.975 297.696 203.872 297.208 203.667 296.798C203.462 296.388 203.149 296.07 202.729 295.846C202.319 295.621 201.802 295.509 201.177 295.509C200.601 295.509 200.103 295.606 199.683 295.802C199.263 295.997 198.936 296.261 198.701 296.593C198.467 296.925 198.35 297.301 198.35 297.721H194.834C194.834 297.096 194.985 296.49 195.288 295.904C195.591 295.318 196.03 294.796 196.606 294.337C197.183 293.878 197.871 293.517 198.672 293.253C199.473 292.989 200.371 292.857 201.367 292.857C202.559 292.857 203.613 293.058 204.531 293.458C205.459 293.858 206.187 294.464 206.714 295.274C207.251 296.075 207.52 297.081 207.52 298.292V305.338C207.52 306.061 207.568 306.71 207.666 307.286C207.773 307.853 207.925 308.346 208.12 308.766V309H204.502C204.336 308.619 204.204 308.136 204.106 307.55C204.019 306.954 203.975 306.378 203.975 305.821ZM204.487 299.361L204.517 301.544H201.982C201.328 301.544 200.752 301.607 200.254 301.734C199.756 301.852 199.341 302.027 199.009 302.262C198.677 302.496 198.428 302.779 198.262 303.111C198.096 303.443 198.013 303.819 198.013 304.239C198.013 304.659 198.11 305.045 198.306 305.396C198.501 305.738 198.784 306.007 199.155 306.202C199.536 306.397 199.995 306.495 200.532 306.495C201.255 306.495 201.885 306.349 202.422 306.056C202.969 305.753 203.398 305.387 203.711 304.957C204.023 304.518 204.189 304.103 204.209 303.712L205.352 305.279C205.234 305.68 205.034 306.109 204.751 306.568C204.468 307.027 204.097 307.467 203.638 307.887C203.188 308.297 202.646 308.634 202.012 308.897C201.387 309.161 200.664 309.293 199.844 309.293C198.809 309.293 197.886 309.088 197.075 308.678C196.265 308.258 195.63 307.696 195.171 306.993C194.712 306.28 194.482 305.475 194.482 304.576C194.482 303.736 194.639 302.994 194.951 302.35C195.273 301.695 195.742 301.148 196.357 300.709C196.982 300.27 197.744 299.938 198.643 299.713C199.541 299.479 200.566 299.361 201.719 299.361H204.487ZM219.977 293.15V295.729H211.041V293.15H219.977ZM213.619 289.269H217.149V304.62C217.149 305.108 217.218 305.484 217.354 305.748C217.501 306.002 217.701 306.173 217.955 306.261C218.209 306.349 218.507 306.393 218.849 306.393C219.093 306.393 219.327 306.378 219.552 306.349C219.776 306.319 219.957 306.29 220.094 306.261L220.108 308.956C219.815 309.044 219.474 309.122 219.083 309.19C218.702 309.259 218.263 309.293 217.765 309.293C216.954 309.293 216.236 309.151 215.611 308.868C214.986 308.575 214.498 308.102 214.146 307.447C213.795 306.793 213.619 305.924 213.619 304.84V289.269ZM227.98 293.15V309H224.436V293.15H227.98ZM224.201 288.99C224.201 288.453 224.377 288.009 224.729 287.657C225.09 287.296 225.588 287.115 226.223 287.115C226.848 287.115 227.341 287.296 227.702 287.657C228.063 288.009 228.244 288.453 228.244 288.99C228.244 289.518 228.063 289.957 227.702 290.309C227.341 290.66 226.848 290.836 226.223 290.836C225.588 290.836 225.09 290.66 224.729 290.309C224.377 289.957 224.201 289.518 224.201 288.99ZM232.674 301.251V300.914C232.674 299.771 232.84 298.712 233.172 297.735C233.504 296.749 233.982 295.895 234.607 295.172C235.242 294.439 236.014 293.873 236.922 293.473C237.84 293.062 238.875 292.857 240.027 292.857C241.189 292.857 242.225 293.062 243.133 293.473C244.051 293.873 244.827 294.439 245.462 295.172C246.097 295.895 246.58 296.749 246.912 297.735C247.244 298.712 247.41 299.771 247.41 300.914V301.251C247.41 302.394 247.244 303.453 246.912 304.43C246.58 305.406 246.097 306.261 245.462 306.993C244.827 307.716 244.056 308.282 243.147 308.692C242.239 309.093 241.209 309.293 240.057 309.293C238.895 309.293 237.854 309.093 236.937 308.692C236.028 308.282 235.257 307.716 234.622 306.993C233.987 306.261 233.504 305.406 233.172 304.43C232.84 303.453 232.674 302.394 232.674 301.251ZM236.204 300.914V301.251C236.204 301.964 236.277 302.638 236.424 303.272C236.57 303.907 236.8 304.464 237.112 304.942C237.425 305.421 237.825 305.797 238.313 306.07C238.802 306.344 239.383 306.48 240.057 306.48C240.711 306.48 241.277 306.344 241.756 306.07C242.244 305.797 242.645 305.421 242.957 304.942C243.27 304.464 243.499 303.907 243.646 303.272C243.802 302.638 243.88 301.964 243.88 301.251V300.914C243.88 300.211 243.802 299.547 243.646 298.922C243.499 298.287 243.265 297.726 242.942 297.237C242.63 296.749 242.229 296.368 241.741 296.095C241.263 295.812 240.691 295.67 240.027 295.67C239.363 295.67 238.787 295.812 238.299 296.095C237.82 296.368 237.425 296.749 237.112 297.237C236.8 297.726 236.57 298.287 236.424 298.922C236.277 299.547 236.204 300.211 236.204 300.914ZM255.37 296.534V309H251.84V293.15H255.165L255.37 296.534ZM254.74 300.489L253.598 300.475C253.607 299.352 253.764 298.321 254.066 297.384C254.379 296.446 254.809 295.641 255.355 294.967C255.912 294.293 256.576 293.775 257.348 293.414C258.119 293.043 258.979 292.857 259.926 292.857C260.688 292.857 261.376 292.965 261.991 293.18C262.616 293.385 263.148 293.722 263.588 294.19C264.037 294.659 264.379 295.27 264.613 296.021C264.848 296.764 264.965 297.677 264.965 298.761V309H261.42V298.746C261.42 297.984 261.308 297.384 261.083 296.944C260.868 296.495 260.551 296.178 260.131 295.992C259.721 295.797 259.208 295.699 258.593 295.699C257.987 295.699 257.445 295.826 256.967 296.08C256.488 296.334 256.083 296.681 255.751 297.12C255.429 297.56 255.18 298.067 255.004 298.644C254.828 299.22 254.74 299.835 254.74 300.489Z" fill="black"/>
<rect x="76" y="332" width="150" height="15" rx="7.5" fill="#616B6F"/>
<rect x="244" y="332" width="80" height="15" rx="7.5" fill="#616B6F"/>
<rect x="342" y="332" width="180" height="15" rx="7.5" fill="#616B6F"/>
<rect x="76" y="363" width="200" height="15" rx="7.5" fill="#616B6F"/>
<rect x="72" y="394" width="130" height="15" rx="7.5" fill="#616B6F"/>
<rect x="219" y="394" width="80" height="15" rx="7.5" fill="#616B6F"/>
<rect x="316" y="394" width="170" height="15" rx="7.5" fill="#616B6F"/>
<rect x="505" y="394" width="70" height="15" rx="7.5" fill="#616B6F"/>
<rect x="298" y="363" width="140" height="15" rx="7.5" fill="#616B6F"/>
<rect x="460" y="363" width="140" height="15" rx="7.5" fill="#616B6F"/>
<rect x="540" y="332" width="50" height="15" rx="7.5" fill="#616B6F"/>
<defs>
<filter id="filter0_d_496_8" x="0" y="0" width="678" height="717" filterUnits="userSpaceOnUse" color-interpolation-filters="sRGB">
<feFlood flood-opacity="0" result="BackgroundImageFix"/>
<feColorMatrix in="SourceAlpha" type="matrix" values="0 0 0 0 0 0 0 0 0 0 0 0 0 0 0 0 0 0 127 0" result="hardAlpha"/>
<feOffset dy="20"/>
<feGaussianBlur stdDeviation="20"/>
<feComposite in2="hardAlpha" operator="out"/>
<feColorMatrix type="matrix" values="0 0 0 0 0 0 0 0 0 0 0 0 0 0 0 0 0 0 0.25 0"/>
<feBlend mode="normal" in2="BackgroundImageFix" result="effect1_dropShadow_496_8"/>
<feBlend mode="normal" in="SourceGraphic" in2="effect1_dropShadow_496_8" result="shape"/>
</filter>
</defs>
</svg>
