<svg width="630" height="534" viewBox="0 0 630 534" fill="none" xmlns="http://www.w3.org/2000/svg">
<g filter="url(#filter0_bd_523_52)">
<rect x="40" y="20" width="549.668" height="453.973" rx="40" fill="url(#paint0_linear_523_52)" shape-rendering="crispEdges"/>
<rect x="40.5" y="20.5" width="548.668" height="452.973" rx="39.5" stroke="url(#paint1_linear_523_52)" stroke-opacity="0.6" shape-rendering="crispEdges"/>
</g>
<path d="M87.9548 76.0042C87.9548 75.5599 87.8865 75.1611 87.7498 74.808C87.6244 74.4434 87.3852 74.113 87.032 73.8167C86.6788 73.5091 86.1832 73.2072 85.5452 72.911C84.9071 72.6148 84.0811 72.3071 83.0671 71.9881C81.9392 71.6235 80.8682 71.2134 79.8542 70.7577C78.8516 70.3019 77.963 69.7721 77.1882 69.1683C76.4249 68.5531 75.821 67.841 75.3767 67.0321C74.9438 66.2232 74.7273 65.2832 74.7273 64.2122C74.7273 63.1755 74.9552 62.2355 75.4109 61.3924C75.8666 60.5379 76.5046 59.8088 77.325 59.2049C78.1453 58.5897 79.1137 58.1169 80.2302 57.7865C81.3582 57.4561 82.5943 57.2909 83.9387 57.2909C85.773 57.2909 87.3738 57.6213 88.741 58.2821C90.1082 58.9429 91.1677 59.8486 91.9197 60.9994C92.683 62.1501 93.0647 63.466 93.0647 64.9471H87.9719C87.9719 64.2179 87.8181 63.5799 87.5105 63.0331C87.2143 62.4748 86.7585 62.0361 86.1433 61.7171C85.5395 61.3981 84.7761 61.2386 83.8533 61.2386C82.9646 61.2386 82.224 61.3753 81.6316 61.6488C81.0391 61.9108 80.5948 62.2697 80.2986 62.7254C80.0024 63.1698 79.8542 63.6711 79.8542 64.2293C79.8542 64.6509 79.9568 65.0326 80.1619 65.3744C80.3783 65.7162 80.6973 66.0352 81.1189 66.3314C81.5404 66.6276 82.0588 66.9067 82.6741 67.1688C83.2893 67.4308 84.0014 67.6872 84.8103 67.9378C86.1661 68.348 87.3567 68.8094 88.3821 69.3221C89.4189 69.8348 90.2847 70.4102 90.9797 71.0482C91.6747 71.6862 92.1988 72.4097 92.552 73.2186C92.9052 74.0275 93.0818 74.9447 93.0818 75.9701C93.0818 77.0524 92.871 78.0208 92.4495 78.8753C92.0279 79.7298 91.4184 80.4533 90.6208 81.0457C89.8233 81.6382 88.872 82.0882 87.7668 82.3958C86.6617 82.7035 85.4255 82.8573 84.0583 82.8573C82.8279 82.8573 81.6145 82.6978 80.4182 82.3788C79.2219 82.0484 78.1339 81.5527 77.1541 80.8919C76.1856 80.2311 75.4109 79.388 74.8298 78.3626C74.2488 77.3372 73.9583 76.1239 73.9583 74.7225H79.1023C79.1023 75.4972 79.2219 76.1524 79.4612 76.6878C79.7004 77.2233 80.0365 77.6563 80.4695 77.9867C80.9138 78.3171 81.4379 78.5563 82.0417 78.7044C82.657 78.8525 83.3292 78.9266 84.0583 78.9266C84.947 78.9266 85.6762 78.8013 86.2458 78.5506C86.8269 78.3 87.2542 77.9525 87.5276 77.5081C87.8124 77.0638 87.9548 76.5625 87.9548 76.0042ZM97.2244 73.4579V73.099C97.2244 71.7432 97.4181 70.4956 97.8054 69.3563C98.1928 68.2056 98.7568 67.2087 99.4973 66.3656C100.238 65.5225 101.149 64.8674 102.232 64.4002C103.314 63.9217 104.556 63.6825 105.957 63.6825C107.359 63.6825 108.606 63.9217 109.7 64.4002C110.794 64.8674 111.711 65.5225 112.451 66.3656C113.203 67.2087 113.773 68.2056 114.16 69.3563C114.548 70.4956 114.741 71.7432 114.741 73.099V73.4579C114.741 74.8023 114.548 76.0498 114.16 77.2005C113.773 78.3399 113.203 79.3368 112.451 80.1913C111.711 81.0344 110.799 81.6895 109.717 82.1566C108.635 82.6237 107.393 82.8573 105.991 82.8573C104.59 82.8573 103.343 82.6237 102.249 82.1566C101.166 81.6895 100.249 81.0344 99.4973 80.1913C98.7568 79.3368 98.1928 78.3399 97.8054 77.2005C97.4181 76.0498 97.2244 74.8023 97.2244 73.4579ZM102.146 73.099V73.4579C102.146 74.2326 102.215 74.9561 102.351 75.6283C102.488 76.3005 102.705 76.8929 103.001 77.4056C103.308 77.9069 103.707 78.3 104.197 78.5848C104.687 78.8696 105.285 79.0121 105.991 79.0121C106.675 79.0121 107.262 78.8696 107.752 78.5848C108.242 78.3 108.635 77.9069 108.931 77.4056C109.227 76.8929 109.444 76.3005 109.58 75.6283C109.728 74.9561 109.802 74.2326 109.802 73.4579V73.099C109.802 72.347 109.728 71.6406 109.58 70.9798C109.444 70.3076 109.221 69.7152 108.914 69.2025C108.618 68.6784 108.225 68.2682 107.735 67.972C107.245 67.6758 106.652 67.5277 105.957 67.5277C105.262 67.5277 104.67 67.6758 104.18 67.972C103.701 68.2682 103.308 68.6784 103.001 69.2025C102.705 69.7152 102.488 70.3076 102.351 70.9798C102.215 71.6406 102.146 72.347 102.146 73.099ZM124.712 56.2655V82.5155H119.773V56.2655H124.712ZM136.818 78.9266L140.92 64.0243H146.064L139.826 82.5155H136.716L136.818 78.9266ZM133.998 64.0243L138.117 78.9437L138.202 82.5155H135.075L128.837 64.0243H133.998ZM158.29 82.8573C156.854 82.8573 155.567 82.6294 154.427 82.1737C153.288 81.7066 152.32 81.0628 151.522 80.2425C150.736 79.4222 150.132 78.4709 149.711 77.3885C149.289 76.2948 149.078 75.1327 149.078 73.9022V73.2186C149.078 71.8172 149.278 70.5355 149.677 69.3734C150.075 68.2113 150.645 67.203 151.385 66.3485C152.137 65.494 153.049 64.8389 154.12 64.3831C155.191 63.916 156.399 63.6825 157.743 63.6825C159.053 63.6825 160.215 63.8989 161.229 64.3319C162.243 64.7648 163.092 65.3801 163.776 66.1776C164.471 66.9751 164.995 67.9321 165.348 69.0487C165.701 70.1538 165.878 71.3843 165.878 72.7401V74.7909H151.18V71.5096H161.041V71.1336C161.041 70.45 160.916 69.8405 160.665 69.305C160.426 68.7581 160.061 68.3252 159.572 68.0062C159.082 67.6872 158.455 67.5277 157.692 67.5277C157.042 67.5277 156.484 67.6701 156.017 67.9549C155.55 68.2398 155.168 68.6385 154.872 69.1512C154.587 69.6639 154.371 70.2678 154.222 70.9627C154.086 71.6463 154.017 72.3983 154.017 73.2186V73.9022C154.017 74.6428 154.12 75.3263 154.325 75.953C154.541 76.5796 154.843 77.1208 155.231 77.5765C155.629 78.0322 156.108 78.3854 156.666 78.6361C157.236 78.8867 157.88 79.0121 158.597 79.0121C159.486 79.0121 160.312 78.8412 161.075 78.4994C161.85 78.1462 162.517 77.6164 163.075 76.91L165.468 79.5077C165.08 80.0659 164.55 80.6014 163.878 81.1141C163.217 81.6268 162.42 82.0484 161.486 82.3788C160.551 82.6978 159.486 82.8573 158.29 82.8573Z" fill="white"/>
<path d="M84.0994 118.192H86.907C86.8171 119.263 86.5177 120.217 86.0085 121.056C85.4994 121.887 84.7844 122.542 83.8635 123.021C82.9426 123.501 81.8233 123.74 80.5056 123.74C79.4949 123.74 78.5852 123.56 77.7766 123.201C76.968 122.834 76.2755 122.318 75.699 121.651C75.1225 120.977 74.6807 120.165 74.3738 119.214C74.0743 118.263 73.9246 117.2 73.9246 116.025V114.666C73.9246 113.49 74.078 112.427 74.385 111.476C74.6995 110.526 75.1487 109.713 75.7327 109.039C76.3167 108.358 77.0167 107.838 77.8328 107.478C78.6563 107.119 79.581 106.939 80.6067 106.939C81.9094 106.939 83.01 107.179 83.9084 107.658C84.8069 108.137 85.5032 108.8 85.9973 109.646C86.4989 110.492 86.8059 111.461 86.9182 112.555H84.1106C84.0357 111.851 83.871 111.248 83.6165 110.746C83.3694 110.245 83.0025 109.863 82.5159 109.601C82.0292 109.331 81.3928 109.197 80.6067 109.197C79.9628 109.197 79.4013 109.316 78.9221 109.556C78.443 109.796 78.0424 110.148 77.7205 110.612C77.3985 111.076 77.1552 111.649 76.9905 112.33C76.8333 113.004 76.7546 113.775 76.7546 114.643V116.025C76.7546 116.848 76.8258 117.597 76.968 118.271C77.1178 118.937 77.3424 119.51 77.6418 119.989C77.9488 120.468 78.3381 120.839 78.8098 121.101C79.2815 121.363 79.8468 121.494 80.5056 121.494C81.3067 121.494 81.9543 121.367 82.4485 121.112C82.9501 120.858 83.3282 120.487 83.5828 120C83.8448 119.506 84.017 118.904 84.0994 118.192ZM89.8314 117.575V117.316C89.8314 116.44 89.9587 115.628 90.2132 114.879C90.4678 114.123 90.8347 113.468 91.3138 112.914C91.8005 112.352 92.3919 111.918 93.0882 111.611C93.792 111.297 94.5856 111.14 95.4691 111.14C96.36 111.14 97.1537 111.297 97.85 111.611C98.5537 111.918 99.1489 112.352 99.6356 112.914C100.122 113.468 100.493 114.123 100.747 114.879C101.002 115.628 101.129 116.44 101.129 117.316V117.575C101.129 118.451 101.002 119.263 100.747 120.012C100.493 120.76 100.122 121.415 99.6356 121.977C99.1489 122.531 98.5575 122.965 97.8612 123.28C97.1649 123.587 96.375 123.74 95.4916 123.74C94.6006 123.74 93.8032 123.587 93.0995 123.28C92.4032 122.965 91.8117 122.531 91.325 121.977C90.8384 121.415 90.4678 120.76 90.2132 120.012C89.9587 119.263 89.8314 118.451 89.8314 117.575ZM92.5379 117.316V117.575C92.5379 118.121 92.5941 118.638 92.7064 119.124C92.8187 119.611 92.9946 120.038 93.2342 120.405C93.4738 120.772 93.7808 121.06 94.1551 121.269C94.5295 121.479 94.975 121.584 95.4916 121.584C95.9932 121.584 96.4274 121.479 96.7943 121.269C97.1686 121.06 97.4756 120.772 97.7152 120.405C97.9548 120.038 98.1307 119.611 98.243 119.124C98.3628 118.638 98.4227 118.121 98.4227 117.575V117.316C98.4227 116.777 98.3628 116.268 98.243 115.789C98.1307 115.302 97.951 114.872 97.704 114.497C97.4644 114.123 97.1574 113.831 96.7831 113.621C96.4162 113.404 95.9782 113.296 95.4691 113.296C94.96 113.296 94.5182 113.404 94.1439 113.621C93.777 113.831 93.4738 114.123 93.2342 114.497C92.9946 114.872 92.8187 115.302 92.7064 115.789C92.5941 116.268 92.5379 116.777 92.5379 117.316ZM107.445 111.364V123.516H104.727V111.364H107.445ZM104.548 108.175C104.548 107.763 104.683 107.422 104.952 107.153C105.229 106.876 105.611 106.737 106.098 106.737C106.577 106.737 106.955 106.876 107.232 107.153C107.509 107.422 107.647 107.763 107.647 108.175C107.647 108.579 107.509 108.916 107.232 109.185C106.955 109.455 106.577 109.59 106.098 109.59C105.611 109.59 105.229 109.455 104.952 109.185C104.683 108.916 104.548 108.579 104.548 108.175ZM114.244 113.958V123.516H111.538V111.364H114.087L114.244 113.958ZM113.761 116.991L112.885 116.979C112.893 116.118 113.013 115.328 113.245 114.61C113.484 113.891 113.814 113.273 114.233 112.757C114.66 112.24 115.169 111.843 115.76 111.566C116.352 111.282 117.011 111.14 117.737 111.14C118.321 111.14 118.849 111.222 119.32 111.387C119.8 111.544 120.208 111.802 120.544 112.161C120.889 112.521 121.151 112.989 121.331 113.565C121.51 114.134 121.6 114.834 121.6 115.665V123.516H118.882V115.654C118.882 115.07 118.796 114.61 118.624 114.273C118.459 113.928 118.216 113.685 117.894 113.543C117.58 113.393 117.187 113.318 116.715 113.318C116.251 113.318 115.835 113.416 115.468 113.61C115.101 113.805 114.791 114.071 114.536 114.408C114.289 114.745 114.098 115.134 113.963 115.576C113.829 116.017 113.761 116.489 113.761 116.991ZM137.41 123.516H133.918L133.94 121.281H137.41C138.421 121.281 139.267 121.06 139.948 120.618C140.637 120.176 141.154 119.544 141.498 118.72C141.85 117.897 142.026 116.916 142.026 115.778V114.891C142.026 114.007 141.925 113.225 141.723 112.543C141.528 111.862 141.236 111.289 140.847 110.825C140.465 110.361 139.993 110.009 139.432 109.769C138.878 109.53 138.238 109.41 137.511 109.41H133.85V107.164H137.511C138.597 107.164 139.589 107.347 140.488 107.714C141.386 108.074 142.161 108.594 142.812 109.275C143.471 109.957 143.976 110.773 144.328 111.724C144.68 112.674 144.856 113.738 144.856 114.913V115.778C144.856 116.953 144.68 118.016 144.328 118.967C143.976 119.918 143.471 120.734 142.812 121.415C142.153 122.089 141.367 122.61 140.454 122.976C139.548 123.336 138.533 123.516 137.41 123.516ZM135.479 107.164V123.516H132.66V107.164H135.479ZM153.924 123.74C153.025 123.74 152.213 123.594 151.487 123.302C150.768 123.003 150.154 122.587 149.645 122.056C149.143 121.524 148.758 120.899 148.488 120.18C148.219 119.461 148.084 118.686 148.084 117.855V117.406C148.084 116.455 148.222 115.594 148.499 114.823C148.776 114.052 149.162 113.393 149.656 112.847C150.15 112.293 150.734 111.87 151.408 111.578C152.082 111.286 152.812 111.14 153.598 111.14C154.466 111.14 155.226 111.286 155.878 111.578C156.529 111.87 157.068 112.281 157.495 112.813C157.929 113.337 158.251 113.962 158.461 114.688C158.678 115.415 158.786 116.216 158.786 117.092V118.248H149.398V116.306H156.114V116.092C156.099 115.606 156.001 115.149 155.822 114.722C155.649 114.295 155.384 113.951 155.024 113.689C154.665 113.427 154.186 113.296 153.587 113.296C153.138 113.296 152.737 113.393 152.385 113.588C152.041 113.775 151.752 114.048 151.52 114.408C151.288 114.767 151.109 115.201 150.981 115.71C150.862 116.212 150.802 116.777 150.802 117.406V117.855C150.802 118.387 150.873 118.881 151.015 119.338C151.165 119.787 151.382 120.18 151.666 120.517C151.951 120.854 152.295 121.12 152.7 121.314C153.104 121.502 153.564 121.595 154.081 121.595C154.732 121.595 155.313 121.464 155.822 121.202C156.331 120.94 156.772 120.569 157.147 120.09L158.573 121.472C158.311 121.853 157.97 122.22 157.551 122.572C157.132 122.917 156.619 123.197 156.013 123.414C155.414 123.632 154.717 123.74 153.924 123.74ZM164.732 113.958V123.516H162.025V111.364H164.575L164.732 113.958ZM164.249 116.991L163.373 116.979C163.38 116.118 163.5 115.328 163.732 114.61C163.972 113.891 164.301 113.273 164.721 112.757C165.147 112.24 165.657 111.843 166.248 111.566C166.839 111.282 167.498 111.14 168.225 111.14C168.809 111.14 169.336 111.222 169.808 111.387C170.287 111.544 170.695 111.802 171.032 112.161C171.377 112.521 171.639 112.989 171.818 113.565C171.998 114.134 172.088 114.834 172.088 115.665V123.516H169.37V115.654C169.37 115.07 169.284 114.61 169.112 114.273C168.947 113.928 168.704 113.685 168.382 113.543C168.067 113.393 167.674 113.318 167.203 113.318C166.738 113.318 166.323 113.416 165.956 113.61C165.589 113.805 165.278 114.071 165.024 114.408C164.777 114.745 164.586 115.134 164.451 115.576C164.316 116.017 164.249 116.489 164.249 116.991ZM175.484 117.575V117.316C175.484 116.44 175.611 115.628 175.866 114.879C176.12 114.123 176.487 113.468 176.966 112.914C177.453 112.352 178.044 111.918 178.741 111.611C179.445 111.297 180.238 111.14 181.122 111.14C182.013 111.14 182.806 111.297 183.502 111.611C184.206 111.918 184.801 112.352 185.288 112.914C185.775 113.468 186.145 114.123 186.4 114.879C186.655 115.628 186.782 116.44 186.782 117.316V117.575C186.782 118.451 186.655 119.263 186.4 120.012C186.145 120.76 185.775 121.415 185.288 121.977C184.801 122.531 184.21 122.965 183.514 123.28C182.817 123.587 182.028 123.74 181.144 123.74C180.253 123.74 179.456 123.587 178.752 123.28C178.056 122.965 177.464 122.531 176.978 121.977C176.491 121.415 176.12 120.76 175.866 120.012C175.611 119.263 175.484 118.451 175.484 117.575ZM178.19 117.316V117.575C178.19 118.121 178.247 118.638 178.359 119.124C178.471 119.611 178.647 120.038 178.887 120.405C179.126 120.772 179.433 121.06 179.808 121.269C180.182 121.479 180.627 121.584 181.144 121.584C181.646 121.584 182.08 121.479 182.447 121.269C182.821 121.06 183.128 120.772 183.368 120.405C183.607 120.038 183.783 119.611 183.896 119.124C184.015 118.638 184.075 118.121 184.075 117.575V117.316C184.075 116.777 184.015 116.268 183.896 115.789C183.783 115.302 183.604 114.872 183.356 114.497C183.117 114.123 182.81 113.831 182.436 113.621C182.069 113.404 181.631 113.296 181.122 113.296C180.613 113.296 180.171 113.404 179.796 113.621C179.43 113.831 179.126 114.123 178.887 114.497C178.647 114.872 178.471 115.302 178.359 115.789C178.247 116.268 178.19 116.777 178.19 117.316ZM192.907 113.835V123.516H190.2V111.364H192.75L192.907 113.835ZM192.469 116.991L191.548 116.979C191.548 116.141 191.653 115.366 191.862 114.655C192.072 113.943 192.379 113.326 192.783 112.802C193.188 112.27 193.689 111.862 194.288 111.578C194.895 111.286 195.595 111.14 196.388 111.14C196.942 111.14 197.448 111.222 197.904 111.387C198.369 111.544 198.769 111.795 199.106 112.139C199.451 112.483 199.713 112.925 199.892 113.464C200.079 114.003 200.173 114.655 200.173 115.418V123.516H197.466V115.654C197.466 115.063 197.377 114.599 197.197 114.262C197.025 113.925 196.774 113.685 196.444 113.543C196.123 113.393 195.737 113.318 195.288 113.318C194.779 113.318 194.344 113.416 193.985 113.61C193.633 113.805 193.345 114.071 193.12 114.408C192.896 114.745 192.731 115.134 192.626 115.576C192.521 116.017 192.469 116.489 192.469 116.991ZM200.005 116.272L198.735 116.553C198.735 115.819 198.837 115.126 199.039 114.475C199.248 113.816 199.552 113.24 199.948 112.745C200.353 112.244 200.851 111.851 201.442 111.566C202.034 111.282 202.711 111.14 203.475 111.14C204.096 111.14 204.65 111.226 205.137 111.398C205.631 111.563 206.05 111.825 206.395 112.184C206.739 112.543 207.001 113.011 207.181 113.588C207.36 114.157 207.45 114.846 207.45 115.654V123.516H204.733V115.643C204.733 115.029 204.643 114.554 204.463 114.217C204.291 113.88 204.044 113.648 203.722 113.52C203.4 113.386 203.014 113.318 202.565 113.318C202.146 113.318 201.775 113.397 201.453 113.554C201.139 113.704 200.873 113.917 200.656 114.194C200.439 114.464 200.274 114.774 200.162 115.126C200.057 115.478 200.005 115.86 200.005 116.272ZM214.283 111.364V123.516H211.565V111.364H214.283ZM211.385 108.175C211.385 107.763 211.52 107.422 211.79 107.153C212.067 106.876 212.449 106.737 212.935 106.737C213.414 106.737 213.793 106.876 214.07 107.153C214.347 107.422 214.485 107.763 214.485 108.175C214.485 108.579 214.347 108.916 214.07 109.185C213.793 109.455 213.414 109.59 212.935 109.59C212.449 109.59 212.067 109.455 211.79 109.185C211.52 108.916 211.385 108.579 211.385 108.175ZM221.082 113.958V123.516H218.375V111.364H220.925L221.082 113.958ZM220.599 116.991L219.723 116.979C219.73 116.118 219.85 115.328 220.082 114.61C220.322 113.891 220.651 113.273 221.071 112.757C221.497 112.24 222.007 111.843 222.598 111.566C223.189 111.282 223.848 111.14 224.575 111.14C225.159 111.14 225.686 111.222 226.158 111.387C226.637 111.544 227.045 111.802 227.382 112.161C227.727 112.521 227.989 112.989 228.168 113.565C228.348 114.134 228.438 114.834 228.438 115.665V123.516H225.72V115.654C225.72 115.07 225.634 114.61 225.462 114.273C225.297 113.928 225.054 113.685 224.732 113.543C224.417 113.393 224.024 113.318 223.553 113.318C223.088 113.318 222.673 113.416 222.306 113.61C221.939 113.805 221.628 114.071 221.374 114.408C221.127 114.745 220.936 115.134 220.801 115.576C220.666 116.017 220.599 116.489 220.599 116.991ZM239.201 121.078V115.284C239.201 114.849 239.123 114.475 238.965 114.161C238.808 113.846 238.568 113.603 238.247 113.431C237.932 113.258 237.535 113.172 237.056 113.172C236.614 113.172 236.233 113.247 235.911 113.397C235.589 113.547 235.338 113.749 235.158 114.003C234.978 114.258 234.889 114.546 234.889 114.868H232.193C232.193 114.389 232.309 113.925 232.541 113.475C232.774 113.026 233.11 112.626 233.552 112.274C233.994 111.922 234.522 111.645 235.136 111.443C235.75 111.241 236.438 111.14 237.202 111.14C238.116 111.14 238.924 111.293 239.628 111.6C240.339 111.907 240.897 112.371 241.301 112.993C241.713 113.606 241.919 114.378 241.919 115.306V120.708C241.919 121.262 241.956 121.76 242.031 122.202C242.114 122.636 242.23 123.014 242.379 123.336V123.516H239.605C239.478 123.224 239.377 122.853 239.302 122.404C239.235 121.947 239.201 121.505 239.201 121.078ZM239.594 116.126L239.617 117.799H237.674C237.172 117.799 236.73 117.848 236.349 117.945C235.967 118.035 235.649 118.17 235.394 118.349C235.139 118.529 234.949 118.746 234.821 119.001C234.694 119.255 234.63 119.544 234.63 119.866C234.63 120.188 234.705 120.483 234.855 120.753C235.005 121.015 235.222 121.221 235.506 121.37C235.798 121.52 236.15 121.595 236.562 121.595C237.116 121.595 237.599 121.483 238.011 121.258C238.43 121.026 238.759 120.745 238.999 120.416C239.239 120.079 239.366 119.761 239.381 119.461L240.257 120.663C240.167 120.97 240.013 121.299 239.796 121.651C239.579 122.003 239.295 122.34 238.943 122.662C238.598 122.976 238.183 123.235 237.696 123.437C237.217 123.639 236.663 123.74 236.034 123.74C235.241 123.74 234.533 123.583 233.912 123.268C233.29 122.946 232.804 122.516 232.452 121.977C232.1 121.43 231.924 120.813 231.924 120.124C231.924 119.48 232.044 118.911 232.283 118.417C232.53 117.915 232.89 117.496 233.361 117.159C233.84 116.822 234.424 116.568 235.113 116.395C235.802 116.216 236.588 116.126 237.472 116.126H239.594ZM251.469 111.364V113.341H244.619V111.364H251.469ZM246.595 108.388H249.302V120.158C249.302 120.532 249.354 120.82 249.459 121.022C249.571 121.217 249.725 121.348 249.919 121.415C250.114 121.483 250.342 121.516 250.605 121.516C250.792 121.516 250.971 121.505 251.144 121.483C251.316 121.46 251.454 121.438 251.559 121.415L251.57 123.482C251.346 123.549 251.084 123.609 250.784 123.661C250.492 123.714 250.155 123.74 249.773 123.74C249.152 123.74 248.602 123.632 248.123 123.414C247.643 123.19 247.269 122.827 247 122.325C246.73 121.823 246.595 121.157 246.595 120.326V108.388ZM257.606 111.364V123.516H254.888V111.364H257.606ZM254.708 108.175C254.708 107.763 254.843 107.422 255.112 107.153C255.389 106.876 255.771 106.737 256.258 106.737C256.737 106.737 257.115 106.876 257.392 107.153C257.669 107.422 257.808 107.763 257.808 108.175C257.808 108.579 257.669 108.916 257.392 109.185C257.115 109.455 256.737 109.59 256.258 109.59C255.771 109.59 255.389 109.455 255.112 109.185C254.843 108.916 254.708 108.579 254.708 108.175ZM261.204 117.575V117.316C261.204 116.44 261.331 115.628 261.586 114.879C261.84 114.123 262.207 113.468 262.686 112.914C263.173 112.352 263.764 111.918 264.461 111.611C265.164 111.297 265.958 111.14 266.842 111.14C267.733 111.14 268.526 111.297 269.222 111.611C269.926 111.918 270.521 112.352 271.008 112.914C271.495 113.468 271.865 114.123 272.12 114.879C272.374 115.628 272.502 116.44 272.502 117.316V117.575C272.502 118.451 272.374 119.263 272.12 120.012C271.865 120.76 271.495 121.415 271.008 121.977C270.521 122.531 269.93 122.965 269.234 123.28C268.537 123.587 267.747 123.74 266.864 123.74C265.973 123.74 265.176 123.587 264.472 123.28C263.776 122.965 263.184 122.531 262.698 121.977C262.211 121.415 261.84 120.76 261.586 120.012C261.331 119.263 261.204 118.451 261.204 117.575ZM263.91 117.316V117.575C263.91 118.121 263.967 118.638 264.079 119.124C264.191 119.611 264.367 120.038 264.607 120.405C264.846 120.772 265.153 121.06 265.528 121.269C265.902 121.479 266.347 121.584 266.864 121.584C267.366 121.584 267.8 121.479 268.167 121.269C268.541 121.06 268.848 120.772 269.088 120.405C269.327 120.038 269.503 119.611 269.615 119.124C269.735 118.638 269.795 118.121 269.795 117.575V117.316C269.795 116.777 269.735 116.268 269.615 115.789C269.503 115.302 269.323 114.872 269.076 114.497C268.837 114.123 268.53 113.831 268.156 113.621C267.789 113.404 267.351 113.296 266.842 113.296C266.332 113.296 265.891 113.404 265.516 113.621C265.149 113.831 264.846 114.123 264.607 114.497C264.367 114.872 264.191 115.302 264.079 115.789C263.967 116.268 263.91 116.777 263.91 117.316ZM278.604 113.958V123.516H275.898V111.364H278.447L278.604 113.958ZM278.121 116.991L277.245 116.979C277.253 116.118 277.373 115.328 277.605 114.61C277.844 113.891 278.174 113.273 278.593 112.757C279.02 112.24 279.529 111.843 280.12 111.566C280.712 111.282 281.371 111.14 282.097 111.14C282.681 111.14 283.209 111.222 283.681 111.387C284.16 111.544 284.568 111.802 284.905 112.161C285.249 112.521 285.511 112.989 285.691 113.565C285.87 114.134 285.96 114.834 285.96 115.665V123.516H283.243V115.654C283.243 115.07 283.156 114.61 282.984 114.273C282.82 113.928 282.576 113.685 282.254 113.543C281.94 113.393 281.547 113.318 281.075 113.318C280.611 113.318 280.195 113.416 279.828 113.61C279.462 113.805 279.151 114.071 278.896 114.408C278.649 114.745 278.458 115.134 278.324 115.576C278.189 116.017 278.121 116.489 278.121 116.991Z" fill="white"/>
<rect x="72.7791" y="146.516" width="200" height="13" rx="5" fill="#C1D3D8"/>
<rect x="72.7791" y="176.516" width="300" height="13" rx="5" fill="#C1D3D8"/>
<rect x="72.7791" y="206.516" width="230" height="13" rx="5" fill="#C1D3D8"/>
<rect x="290.779" y="146.516" width="100" height="13" rx="5" fill="#C1D3D8"/>
<rect x="456.779" y="206.516" width="100" height="13" rx="5" fill="#C1D3D8"/>
<rect x="404.779" y="146.516" width="150" height="13" rx="5" fill="#C1D3D8"/>
<rect x="389.779" y="176.516" width="176" height="13" rx="5" fill="#C1D3D8"/>
<rect x="314.779" y="206.516" width="130" height="13" rx="5" fill="#C1D3D8"/>
<rect x="73" y="237" width="284" height="208" fill="#D1DBDD"/>
<rect x="365" y="237" width="201" height="208" fill="#D1DBDD"/>
<path d="M90.8438 260.371H93.2852C93.207 261.302 92.9466 262.132 92.5039 262.861C92.0612 263.584 91.4395 264.154 90.6387 264.57C89.8379 264.987 88.8646 265.195 87.7188 265.195C86.8398 265.195 86.0488 265.039 85.3457 264.727C84.6426 264.408 84.0404 263.958 83.5391 263.379C83.0378 262.793 82.6536 262.087 82.3867 261.26C82.1263 260.433 81.9961 259.508 81.9961 258.486V257.305C81.9961 256.283 82.1296 255.358 82.3965 254.531C82.6699 253.704 83.0605 252.998 83.5684 252.412C84.0762 251.82 84.6849 251.367 85.3945 251.055C86.1107 250.742 86.9147 250.586 87.8066 250.586C88.9395 250.586 89.8965 250.794 90.6777 251.211C91.459 251.628 92.0645 252.204 92.4941 252.939C92.9303 253.675 93.1973 254.518 93.2949 255.469H90.8535C90.7884 254.857 90.6452 254.333 90.4238 253.896C90.209 253.46 89.89 253.128 89.4668 252.9C89.0436 252.666 88.4902 252.549 87.8066 252.549C87.2467 252.549 86.7585 252.653 86.3418 252.861C85.9251 253.07 85.5768 253.376 85.2969 253.779C85.0169 254.183 84.8053 254.681 84.6621 255.273C84.5254 255.859 84.457 256.53 84.457 257.285V258.486C84.457 259.202 84.5189 259.854 84.6426 260.439C84.7728 261.019 84.9681 261.517 85.2285 261.934C85.4954 262.35 85.834 262.673 86.2441 262.9C86.6543 263.128 87.1458 263.242 87.7188 263.242C88.4154 263.242 88.9785 263.132 89.4082 262.91C89.8444 262.689 90.1732 262.367 90.3945 261.943C90.6224 261.514 90.7721 260.99 90.8438 260.371ZM95.8281 259.834V259.609C95.8281 258.848 95.9388 258.141 96.1602 257.49C96.3815 256.833 96.7005 256.263 97.1172 255.781C97.5404 255.293 98.0547 254.915 98.6602 254.648C99.2721 254.375 99.9622 254.238 100.73 254.238C101.505 254.238 102.195 254.375 102.801 254.648C103.413 254.915 103.93 255.293 104.354 255.781C104.777 256.263 105.099 256.833 105.32 257.49C105.542 258.141 105.652 258.848 105.652 259.609V259.834C105.652 260.596 105.542 261.302 105.32 261.953C105.099 262.604 104.777 263.174 104.354 263.662C103.93 264.144 103.416 264.521 102.811 264.795C102.205 265.062 101.518 265.195 100.75 265.195C99.9753 265.195 99.2819 265.062 98.6699 264.795C98.0645 264.521 97.5501 264.144 97.127 263.662C96.7038 263.174 96.3815 262.604 96.1602 261.953C95.9388 261.302 95.8281 260.596 95.8281 259.834ZM98.1816 259.609V259.834C98.1816 260.309 98.2305 260.758 98.3281 261.182C98.4258 261.605 98.5788 261.976 98.7871 262.295C98.9954 262.614 99.2624 262.865 99.5879 263.047C99.9134 263.229 100.301 263.32 100.75 263.32C101.186 263.32 101.564 263.229 101.883 263.047C102.208 262.865 102.475 262.614 102.684 262.295C102.892 261.976 103.045 261.605 103.143 261.182C103.247 260.758 103.299 260.309 103.299 259.834V259.609C103.299 259.141 103.247 258.698 103.143 258.281C103.045 257.858 102.889 257.484 102.674 257.158C102.465 256.833 102.199 256.579 101.873 256.396C101.554 256.208 101.173 256.113 100.73 256.113C100.288 256.113 99.9036 256.208 99.5781 256.396C99.2591 256.579 98.9954 256.833 98.7871 257.158C98.5788 257.484 98.4258 257.858 98.3281 258.281C98.2305 258.698 98.1816 259.141 98.1816 259.609ZM115.07 262.812V250H117.434V265H115.295L115.07 262.812ZM108.195 259.834V259.629C108.195 258.828 108.29 258.099 108.479 257.441C108.667 256.777 108.941 256.208 109.299 255.732C109.657 255.251 110.093 254.883 110.607 254.629C111.122 254.368 111.701 254.238 112.346 254.238C112.984 254.238 113.544 254.362 114.025 254.609C114.507 254.857 114.917 255.212 115.256 255.674C115.594 256.13 115.865 256.676 116.066 257.314C116.268 257.946 116.411 258.649 116.496 259.424V260.078C116.411 260.833 116.268 261.523 116.066 262.148C115.865 262.773 115.594 263.314 115.256 263.77C114.917 264.225 114.504 264.577 114.016 264.824C113.534 265.072 112.971 265.195 112.326 265.195C111.688 265.195 111.112 265.062 110.598 264.795C110.09 264.528 109.657 264.154 109.299 263.672C108.941 263.19 108.667 262.624 108.479 261.973C108.29 261.315 108.195 260.602 108.195 259.834ZM110.549 259.629V259.834C110.549 260.316 110.591 260.765 110.676 261.182C110.767 261.598 110.907 261.966 111.096 262.285C111.285 262.598 111.529 262.845 111.828 263.027C112.134 263.203 112.499 263.291 112.922 263.291C113.456 263.291 113.895 263.174 114.24 262.939C114.585 262.705 114.855 262.389 115.051 261.992C115.253 261.589 115.389 261.139 115.461 260.645V258.877C115.422 258.493 115.34 258.135 115.217 257.803C115.1 257.471 114.94 257.181 114.738 256.934C114.536 256.68 114.286 256.484 113.986 256.348C113.693 256.204 113.345 256.133 112.941 256.133C112.512 256.133 112.147 256.224 111.848 256.406C111.548 256.589 111.301 256.839 111.105 257.158C110.917 257.477 110.777 257.848 110.686 258.271C110.594 258.695 110.549 259.147 110.549 259.629ZM125.553 265.195C124.771 265.195 124.065 265.068 123.434 264.814C122.809 264.554 122.275 264.193 121.832 263.73C121.396 263.268 121.061 262.725 120.826 262.1C120.592 261.475 120.475 260.801 120.475 260.078V259.688C120.475 258.861 120.595 258.112 120.836 257.441C121.077 256.771 121.412 256.198 121.842 255.723C122.271 255.241 122.779 254.873 123.365 254.619C123.951 254.365 124.586 254.238 125.27 254.238C126.025 254.238 126.686 254.365 127.252 254.619C127.818 254.873 128.287 255.231 128.658 255.693C129.036 256.149 129.316 256.693 129.498 257.324C129.687 257.956 129.781 258.652 129.781 259.414V260.42H121.617V258.73H127.457V258.545C127.444 258.122 127.359 257.725 127.203 257.354C127.053 256.982 126.822 256.683 126.51 256.455C126.197 256.227 125.781 256.113 125.26 256.113C124.869 256.113 124.521 256.198 124.215 256.367C123.915 256.53 123.665 256.768 123.463 257.08C123.261 257.393 123.105 257.77 122.994 258.213C122.89 258.649 122.838 259.141 122.838 259.688V260.078C122.838 260.54 122.9 260.97 123.023 261.367C123.154 261.758 123.342 262.1 123.59 262.393C123.837 262.686 124.137 262.917 124.488 263.086C124.84 263.249 125.24 263.33 125.689 263.33C126.256 263.33 126.76 263.216 127.203 262.988C127.646 262.76 128.03 262.438 128.355 262.021L129.596 263.223C129.368 263.555 129.072 263.874 128.707 264.18C128.342 264.479 127.896 264.723 127.369 264.912C126.848 265.101 126.243 265.195 125.553 265.195Z" fill="#434040"/>
<path d="M385.783 257.5V258.281C385.783 259.355 385.643 260.319 385.363 261.172C385.083 262.025 384.683 262.751 384.162 263.35C383.648 263.949 383.029 264.408 382.307 264.727C381.584 265.039 380.783 265.195 379.904 265.195C379.032 265.195 378.234 265.039 377.512 264.727C376.796 264.408 376.174 263.949 375.646 263.35C375.119 262.751 374.709 262.025 374.416 261.172C374.13 260.319 373.986 259.355 373.986 258.281V257.5C373.986 256.426 374.13 255.465 374.416 254.619C374.702 253.766 375.106 253.04 375.627 252.441C376.154 251.836 376.776 251.377 377.492 251.064C378.215 250.745 379.012 250.586 379.885 250.586C380.764 250.586 381.564 250.745 382.287 251.064C383.01 251.377 383.632 251.836 384.152 252.441C384.673 253.04 385.074 253.766 385.354 254.619C385.64 255.465 385.783 256.426 385.783 257.5ZM383.332 258.281V257.48C383.332 256.686 383.254 255.986 383.098 255.381C382.948 254.769 382.723 254.258 382.424 253.848C382.131 253.431 381.77 253.118 381.34 252.91C380.91 252.695 380.425 252.588 379.885 252.588C379.344 252.588 378.863 252.695 378.439 252.91C378.016 253.118 377.655 253.431 377.355 253.848C377.062 254.258 376.838 254.769 376.682 255.381C376.525 255.986 376.447 256.686 376.447 257.48V258.281C376.447 259.076 376.525 259.779 376.682 260.391C376.838 261.003 377.066 261.52 377.365 261.943C377.671 262.36 378.036 262.676 378.459 262.891C378.882 263.099 379.364 263.203 379.904 263.203C380.451 263.203 380.936 263.099 381.359 262.891C381.783 262.676 382.141 262.36 382.434 261.943C382.727 261.52 382.948 261.003 383.098 260.391C383.254 259.779 383.332 259.076 383.332 258.281ZM395.357 262.51V254.434H397.721V265H395.494L395.357 262.51ZM395.689 260.312L396.48 260.293C396.48 261.003 396.402 261.657 396.246 262.256C396.09 262.848 395.849 263.366 395.523 263.809C395.198 264.245 394.781 264.587 394.273 264.834C393.766 265.075 393.157 265.195 392.447 265.195C391.933 265.195 391.461 265.12 391.031 264.971C390.602 264.821 390.23 264.59 389.918 264.277C389.612 263.965 389.374 263.558 389.205 263.057C389.036 262.555 388.951 261.956 388.951 261.26V254.434H391.305V261.279C391.305 261.663 391.35 261.986 391.441 262.246C391.533 262.5 391.656 262.705 391.812 262.861C391.969 263.018 392.151 263.128 392.359 263.193C392.568 263.258 392.789 263.291 393.023 263.291C393.694 263.291 394.221 263.161 394.605 262.9C394.996 262.633 395.273 262.275 395.436 261.826C395.605 261.377 395.689 260.872 395.689 260.312ZM405.977 254.434V256.152H400.02V254.434H405.977ZM401.738 251.846H404.092V262.08C404.092 262.406 404.137 262.656 404.229 262.832C404.326 263.001 404.46 263.115 404.629 263.174C404.798 263.232 404.997 263.262 405.225 263.262C405.387 263.262 405.544 263.252 405.693 263.232C405.843 263.213 405.964 263.193 406.055 263.174L406.064 264.971C405.869 265.029 405.641 265.081 405.381 265.127C405.127 265.173 404.834 265.195 404.502 265.195C403.962 265.195 403.483 265.101 403.066 264.912C402.65 264.717 402.324 264.401 402.09 263.965C401.855 263.529 401.738 262.949 401.738 262.227V251.846ZM411.156 256.465V269.062H408.803V254.434H410.971L411.156 256.465ZM418.041 259.619V259.824C418.041 260.592 417.95 261.305 417.768 261.963C417.592 262.614 417.328 263.184 416.977 263.672C416.632 264.154 416.205 264.528 415.697 264.795C415.189 265.062 414.604 265.195 413.939 265.195C413.282 265.195 412.706 265.075 412.211 264.834C411.723 264.587 411.309 264.238 410.971 263.789C410.632 263.34 410.359 262.812 410.15 262.207C409.949 261.595 409.805 260.924 409.721 260.195V259.404C409.805 258.63 409.949 257.926 410.15 257.295C410.359 256.663 410.632 256.12 410.971 255.664C411.309 255.208 411.723 254.857 412.211 254.609C412.699 254.362 413.269 254.238 413.92 254.238C414.584 254.238 415.173 254.368 415.688 254.629C416.202 254.883 416.635 255.247 416.986 255.723C417.338 256.191 417.602 256.758 417.777 257.422C417.953 258.079 418.041 258.812 418.041 259.619ZM415.688 259.824V259.619C415.688 259.131 415.642 258.678 415.551 258.262C415.46 257.839 415.316 257.467 415.121 257.148C414.926 256.829 414.675 256.582 414.369 256.406C414.07 256.224 413.708 256.133 413.285 256.133C412.868 256.133 412.51 256.204 412.211 256.348C411.911 256.484 411.661 256.676 411.459 256.924C411.257 257.171 411.101 257.461 410.99 257.793C410.88 258.118 410.801 258.473 410.756 258.857V260.752C410.834 261.221 410.967 261.65 411.156 262.041C411.345 262.432 411.612 262.744 411.957 262.979C412.309 263.206 412.758 263.32 413.305 263.32C413.728 263.32 414.089 263.229 414.389 263.047C414.688 262.865 414.932 262.614 415.121 262.295C415.316 261.969 415.46 261.595 415.551 261.172C415.642 260.749 415.688 260.299 415.688 259.824ZM427.4 262.51V254.434H429.764V265H427.537L427.4 262.51ZM427.732 260.312L428.523 260.293C428.523 261.003 428.445 261.657 428.289 262.256C428.133 262.848 427.892 263.366 427.566 263.809C427.241 264.245 426.824 264.587 426.316 264.834C425.809 265.075 425.2 265.195 424.49 265.195C423.976 265.195 423.504 265.12 423.074 264.971C422.645 264.821 422.273 264.59 421.961 264.277C421.655 263.965 421.417 263.558 421.248 263.057C421.079 262.555 420.994 261.956 420.994 261.26V254.434H423.348V261.279C423.348 261.663 423.393 261.986 423.484 262.246C423.576 262.5 423.699 262.705 423.855 262.861C424.012 263.018 424.194 263.128 424.402 263.193C424.611 263.258 424.832 263.291 425.066 263.291C425.737 263.291 426.264 263.161 426.648 262.9C427.039 262.633 427.316 262.275 427.479 261.826C427.648 261.377 427.732 260.872 427.732 260.312ZM438.02 254.434V256.152H432.062V254.434H438.02ZM433.781 251.846H436.135V262.08C436.135 262.406 436.18 262.656 436.271 262.832C436.369 263.001 436.503 263.115 436.672 263.174C436.841 263.232 437.04 263.262 437.268 263.262C437.43 263.262 437.587 263.252 437.736 263.232C437.886 263.213 438.007 263.193 438.098 263.174L438.107 264.971C437.912 265.029 437.684 265.081 437.424 265.127C437.17 265.173 436.877 265.195 436.545 265.195C436.005 265.195 435.526 265.101 435.109 264.912C434.693 264.717 434.367 264.401 434.133 263.965C433.898 263.529 433.781 262.949 433.781 262.227V251.846Z" fill="#434040"/>
<rect x="81" y="277" width="70" height="10" rx="5" fill="#98C7B9"/>
<rect x="140" y="294" width="90" height="10" rx="5" fill="#F8B1B1"/>
<rect x="111" y="311" width="50" height="10" rx="5" fill="#84A78C"/>
<rect x="148" y="328" width="50" height="10" rx="5" fill="#98C7B9"/>
<rect x="207" y="328" width="70" height="10" rx="5" fill="#5982D2"/>
<rect x="111" y="328" width="30" height="10" rx="5" fill="#AEADF2"/>
<rect x="111" y="345" width="45" height="10" rx="5" fill="#DA9FE9"/>
<rect x="91" y="362" width="68" height="10" rx="5" fill="#F8B1B1"/>
<rect x="111" y="379" width="35" height="10" rx="5" fill="#DA9FE9"/>
<rect x="154" y="379" width="78" height="10" rx="5" fill="#5982D2"/>
<rect x="240" y="379" width="45" height="10" rx="5" fill="#3EABE8"/>
<rect x="111" y="396" width="65" height="10" rx="5" fill="#AEADF2"/>
<rect x="93" y="413" width="54" height="10" rx="5" fill="#8ECCD5"/>
<rect x="153" y="413" width="34" height="10" rx="5" fill="#84A78C"/>
<rect x="181" y="396" width="46" height="10" rx="5" fill="#3EABE8"/>
<rect x="232" y="396" width="25" height="10" rx="5" fill="#98C7B9"/>
<rect x="167" y="362" width="90" height="10" rx="5" fill="#98C7B9"/>
<rect x="162" y="345" width="45" height="10" rx="5" fill="#8ECCD5"/>
<rect x="215" y="345" width="77" height="10" rx="5" fill="#84A78C"/>
<rect x="167" y="311" width="70" height="10" rx="5" fill="#DA9FE9"/>
<rect x="243" y="311" width="66" height="10" rx="5" fill="#8ECCD5"/>
<rect x="237" y="294" width="54" height="10" rx="5" fill="#AEADF2"/>
<rect x="93" y="294" width="40" height="10" rx="5" fill="#DA9FE9"/>
<rect x="373" y="400" width="184" height="30" rx="5" fill="#929899"/>
<rect x="373.5" y="400.5" width="183" height="29" rx="4.5" stroke="#68888F" stroke-opacity="0.8"/>
<circle cx="390" cy="415" r="10" fill="#F24E1E"/>
<rect x="412" y="408" width="130" height="13" rx="5" fill="#F24E1E"/>
<path d="M395 411L385.103 419.396M385 411L395.103 419.396" stroke="white" stroke-width="1.25" stroke-linecap="round" stroke-linejoin="round"/>
<rect x="373" y="360" width="184" height="30" rx="5" fill="#929899"/>
<rect x="373.5" y="360.5" width="183" height="29" rx="4.5" stroke="#68888F" stroke-opacity="0.8"/>
<circle cx="390" cy="375" r="10" fill="#F24E1E"/>
<path d="M395 371L385.103 379.396M385 371L395.103 379.396" stroke="white" stroke-width="1.25" stroke-linecap="round" stroke-linejoin="round"/>
<rect x="412" y="368" width="130" height="13" rx="5" fill="#F24E1E"/>
<rect x="373" y="320" width="184" height="30" rx="5" fill="#929899"/>
<rect x="373.5" y="320.5" width="183" height="29" rx="4.5" stroke="#68888F" stroke-opacity="0.8"/>
<circle cx="390" cy="335" r="10" fill="#4ECB71"/>
<rect x="412" y="328" width="130" height="13" rx="5" fill="#4ECB71"/>
<path fill-rule="evenodd" clip-rule="evenodd" d="M396.645 331.213C396.748 331.289 396.833 331.381 396.895 331.486C396.957 331.59 396.995 331.703 397.007 331.82C397.019 331.936 397.004 332.053 396.963 332.164C396.923 332.275 396.858 332.378 396.771 332.467L388.684 340.764C388.593 340.857 388.481 340.933 388.355 340.986C388.229 341.04 388.091 341.069 387.95 341.074C387.809 341.079 387.668 341.058 387.536 341.013C387.404 340.969 387.284 340.901 387.183 340.814L382.356 336.665C382.168 336.498 382.062 336.273 382.062 336.04C382.061 335.807 382.166 335.584 382.354 335.419C382.542 335.254 382.798 335.161 383.066 335.159C383.334 335.157 383.594 335.247 383.789 335.409L387.827 338.878L395.204 331.31C395.378 331.131 395.628 331.021 395.898 331.003C396.169 330.985 396.437 331.059 396.645 331.213Z" fill="white"/>
<rect x="373" y="280" width="184" height="30" rx="5" fill="#929899"/>
<rect x="373.5" y="280.5" width="183" height="29" rx="4.5" stroke="#68888F" stroke-opacity="0.8"/>
<circle cx="390" cy="295" r="10" fill="#4ECB71"/>
<path fill-rule="evenodd" clip-rule="evenodd" d="M396.645 290.213C396.748 290.289 396.833 290.381 396.895 290.486C396.957 290.59 396.995 290.703 397.007 290.82C397.019 290.936 397.004 291.053 396.963 291.164C396.923 291.275 396.858 291.378 396.771 291.467L388.684 299.764C388.593 299.857 388.481 299.933 388.355 299.986C388.229 300.04 388.091 300.069 387.95 300.074C387.809 300.079 387.668 300.058 387.536 300.013C387.404 299.969 387.284 299.901 387.183 299.814L382.356 295.665C382.168 295.498 382.062 295.273 382.062 295.04C382.061 294.807 382.166 294.584 382.354 294.419C382.542 294.254 382.798 294.161 383.066 294.159C383.334 294.157 383.594 294.247 383.789 294.409L387.827 297.878L395.204 290.31C395.378 290.131 395.628 290.021 395.898 290.003C396.169 289.985 396.437 290.059 396.645 290.213Z" fill="white"/>
<rect x="412" y="288" width="130" height="13" rx="5" fill="#4ECB71"/>
<defs>
<filter id="filter0_bd_523_52" x="0" y="0" width="629.668" height="533.973" filterUnits="userSpaceOnUse" color-interpolation-filters="sRGB">
<feFlood flood-opacity="0" result="BackgroundImageFix"/>
<feGaussianBlur in="BackgroundImageFix" stdDeviation="10"/>
<feComposite in2="SourceAlpha" operator="in" result="effect1_backgroundBlur_523_52"/>
<feColorMatrix in="SourceAlpha" type="matrix" values="0 0 0 0 0 0 0 0 0 0 0 0 0 0 0 0 0 0 127 0" result="hardAlpha"/>
<feOffset dy="20"/>
<feGaussianBlur stdDeviation="20"/>
<feComposite in2="hardAlpha" operator="out"/>
<feColorMatrix type="matrix" values="0 0 0 0 0 0 0 0 0 0 0 0 0 0 0 0 0 0 0.2 0"/>
<feBlend mode="normal" in2="effect1_backgroundBlur_523_52" result="effect2_dropShadow_523_52"/>
<feBlend mode="normal" in="SourceGraphic" in2="effect2_dropShadow_523_52" result="shape"/>
</filter>
<linearGradient id="paint0_linear_523_52" x1="40" y1="20" x2="648.146" y2="391.116" gradientUnits="userSpaceOnUse">
<stop stop-color="#176B87" stop-opacity="0.7"/>
<stop offset="1" stop-color="#176B87" stop-opacity="0.5"/>
</linearGradient>
<linearGradient id="paint1_linear_523_52" x1="40" y1="29.728" x2="626.822" y2="371.89" gradientUnits="userSpaceOnUse">
<stop stop-color="#0071A5"/>
<stop offset="1" stop-color="#0071A5"/>
</linearGradient>
</defs>
</svg>
