<?xml version="1.0" standalone="no"?>
<!DOCTYPE svg PUBLIC "-//W3C//DTD SVG 20010904//EN"
 "http://www.w3.org/TR/2001/REC-SVG-20010904/DTD/svg10.dtd">
<svg version="1.0" xmlns="http://www.w3.org/2000/svg"
 width="512.000000pt" height="512.000000pt" viewBox="0 0 512.000000 512.000000"
 preserveAspectRatio="xMidYMid meet">
<metadata>
Created by potrace 1.14, written by Peter Selinger 2001-2017
</metadata>
<g transform="translate(0.000000,512.000000) scale(0.100000,-0.100000)"
fill="#000000" stroke="none">
<path d="M80 2560 l0 -2480 2480 0 2480 0 0 2480 0 2480 -2480 0 -2480 0 0
-2480z m2828 1739 c160 -37 528 -283 573 -383 16 -34 12 -37 -36 -26 -77 18
-269 23 -341 10 -547 -101 -1092 -765 -1300 -1582 -45 -178 -65 -325 -71 -510
-14 -443 87 -657 332 -708 185 -38 479 70 730 269 64 51 222 210 285 286 288
350 505 900 586 1481 30 222 29 626 -3 786 l-6 31 63 -34 c170 -92 263 -258
278 -499 65 -1019 -651 -2159 -1548 -2463 -176 -60 -253 -72 -445 -71 -163 1
-174 2 -266 32 -257 85 -414 277 -481 587 -26 120 -35 408 -19 570 71 697 388
1435 801 1869 176 185 366 306 550 351 68 16 254 19 318 4z"/>
</g>
</svg>
